STARTFONT 2.1
COMMENT
COMMENT Converted from OpenType font "manrope-extrabold.otf" by "otf2bdf 3.0".
COMMENT
FONT -FreeType-Manrope ExtraBold-Medium-R-Normal--91-660-100-100-P-446-ISO10646-1
SIZE 66 100 100
FONTBOUNDINGBOX 95 119 -4 -23
STARTPROPERTIES 19
FOUNDRY "FreeType"
FAMILY_NAME "Manrope ExtraBold"
WEIGHT_NAME "Medium"
SLANT "R"
SETWIDTH_NAME "Normal"
ADD_STYLE_NAME ""
PIXEL_SIZE 91
POINT_SIZE 660
RESOLUTION_X 100
RESOLUTION_Y 100
SPACING "P"
AVERAGE_WIDTH 446
CHARSET_REGISTRY "ISO10646"
CHARSET_ENCODING "1"
FONT_ASCENT 98
FONT_DESCENT 27
COPYRIGHT "Copyright 2019-2021 The Manrope Project Authors (https://github.com/sharanda/manrope)"
_OTF_FONTFILE "manrope-extrabold.otf"
_OTF_PSNAME "Manrope-ExtraBold"
ENDPROPERTIES
CHARS 191
STARTCHAR 0020
ENCODING 32
SWIDTH 196 0
DWIDTH 18 0
BBX 0 0 0 0
BITMAP
ENDCHAR
STARTCHAR 0021
ENCODING 33
SWIDTH 370 0
DWIDTH 34 0
BBX 12 66 11 0
BITMAP
FFF0
FFF0
FFF0
FFF0
FFF0
FFF0
FFF0
FFF0
FFF0
FFF0
FFF0
FFF0
FFF0
FFF0
FFF0
FFF0
FFF0
FFF0
FFF0
FFF0
FFF0
FFF0
FFF0
FFF0
FFF0
FFF0
FFF0
FFF0
FFF0
FFF0
FFF0
FFF0
FFF0
FFF0
FFF0
FFF0
FFF0
FFF0
FFF0
FFF0
FFF0
FFF0
FFF0
FFF0
FFF0
FFF0
FFF0
FFF0
FFF0
FFF0
0000
0000
0000
0000
0000
FFF0
FFF0
FFF0
FFF0
FFF0
FFF0
FFF0
FFF0
FFF0
FFF0
FFF0
ENDCHAR
STARTCHAR 0022
ENCODING 34
SWIDTH 490 0
DWIDTH 45 0
BBX 31 17 5 49
BITMAP
FFF83FFE
FFF83FFE
FFF83FFE
FFF83FFE
FFF83FFE
FFF83FFE
FFF83FFE
FFF83FFE
FFF83FFE
FFF83FFE
FFF83FFE
FFF83FFE
FFF83FFE
FFF83FFE
FFF83FFE
FFF83FFE
FFF83FFE
ENDCHAR
STARTCHAR 0023
ENCODING 35
SWIDTH 938 0
DWIDTH 86 0
BBX 74 65 6 1
BITMAP
0000000FFF003FFC0000
0000000FFF003FFC0000
0000000FFF003FFC0000
0000001FFF007FFC0000
0000001FFE007FF80000
0000001FFE007FF80000
0000001FFE007FF80000
0000003FFC00FFF00000
0000003FFC00FFF00000
0000003FFC00FFF00000
0000007FFC01FFF00000
0000007FF801FFE00000
0000007FF801FFE00000
0000007FF801FFE00000
000000FFF003FFC00000
00FFFFFFFFFFFFFFFFC0
00FFFFFFFFFFFFFFFFC0
00FFFFFFFFFFFFFFFFC0
01FFFFFFFFFFFFFFFF80
01FFFFFFFFFFFFFFFF80
01FFFFFFFFFFFFFFFF80
03FFFFFFFFFFFFFFFF00
03FFFFFFFFFFFFFFFF00
03FFFFFFFFFFFFFFFF00
03FFFFFFFFFFFFFFFF00
07FFFFFFFFFFFFFFFE00
07FFFFFFFFFFFFFFFE00
000007FF801FFE000000
000007FF801FFE000000
00000FFF003FFC000000
00000FFF003FFC000000
00000FFF003FFC000000
00000FFF007FFC000000
00001FFE007FF8000000
00001FFE007FF8000000
00001FFE007FF8000000
1FFFFFFFFFFFFFFFF000
3FFFFFFFFFFFFFFFF000
3FFFFFFFFFFFFFFFF000
3FFFFFFFFFFFFFFFF000
7FFFFFFFFFFFFFFFE000
7FFFFFFFFFFFFFFFE000
7FFFFFFFFFFFFFFFE000
7FFFFFFFFFFFFFFFE000
FFFFFFFFFFFFFFFFC000
FFFFFFFFFFFFFFFFC000
FFFFFFFFFFFFFFFFC000
FFFFFFFFFFFFFFFFC000
0001FFE007FF80000000
0001FFE007FF80000000
0001FFE007FF80000000
0003FFE00FFF80000000
0003FFC00FFF00000000
0003FFC00FFF00000000
0003FFC00FFF00000000
0007FF801FFE00000000
0007FF801FFE00000000
0007FF801FFE00000000
0007FF801FFE00000000
000FFF003FFC00000000
000FFF003FFC00000000
000FFF003FFC00000000
000FFF007FFC00000000
001FFE007FF800000000
001FFE007FF800000000
ENDCHAR
STARTCHAR 0024
ENCODING 36
SWIDTH 643 0
DWIDTH 59 0
BBX 51 85 4 -9
BITMAP
00000FFF000000
00000FFF000000
00000FFF000000
00000FFF000000
00000FFF000000
00000FFF000000
00000FFF000000
00000FFF000000
00000FFF000000
00007FFFC00000
0003FFFFF80000
000FFFFFFE0000
003FFFFFFF8000
007FFFFFFFC000
00FFFFFFFFE000
01FFFFFFFFF000
03FFFFFFFFF800
07FFFFFFFFFC00
07FFFFFFFFFE00
0FFFFFFFFFFE00
0FFFF807FFFF00
1FFFE001FFFF00
1FFF80007FFF80
1FFF00003FFF80
3FFE00001FFFC0
3FFE00000FFFC0
3FFE00000FFFC0
3FFE000007FFE0
3FFE000007FE00
3FFE0000038000
3FFE0000000000
3FFF0000000000
1FFFC000000000
1FFFF000000000
1FFFFE00000000
1FFFFFC0000000
0FFFFFFC000000
07FFFFFF800000
07FFFFFFF00000
03FFFFFFFE0000
01FFFFFFFF8000
00FFFFFFFFE000
007FFFFFFFF800
001FFFFFFFFC00
0007FFFFFFFE00
0000FFFFFFFF00
00001FFFFFFF00
000003FFFFFF80
0000007FFFFFC0
0000000FFFFFC0
00000000FFFFC0
000000003FFFE0
000000000FFFE0
0000000007FFE0
0070000003FFE0
3FF0000003FFE0
FFF8000001FFE0
FFF8000001FFE0
FFFC000001FFE0
FFFC000003FFE0
7FFE000003FFE0
7FFF000007FFC0
7FFF80000FFFC0
3FFFC0001FFFC0
3FFFF0007FFF80
1FFFFE03FFFF80
1FFFFFFFFFFF00
0FFFFFFFFFFF00
07FFFFFFFFFE00
03FFFFFFFFFC00
01FFFFFFFFF800
00FFFFFFFFF000
007FFFFFFFE000
001FFFFFFFC000
000FFFFFFF0000
0001FFFFFC0000
00003FFFC00000
00000FFF000000
00000FFF000000
00000FFF000000
00000FFF000000
00000FFF000000
00000FFF000000
00000FFF000000
00000FFF000000
ENDCHAR
STARTCHAR 0025
ENCODING 37
SWIDTH 905 0
DWIDTH 83 0
BBX 72 68 5 -1
BITMAP
0007F8000000000000
003FFF000000000C00
00FFFFC00000001C00
01FFFFE00000003E00
03FFFFF00000007F00
07FFFFF8000000FF80
0FFFFFFC000001FFC0
1FFFFFFE000003FFE0
1FFFFFFE000007FFF0
3FFFFFFF00000FFFF8
3FFFFFFF00001FFFF0
7FFC0FFF80003FFFE0
7FF807FF80007FFFC0
7FF003FF8000FFFF80
7FE001FF8001FFFF00
7FE001FF8003FFFE00
FFE001FF8007FFFC00
7FE001FF800FFFF800
7FF003FF801FFFF000
7FF003FF803FFFE000
7FF807FF807FFFC000
7FFE1FFF80FFFF8000
3FFFFFFF01FFFF0000
3FFFFFFF03FFFE0000
1FFFFFFE07FFFC0000
1FFFFFFE0FFFF80000
0FFFFFFC1FFFF00000
07FFFFF83FFFE00000
03FFFFF07FFFC00000
01FFFFE0FFFF800000
007FFF81FFFF000000
001FFE03FFFE000000
00002007FFFC000000
0000000FFFF8000000
0000001FFFF0000000
0000003FFFE0030000
0000007FFFC03FF800
000000FFFF80FFFE00
000001FFFF03FFFF80
000003FFFE07FFFFC0
000007FFFC0FFFFFE0
00000FFFF81FFFFFF0
00001FFFF03FFFFFF8
00003FFFE07FFFFFFC
00007FFFC07FFFFFFC
0000FFFF80FFFFFFFE
0001FFFF00FFF83FFE
0003FFFE00FFF01FFE
0007FFFC01FFE00FFF
000FFFF801FFC007FF
001FFFF001FFC007FF
003FFFE001FFC007FF
007FFFC001FFC007FF
00FFFF8001FFC007FF
01FFFF0001FFC007FF
03FFFE0001FFE00FFF
07FFFC0000FFF01FFE
0FFFF80000FFFFFFFE
1FFFF00000FFFFFFFC
0FFFE000007FFFFFFC
07FFC000003FFFFFF8
03FF8000003FFFFFF8
01FF0000001FFFFFF0
00FE0000000FFFFFE0
007C00000007FFFFC0
003800000001FFFF00
0010000000007FFC00
0000000000000FE000
ENDCHAR
STARTCHAR 0026
ENCODING 38
SWIDTH 676 0
DWIDTH 62 0
BBX 56 68 5 -1
BITMAP
00003FFC000000
0001FFFF800000
000FFFFFE00000
001FFFFFF80000
007FFFFFFC0000
00FFFFFFFE0000
01FFFFFFFF0000
03FFFFFFFF8000
03FFFFFFFFC000
07FFFFFFFFE000
07FFFFFFFFE000
0FFFFFFFFFF000
0FFFE00FFFF000
1FFFC003FFF000
1FFF8001FFF800
1FFF0000FF0000
1FFF0000E00000
1FFE0000000000
1FFE0000000000
1FFE0000000000
1FFE0000000000
1FFF0000000000
1FFF0000000000
1FFF8000000000
0FFFC000000000
0FFFE000000000
07FFF000000000
07FFF800000000
03FFFC00000000
01FFFE00000000
01FFFF00000000
01FFFF80000000
07FFFFC003FF00
0FFFFFF003FF00
0FFFFFF803FF00
1FFFFFFC03FF00
3FFFFFFE03FF00
3FFFFFFF03FF00
7FFFFFFF83FF00
7FFF7FFFC3FF00
7FFE3FFFE3FF00
FFFC1FFFF3FF00
FFF80FFFFBFF00
FFF803FFFFFF00
FFF001FFFFFF00
FFF000FFFFFF00
FFF0007FFFFF00
FFF0003FFFFF00
FFF0001FFFFF00
FFF8000FFFFF00
FFF80007FFFF00
FFF80003FFFF00
FFFC0001FFFF00
FFFE0000FFFF80
7FFF8000FFFFC0
7FFFE007FFFFE0
3FFFFFFFFFFFF8
3FFFFFFFFFFFFC
1FFFFFFFFFFFFE
1FFFFFFFFFFFFF
0FFFFFFFFFFFFE
07FFFFFFFFFFFC
03FFFFFFFFBFF8
01FFFFFFFF1FF0
007FFFFFFE0FE0
001FFFFFF807C0
0007FFFFE00380
00003FFE000100
ENDCHAR
STARTCHAR 0027
ENCODING 39
SWIDTH 272 0
DWIDTH 25 0
BBX 13 17 5 49
BITMAP
FFF8
FFF8
FFF8
FFF8
FFF8
FFF8
FFF8
FFF8
FFF8
FFF8
FFF8
FFF8
FFF8
FFF8
FFF8
FFF8
FFF8
ENDCHAR
STARTCHAR 0028
ENCODING 40
SWIDTH 458 0
DWIDTH 42 0
BBX 25 96 13 -18
BITMAP
00008000
0001E000
0003F000
0003F800
0007FE00
000FFF00
000FFF80
001FFF80
003FFF00
003FFE00
007FFE00
007FFC00
00FFF800
00FFF800
01FFF000
01FFE000
03FFE000
03FFC000
07FFC000
07FF8000
07FF8000
0FFF0000
0FFF0000
0FFE0000
1FFE0000
1FFE0000
1FFC0000
3FFC0000
3FFC0000
3FF80000
3FF80000
7FF80000
7FF80000
7FF00000
7FF00000
7FF00000
FFF00000
FFF00000
FFF00000
FFF00000
FFE00000
FFE00000
FFE00000
FFE00000
FFE00000
FFE00000
FFE00000
FFE00000
FFE00000
FFE00000
FFE00000
FFE00000
FFE00000
FFE00000
FFE00000
FFE00000
FFF00000
FFF00000
FFF00000
FFF00000
7FF00000
7FF00000
7FF00000
7FF80000
7FF80000
3FF80000
3FF80000
3FFC0000
3FFC0000
1FFC0000
1FFE0000
1FFE0000
0FFE0000
0FFF0000
0FFF0000
07FF8000
07FF8000
07FFC000
03FFC000
03FFE000
01FFF000
01FFF000
00FFF800
00FFF800
007FFC00
007FFE00
003FFE00
003FFF00
001FFF80
000FFF80
000FFF00
0007FE00
0003F800
0003F000
0001C000
00008000
ENDCHAR
STARTCHAR 0029
ENCODING 41
SWIDTH 458 0
DWIDTH 42 0
BBX 26 96 4 -18
BITMAP
00800000
01C00000
07E00000
0FF00000
1FF00000
7FF80000
FFFC0000
FFFC0000
7FFE0000
3FFF0000
1FFF0000
1FFF8000
0FFF8000
07FFC000
07FFC000
03FFE000
03FFE000
01FFF000
00FFF000
00FFF000
007FF800
007FF800
007FF800
003FFC00
003FFC00
001FFC00
001FFE00
001FFE00
000FFE00
000FFE00
000FFF00
000FFF00
0007FF00
0007FF00
0007FF00
0007FF80
0007FF80
0007FF80
0003FF80
0003FF80
0003FF80
0003FF80
0003FF80
0003FF80
0003FF80
0003FFC0
0003FFC0
0003FFC0
0003FFC0
0003FFC0
0003FF80
0003FF80
0003FF80
0003FF80
0003FF80
0003FF80
0003FF80
0003FF80
0007FF80
0007FF80
0007FF80
0007FF00
0007FF00
0007FF00
000FFF00
000FFF00
000FFE00
000FFE00
001FFE00
001FFE00
001FFC00
003FFC00
003FFC00
007FF800
007FF800
00FFF800
00FFF000
01FFF000
01FFF000
03FFE000
03FFE000
07FFC000
07FFC000
0FFF8000
1FFF8000
1FFF0000
3FFF0000
7FFE0000
FFFC0000
FFFC0000
7FF80000
1FF00000
0FF00000
07E00000
01C00000
00800000
ENDCHAR
STARTCHAR 002A
ENCODING 42
SWIDTH 469 0
DWIDTH 43 0
BBX 35 33 3 33
BITMAP
000FFE0000
000FFE0000
000FFE0000
000FFE0000
000FFC0000
000FFC0000
100FFC0100
1C0FFC0700
3F07FC3F00
3FC7FCFF80
3FFFFFFF80
7FFFFFFF80
7FFFFFFFC0
7FFFFFFFC0
FFFFFFFFC0
FFFFFFFFE0
FFFFFFFFE0
1FFFFFFF00
03FFFFF000
003FFF8000
007FFFC000
00FFFFE000
01FFFFF000
03FFFFF800
07FFFFF800
0FFFBFFC00
0FFF3FFE00
0FFF1FFE00
07FE0FFC00
03FC0FF000
00FC07E000
0078038000
0018030000
ENDCHAR
STARTCHAR 002B
ENCODING 43
SWIDTH 567 0
DWIDTH 52 0
BBX 42 42 5 12
BITMAP
0000FFC00000
0000FFC00000
0000FFC00000
0000FFC00000
0000FFC00000
0000FFC00000
0000FFC00000
0000FFC00000
0000FFC00000
0000FFC00000
0000FFC00000
0000FFC00000
0000FFC00000
0000FFC00000
0000FFC00000
0000FFC00000
FFFFFFFFFFC0
FFFFFFFFFFC0
FFFFFFFFFFC0
FFFFFFFFFFC0
FFFFFFFFFFC0
FFFFFFFFFFC0
FFFFFFFFFFC0
FFFFFFFFFFC0
FFFFFFFFFFC0
FFFFFFFFFFC0
0000FFC00000
0000FFC00000
0000FFC00000
0000FFC00000
0000FFC00000
0000FFC00000
0000FFC00000
0000FFC00000
0000FFC00000
0000FFC00000
0000FFC00000
0000FFC00000
0000FFC00000
0000FFC00000
0000FFC00000
0000FFC00000
ENDCHAR
STARTCHAR 002C
ENCODING 44
SWIDTH 316 0
DWIDTH 29 0
BBX 13 25 5 -14
BITMAP
FFF8
FFF8
FFF8
FFF8
FFF8
FFF8
FFF8
FFF8
FFF8
FFF8
FFF8
FFF8
01F8
01F8
01F8
01F8
03F8
03F0
07F0
7FF0
7FE0
7FC0
7F80
7F00
7000
ENDCHAR
STARTCHAR 002D
ENCODING 45
SWIDTH 425 0
DWIDTH 39 0
BBX 28 10 5 24
BITMAP
FFFFFFF0
FFFFFFF0
FFFFFFF0
FFFFFFF0
FFFFFFF0
FFFFFFF0
FFFFFFF0
FFFFFFF0
FFFFFFF0
FFFFFFF0
ENDCHAR
STARTCHAR 002E
ENCODING 46
SWIDTH 316 0
DWIDTH 29 0
BBX 13 12 8 0
BITMAP
FFF8
FFF8
FFF8
FFF8
FFF8
FFF8
FFF8
FFF8
FFF8
FFF8
FFF8
FFF8
ENDCHAR
STARTCHAR 002F
ENCODING 47
SWIDTH 447 0
DWIDTH 41 0
BBX 29 66 6 0
BITMAP
00007FF8
00007FF8
0000FFF8
0000FFF8
0000FFF0
0000FFF0
0001FFF0
0001FFF0
0001FFE0
0001FFE0
0003FFE0
0003FFE0
0003FFC0
0007FFC0
0007FFC0
0007FF80
0007FF80
000FFF80
000FFF80
000FFF00
000FFF00
001FFF00
001FFF00
001FFE00
001FFE00
003FFE00
003FFC00
003FFC00
007FFC00
007FFC00
007FF800
007FF800
00FFF800
00FFF800
00FFF000
00FFF000
01FFF000
01FFF000
01FFE000
01FFE000
03FFE000
03FFC000
03FFC000
07FFC000
07FFC000
07FF8000
07FF8000
0FFF8000
0FFF8000
0FFF0000
0FFF0000
1FFF0000
1FFF0000
1FFE0000
1FFE0000
3FFE0000
3FFC0000
3FFC0000
7FFC0000
7FFC0000
7FF80000
7FF80000
FFF80000
FFF80000
FFF00000
FFF00000
ENDCHAR
STARTCHAR 0030
ENCODING 48
SWIDTH 676 0
DWIDTH 62 0
BBX 49 68 6 -1
BITMAP
00001FFC000000
0000FFFFC00000
0007FFFFF80000
001FFFFFFC0000
003FFFFFFF0000
00FFFFFFFF8000
01FFFFFFFFC000
03FFFFFFFFE000
07FFFFFFFFF000
07FFFFFFFFF800
0FFFFFFFFFFC00
1FFFFFFFFFFC00
1FFFF807FFFE00
3FFFE001FFFE00
3FFF80007FFF00
3FFF00003FFF00
7FFE00003FFF00
7FFE00001FFF80
7FFC00000FFF80
7FFC00000FFF80
7FF800000FFF80
7FF800000FFF80
FFF8000007FF80
FFF8000007FF80
FFF8000007FF80
FFF8000007FF80
FFF8000007FF80
FFF8000007FF80
FFF8000007FF80
FFF8000007FF80
FFF8000007FF80
FFF8000007FF80
FFF8000007FF80
FFF8000007FF80
FFF8000007FF80
FFF8000007FF80
FFF8000007FF80
FFF8000007FF80
FFF8000007FF80
FFF8000007FF80
FFF8000007FF80
FFF8000007FF80
FFF8000007FF80
FFF8000007FF80
FFF8000007FF80
FFF8000007FF80
FFF800000FFF80
7FF800000FFF80
7FFC00000FFF80
7FFC00000FFF80
7FFE00001FFF80
7FFE00003FFF00
3FFF00003FFF00
3FFF8000FFFF00
3FFFE001FFFE00
1FFFF807FFFE00
0FFFFFFFFFFC00
0FFFFFFFFFFC00
07FFFFFFFFF800
07FFFFFFFFF000
03FFFFFFFFE000
01FFFFFFFFC000
00FFFFFFFF8000
003FFFFFFF0000
001FFFFFFE0000
0007FFFFF80000
0000FFFFC00000
00001FFC000000
ENDCHAR
STARTCHAR 0031
ENCODING 49
SWIDTH 458 0
DWIDTH 42 0
BBX 26 66 5 0
BITMAP
000FFFC0
003FFFC0
007FFFC0
01FFFFC0
07FFFFC0
0FFFFFC0
3FFFFFC0
FFFFFFC0
FFFFFFC0
FFFFFFC0
FFFFFFC0
FFFFFFC0
FFFFFFC0
FFFFFFC0
FFE7FFC0
FFC7FFC0
FF07FFC0
FC07FFC0
F807FFC0
E007FFC0
C007FFC0
0007FFC0
0007FFC0
0007FFC0
0007FFC0
0007FFC0
0007FFC0
0007FFC0
0007FFC0
0007FFC0
0007FFC0
0007FFC0
0007FFC0
0007FFC0
0007FFC0
0007FFC0
0007FFC0
0007FFC0
0007FFC0
0007FFC0
0007FFC0
0007FFC0
0007FFC0
0007FFC0
0007FFC0
0007FFC0
0007FFC0
0007FFC0
0007FFC0
0007FFC0
0007FFC0
0007FFC0
0007FFC0
0007FFC0
0007FFC0
0007FFC0
0007FFC0
0007FFC0
0007FFC0
0007FFC0
0007FFC0
0007FFC0
0007FFC0
0007FFC0
0007FFC0
0007FFC0
ENDCHAR
STARTCHAR 0032
ENCODING 50
SWIDTH 600 0
DWIDTH 55 0
BBX 46 67 5 0
BITMAP
00003FF00000
0003FFFF0000
001FFFFFC000
007FFFFFF000
00FFFFFFF800
01FFFFFFFE00
03FFFFFFFF00
07FFFFFFFF80
0FFFFFFFFF80
1FFFFFFFFFC0
3FFFFFFFFFE0
3FFFFFFFFFE0
7FFFE01FFFF0
7FFF8007FFF0
7FFF0003FFF8
FFFE0001FFF8
FFFC0000FFF8
FFF80000FFF8
FFF80000FFF8
FFF800007FFC
FFF000007FFC
FFF000007FFC
000000007FFC
000000007FFC
000000007FFC
00000000FFFC
00000000FFF8
00000001FFF8
00000003FFF8
00000003FFF8
00000007FFF0
0000000FFFF0
0000003FFFE0
0000007FFFE0
000000FFFFC0
000001FFFF80
000003FFFF00
000007FFFE00
00000FFFFC00
00003FFFF800
00007FFFF000
0000FFFFE000
0001FFFFC000
0003FFFF0000
0007FFFE0000
000FFFFC0000
001FFFF80000
007FFFF00000
00FFFFE00000
01FFFFC00000
03FFFF000000
07FFFE000000
0FFFFC000000
1FFFF8000000
7FFFF0000000
FFFFFFFFFFFC
FFFFFFFFFFFC
FFFFFFFFFFFC
FFFFFFFFFFFC
FFFFFFFFFFFC
FFFFFFFFFFFC
FFFFFFFFFFFC
FFFFFFFFFFFC
FFFFFFFFFFFC
FFFFFFFFFFFC
FFFFFFFFFFFC
FFFFFFFFFFFC
ENDCHAR
STARTCHAR 0033
ENCODING 51
SWIDTH 589 0
DWIDTH 54 0
BBX 45 67 4 -1
BITMAP
3FFFFFFFFFE0
3FFFFFFFFFE0
3FFFFFFFFFE0
3FFFFFFFFFE0
3FFFFFFFFFE0
3FFFFFFFFFE0
3FFFFFFFFFE0
3FFFFFFFFFE0
3FFFFFFFFFE0
3FFFFFFFFFE0
3FFFFFFFFFE0
3FFFFFFFFFE0
0000000FFFE0
0000001FFFC0
0000007FFF80
000000FFFF00
000001FFFE00
000003FFFC00
000007FFF000
00001FFFE000
00003FFFC000
00007FFF8000
0000FFFF0000
0003FFFE0000
0007FFFC0000
000FFFFF0000
001FFFFFC000
000FFFFFF000
000FFFFFF800
0007FFFFFC00
0007FFFFFE00
0003FFFFFF00
0003FFFFFF80
0001FFFFFFC0
0000FFFFFFC0
0000C03FFFE0
0000000FFFE0
00000007FFE0
00000003FFF0
00000003FFF0
00000001FFF0
00000001FFF0
00000000FFF8
00000000FFF8
00000000FFF8
00000000FFF8
00000000FFF8
00000000FFF8
00700001FFF0
07F00001FFF0
7FF80003FFF0
FFFC0003FFF0
FFFE0007FFE0
7FFF001FFFE0
7FFFC03FFFC0
3FFFFFFFFFC0
3FFFFFFFFF80
1FFFFFFFFF80
0FFFFFFFFF00
0FFFFFFFFE00
07FFFFFFFC00
01FFFFFFF800
00FFFFFFF000
007FFFFFC000
001FFFFF0000
0007FFFC0000
00007FE00000
ENDCHAR
STARTCHAR 0034
ENCODING 52
SWIDTH 610 0
DWIDTH 56 0
BBX 47 66 5 0
BITMAP
00000FFFC000
00000FFFC000
00001FFFC000
00001FFF8000
00003FFF8000
00003FFF0000
00007FFF0000
00007FFE0000
0000FFFE0000
0000FFFC0000
0001FFFC0000
0001FFF80000
0003FFF80000
0003FFF00000
0003FFF00000
0007FFE00000
0007FFE00000
000FFFC00000
000FFFC00000
001FFF800000
001FFF800000
003FFF800000
003FFF000000
007FFF000000
007FFE000000
00FFFE000000
00FFFC000000
01FFFC000000
01FFF80FFF80
03FFF80FFF80
03FFF00FFF80
07FFF00FFF80
07FFE00FFF80
07FFE00FFF80
0FFFC00FFF80
0FFFC00FFF80
1FFF800FFF80
1FFF800FFF80
3FFF000FFF80
3FFF000FFF80
7FFF000FFF80
7FFE000FFF80
FFFE000FFF80
FFFC000FFF80
FFFFFFFFFFFE
FFFFFFFFFFFE
FFFFFFFFFFFE
FFFFFFFFFFFE
FFFFFFFFFFFE
FFFFFFFFFFFE
FFFFFFFFFFFE
FFFFFFFFFFFE
FFFFFFFFFFFE
FFFFFFFFFFFE
FFFFFFFFFFFE
FFFFFFFFFFFE
0000000FFF80
0000000FFF80
0000000FFF80
0000000FFF80
0000000FFF80
0000000FFF80
0000000FFF80
0000000FFF80
0000000FFF80
0000000FFF80
ENDCHAR
STARTCHAR 0035
ENCODING 53
SWIDTH 589 0
DWIDTH 54 0
BBX 44 67 5 -1
BITMAP
0FFFFFFFFF00
0FFFFFFFFF00
0FFFFFFFFF00
0FFFFFFFFF00
0FFFFFFFFF00
0FFFFFFFFF00
0FFFFFFFFF00
0FFFFFFFFF00
1FFFFFFFFF00
1FFFFFFFFF00
1FFFFFFFFF00
1FFFFFFFFF00
1FFE00000000
1FFE00000000
1FFE00000000
1FFE00000000
1FFE00000000
1FFE00000000
1FFE00000000
1FFE00000000
1FFC00000000
1FFC00000000
1FFC00000000
1FFC00000000
1FFC3FF80000
1FFDFFFF0000
3FFFFFFFC000
3FFFFFFFF000
3FFFFFFFF800
3FFFFFFFFC00
3FFFFFFFFE00
3FFFFFFFFF00
3FFFFFFFFF80
3FFFFFFFFF80
3FFFFFFFFFC0
1FFFC07FFFC0
03FE001FFFE0
003C000FFFE0
00000007FFF0
00000003FFF0
00000001FFF0
00000001FFF0
00000001FFF0
00000000FFF0
00000000FFF0
00000000FFF0
00000000FFF0
00000000FFF0
00F00001FFF0
0FF00001FFF0
7FF80003FFF0
FFFC0007FFE0
FFFE000FFFE0
7FFF001FFFE0
7FFFC07FFFC0
7FFFFFFFFFC0
3FFFFFFFFF80
1FFFFFFFFF00
1FFFFFFFFE00
0FFFFFFFFE00
07FFFFFFFC00
03FFFFFFF000
00FFFFFFE000
007FFFFFC000
001FFFFF0000
0007FFF80000
0000FFC00000
ENDCHAR
STARTCHAR 0036
ENCODING 54
SWIDTH 621 0
DWIDTH 57 0
BBX 46 68 6 -1
BITMAP
00001FFC0000
0001FFFFC000
0007FFFFF800
001FFFFFFC00
003FFFFFFF00
00FFFFFFFF80
01FFFFFFFFC0
03FFFFFFFF80
03FFFFFFFF00
07FFFFFFFE00
0FFFFFFFFC00
0FFFFFFFF800
1FFFF007F000
1FFFC001E000
3FFF8000C000
3FFF00000000
3FFE00000000
7FFE00000000
7FFC00000000
7FFC00000000
7FF800000000
7FF800000000
FFF800000000
FFF800000000
FFF800000000
FFF80FFE0000
FFF87FFFC000
FFF9FFFFF000
FFFBFFFFFC00
FFFFFFFFFE00
FFFFFFFFFF00
FFFFFFFFFF80
FFFFFFFFFFC0
FFFFFFFFFFE0
FFFFFFFFFFE0
FFFFFFFFFFF0
FFFFF01FFFF0
FFFFC007FFF8
FFFF8003FFF8
FFFF0001FFFC
FFFE0000FFFC
FFFC00007FFC
FFFC00007FFC
FFFC00007FFC
FFF800003FFC
FFF800003FFC
FFF800003FFC
7FF800003FFC
7FF800007FFC
7FFC00007FFC
7FFC00007FFC
7FFE0000FFFC
3FFF0001FFF8
3FFF8003FFF8
3FFFC007FFF8
1FFFF01FFFF0
1FFFFFFFFFF0
0FFFFFFFFFE0
07FFFFFFFFC0
07FFFFFFFFC0
03FFFFFFFF80
01FFFFFFFF00
00FFFFFFFE00
007FFFFFF800
001FFFFFF000
0007FFFFC000
0001FFFF0000
00001FF80000
ENDCHAR
STARTCHAR 0037
ENCODING 55
SWIDTH 545 0
DWIDTH 50 0
BBX 41 66 4 0
BITMAP
FFFFFFFFFF80
FFFFFFFFFF80
FFFFFFFFFF80
FFFFFFFFFF80
FFFFFFFFFF80
FFFFFFFFFF80
FFFFFFFFFF80
FFFFFFFFFF80
FFFFFFFFFF80
FFFFFFFFFF80
FFFFFFFFFF80
FFFFFFFFFF80
0000000FFF80
0000001FFF80
0000001FFF00
0000003FFF00
0000003FFE00
0000003FFE00
0000007FFE00
0000007FFC00
000000FFFC00
000000FFF800
000001FFF800
000001FFF000
000001FFF000
000003FFF000
000003FFE000
000007FFE000
000007FFC000
000007FFC000
00000FFFC000
00000FFF8000
00001FFF8000
00001FFF0000
00001FFF0000
00003FFF0000
00003FFE0000
00007FFE0000
00007FFC0000
00007FFC0000
0000FFFC0000
0000FFF80000
0001FFF80000
0001FFF00000
0003FFF00000
0003FFF00000
0003FFE00000
0007FFE00000
0007FFC00000
000FFFC00000
000FFFC00000
000FFF800000
001FFF800000
001FFF000000
003FFF000000
003FFE000000
003FFE000000
007FFE000000
007FFC000000
00FFFC000000
00FFF8000000
00FFF8000000
01FFF8000000
01FFF0000000
03FFF0000000
03FFE0000000
ENDCHAR
STARTCHAR 0038
ENCODING 56
SWIDTH 621 0
DWIDTH 57 0
BBX 47 68 5 -1
BITMAP
00003FF80000
0003FFFF0000
000FFFFFE000
003FFFFFF000
007FFFFFFC00
00FFFFFFFE00
01FFFFFFFF00
03FFFFFFFF80
07FFFFFFFFC0
07FFFFFFFFC0
0FFFFFFFFFE0
0FFFFFFFFFE0
1FFFE00FFFF0
1FFFC007FFF0
1FFF8003FFF0
3FFF0001FFF0
3FFF0001FFF8
3FFF0001FFF8
3FFE0000FFF8
3FFE0000FFF8
3FFF0001FFF8
3FFF0001FFF8
1FFF0001FFF0
1FFF8003FFF0
1FFFC007FFF0
1FFFF01FFFF0
0FFFFFFFFFE0
0FFFFFFFFFE0
07FFFFFFFFC0
03FFFFFFFF80
03FFFFFFFF80
01FFFFFFFF00
03FFFFFFFF80
07FFFFFFFFC0
07FFFFFFFFC0
0FFFFFFFFFE0
1FFFFFFFFFF0
1FFFFFFFFFF0
3FFFE00FFFF8
3FFF8003FFF8
7FFF0001FFFC
7FFE0000FFFC
7FFE0000FFFC
7FFC00007FFC
7FFC00007FFC
7FFC00007FFE
FFFC00007FFE
FFFC00007FFE
7FFC00007FFE
7FFC00007FFC
7FFC00007FFC
7FFE0000FFFC
7FFE0000FFFC
7FFF0001FFFC
3FFF8003FFF8
3FFFE00FFFF8
1FFFFFFFFFF0
1FFFFFFFFFF0
0FFFFFFFFFE0
07FFFFFFFFC0
07FFFFFFFFC0
03FFFFFFFF80
00FFFFFFFF00
007FFFFFFC00
003FFFFFF800
000FFFFFE000
0001FFFF8000
00003FF80000
ENDCHAR
STARTCHAR 0039
ENCODING 57
SWIDTH 621 0
DWIDTH 57 0
BBX 46 68 5 -1
BITMAP
00003FE00000
0003FFFE0000
000FFFFF8000
003FFFFFE000
007FFFFFF800
01FFFFFFFC00
03FFFFFFFE00
07FFFFFFFF00
0FFFFFFFFF80
0FFFFFFFFF80
1FFFFFFFFFC0
3FFFFFFFFFC0
3FFFE03FFFE0
7FFF800FFFE0
7FFF0007FFF0
7FFE0003FFF0
FFFC0001FFF8
FFF80000FFF8
FFF80000FFF8
FFF800007FF8
FFF000007FF8
FFF000007FF8
FFF000007FFC
FFF000007FFC
FFF80000FFFC
FFF80000FFFC
FFF80000FFFC
FFFC0001FFFC
FFFE0003FFFC
7FFF0007FFFC
7FFF800FFFFC
3FFFE03FFFFC
3FFFFFFFFFFC
1FFFFFFFFFFC
1FFFFFFFFFFC
0FFFFFFFFFFC
07FFFFFFFFFC
03FFFFFFFFFC
01FFFFFFFFFC
00FFFFFF7FFC
003FFFFE7FFC
000FFFF87FFC
0001FFC07FFC
000000007FFC
000000007FFC
000000007FF8
000000007FF8
00000000FFF8
00000000FFF8
00000000FFF8
00000001FFF8
00000001FFF0
00000003FFF0
000C0007FFF0
001E000FFFE0
003F803FFFE0
007FFFFFFFC0
00FFFFFFFFC0
01FFFFFFFF80
03FFFFFFFF00
07FFFFFFFF00
0FFFFFFFFE00
07FFFFFFFC00
03FFFFFFF000
01FFFFFFE000
007FFFFF8000
000FFFFE0000
0000FFE00000
ENDCHAR
STARTCHAR 003A
ENCODING 58
SWIDTH 360 0
DWIDTH 33 0
BBX 13 38 10 6
BITMAP
FFF8
FFF8
FFF8
FFF8
FFF8
FFF8
FFF8
FFF8
FFF8
FFF8
FFF8
FFF8
0000
0000
0000
0000
0000
0000
0000
0000
0000
0000
0000
0000
0000
0000
FFF8
FFF8
FFF8
FFF8
FFF8
FFF8
FFF8
FFF8
FFF8
FFF8
FFF8
FFF8
ENDCHAR
STARTCHAR 003B
ENCODING 59
SWIDTH 360 0
DWIDTH 33 0
BBX 13 63 10 -14
BITMAP
FFF8
FFF8
FFF8
FFF8
FFF8
FFF8
FFF8
FFF8
FFF8
FFF8
FFF8
FFF8
0000
0000
0000
0000
0000
0000
0000
0000
0000
0000
0000
0000
0000
0000
0000
0000
0000
0000
0000
0000
0000
0000
0000
0000
0000
0000
FFF8
FFF8
FFF8
FFF8
FFF8
FFF8
FFF8
FFF8
FFF8
FFF8
FFF8
FFF8
01F8
01F0
01F0
03F0
03F0
07F0
0FF0
7FE0
7FE0
FFC0
FF80
FF00
7000
ENDCHAR
STARTCHAR 003C
ENCODING 60
SWIDTH 643 0
DWIDTH 59 0
BBX 30 44 13 7
BITMAP
00000200
00000700
00000F80
00001FC0
00003FE0
00007FF0
0000FFF8
0001FFFC
0003FFF8
0007FFF0
000FFFE0
001FFFC0
003FFF80
007FFF00
00FFFE00
01FFFC00
03FFF800
07FFF000
0FFFE000
1FFF8000
3FFF0000
7FFE0000
FFFE0000
7FFF0000
3FFF8000
1FFFC000
0FFFE000
07FFF000
03FFF800
01FFFC00
00FFFE00
007FFF00
003FFF80
001FFFC0
000FFFE0
0007FFF8
0003FFFC
0001FFF8
0000FFF0
00007FE0
00003FC0
00001F80
00000F00
00000600
ENDCHAR
STARTCHAR 003D
ENCODING 61
SWIDTH 752 0
DWIDTH 69 0
BBX 47 28 11 19
BITMAP
FFFFFFFFFFFE
FFFFFFFFFFFE
FFFFFFFFFFFE
FFFFFFFFFFFE
FFFFFFFFFFFE
FFFFFFFFFFFE
FFFFFFFFFFFE
FFFFFFFFFFFE
FFFFFFFFFFFE
FFFFFFFFFFFE
000000000000
000000000000
000000000000
000000000000
000000000000
000000000000
000000000000
000000000000
FFFFFFFFFFFE
FFFFFFFFFFFE
FFFFFFFFFFFE
FFFFFFFFFFFE
FFFFFFFFFFFE
FFFFFFFFFFFE
FFFFFFFFFFFE
FFFFFFFFFFFE
FFFFFFFFFFFE
FFFFFFFFFFFE
ENDCHAR
STARTCHAR 003E
ENCODING 62
SWIDTH 643 0
DWIDTH 59 0
BBX 29 44 17 7
BITMAP
01000000
03800000
07C00000
0FE00000
1FF00000
3FF80000
7FFC0000
FFFE0000
FFFF0000
7FFF8000
3FFFC000
1FFFE000
0FFFF000
07FFF800
03FFFC00
01FFFE00
007FFF00
003FFF80
001FFFC0
000FFFE0
0007FFF0
0003FFF8
0003FFF8
0007FFF0
000FFFE0
001FFFC0
003FFF80
007FFF00
00FFFE00
01FFFC00
03FFF800
07FFF000
0FFFE000
1FFFC000
3FFF8000
7FFF0000
FFFE0000
FFFC0000
7FF80000
3FF00000
1FE00000
0FC00000
07800000
03000000
ENDCHAR
STARTCHAR 003F
ENCODING 63
SWIDTH 567 0
DWIDTH 52 0
BBX 42 67 5 0
BITMAP
0000FFC00000
000FFFFC0000
003FFFFF0000
00FFFFFFC000
01FFFFFFE000
03FFFFFFF000
07FFFFFFF800
0FFFFFFFFC00
1FFFFFFFFE00
1FFFFFFFFF00
3FFFFFFFFF00
3FFFFFFFFF80
7FFF807FFF80
7FFE001FFF80
FFFC000FFFC0
FFF8000FFFC0
FFF80007FFC0
FFF80007FFC0
FFF80007FFC0
00000007FFC0
00000007FFC0
00000007FFC0
0000000FFFC0
0000000FFF80
0000000FFF80
0000001FFF80
0000003FFF00
0000007FFF00
000000FFFE00
000001FFFE00
000003FFFC00
000007FFF800
00000FFFF800
00001FFFF000
00003FFFE000
00007FFFC000
0000FFFF8000
0000FFFF0000
0001FFFE0000
0001FFFC0000
0001FFF80000
0003FFF00000
0003FFF00000
0003FFE00000
0007FFE00000
0007FFC00000
0007FFC00000
0007FFC00000
0007FFC00000
000000000000
000000000000
000000000000
000000000000
000000000000
0007FFC00000
0007FFC00000
0007FFC00000
0007FFC00000
0007FFC00000
0007FFC00000
0007FFC00000
0007FFC00000
0007FFC00000
0007FFC00000
0007FFC00000
0007FFC00000
0007FFC00000
ENDCHAR
STARTCHAR 0040
ENCODING 64
SWIDTH 916 0
DWIDTH 84 0
BBX 70 69 7 -10
BITMAP
0000000FFF80000000
000001FFFFFC000000
00000FFFFFFF800000
00003FFFFFFFF00000
0000FFFFFFFFFC0000
0001FFFFFFFFFE0000
0007FFFFFFFFFF8000
000FFFFFFFFFFFC000
001FFFFFFFFFFFF000
003FFFFFFFFFFFF800
007FFFF0003FFFFC00
00FFFF000003FFFC00
01FFFC000000FFFE00
03FFF00000003FFF00
03FFE00000001FFF80
07FFC000000007FF80
07FF8000F00003FFC0
0FFF001FFF0001FFC0
0FFE007FFFEFE1FFE0
1FFC00FFFFFFE0FFE0
1FFC03FFFFFFE07FF0
3FF807FFFFFFE07FF0
3FF80FFFFFFFE03FF0
3FF00FFFFFFFE03FF8
3FF01FFFFFFFE03FF8
7FF03FFFFFFFE01FF8
7FE03FFF03FFE01FF8
7FE03FFC00FFE01FF8
7FE07FF800FFE01FF8
7FE07FF0007FE01FFC
7FE07FE0007FE01FFC
FFE07FE0003FE01FFC
FFE07FE0003FE01FFC
FFE07FE0003FE01FFC
FFE07FE0003FE01FFC
FFE07FE0003FE01FFC
FFE07FE0003FE01FFC
FFE07FE0003FE01FF8
FFE07FF0007FE01FF8
FFE07FF0007FE01FF8
7FE07FF800FFF03FF8
7FE03FFE03FFF83FF8
7FF03FFFFFFFFFFFF0
7FF01FFFFFFFFFFFF0
7FF01FFFFFFFFFFFF0
3FF80FFFFFFFFFFFE0
3FF807FFFFFFFFFFE0
3FF803FFFFFFFFFFC0
1FFC01FFFFF7FFFF80
1FFE007FFFE3FFFF00
0FFE003FFF80FFFC00
0FFF0003FC001FE000
07FF80000000000000
07FFC0000000000000
03FFE0000000000000
03FFF8000000000000
01FFFE000000000000
00FFFF800000000000
007FFFF80078000000
003FFFFFFFFC000000
001FFFFFFFFC000000
000FFFFFFFFC000000
0003FFFFFFFE000000
0001FFFFFFFE000000
00007FFFFFFE000000
00001FFFFFFF000000
000003FFFFFF000000
0000007FFFF8000000
00000000FC00000000
ENDCHAR
STARTCHAR 0041
ENCODING 65
SWIDTH 687 0
DWIDTH 63 0
BBX 59 66 2 0
BITMAP
00000FFFFE000000
00000FFFFE000000
00001FFFFE000000
00001FFFFF000000
00001FFFFF000000
00003FFFFF000000
00003FFFFF800000
00003FFFFF800000
00007FFFFF800000
00007FFFFFC00000
00007FFFFFC00000
0000FFFFFFC00000
0000FFFFFFC00000
0000FFFBFFE00000
0000FFF3FFE00000
0001FFF3FFE00000
0001FFF1FFF00000
0001FFE1FFF00000
0003FFE1FFF00000
0003FFE0FFF80000
0003FFC0FFF80000
0007FFC0FFF80000
0007FFC07FF80000
0007FFC07FFC0000
0007FF807FFC0000
000FFF807FFC0000
000FFF803FFE0000
000FFF003FFE0000
001FFF003FFE0000
001FFF001FFF0000
001FFE001FFF0000
003FFE001FFF0000
003FFE000FFF8000
003FFC000FFF8000
007FFC000FFF8000
007FFC0007FF8000
007FFC0007FFC000
007FF80007FFC000
00FFF80007FFC000
00FFF80003FFE000
00FFFFFFFFFFE000
01FFFFFFFFFFE000
01FFFFFFFFFFF000
01FFFFFFFFFFF000
03FFFFFFFFFFF000
03FFFFFFFFFFF800
03FFFFFFFFFFF800
07FFFFFFFFFFF800
07FFFFFFFFFFF800
07FFFFFFFFFFFC00
07FFFFFFFFFFFC00
0FFFFFFFFFFFFC00
0FFF8000003FFE00
0FFF0000003FFE00
1FFF0000003FFE00
1FFF0000001FFF00
1FFE0000001FFF00
3FFE0000001FFF00
3FFE0000000FFF00
3FFE0000000FFF80
3FFC0000000FFF80
7FFC00000007FF80
7FFC00000007FFC0
7FF800000007FFC0
FFF800000007FFC0
FFF800000003FFE0
ENDCHAR
STARTCHAR 0042
ENCODING 66
SWIDTH 632 0
DWIDTH 58 0
BBX 50 66 6 0
BITMAP
FFFFFFFF000000
FFFFFFFFE00000
FFFFFFFFFC0000
FFFFFFFFFE0000
FFFFFFFFFF0000
FFFFFFFFFFC000
FFFFFFFFFFC000
FFFFFFFFFFE000
FFFFFFFFFFF000
FFFFFFFFFFF000
FFFFFFFFFFF800
FFFFFFFFFFF800
FFF80003FFFC00
FFF80000FFFC00
FFF800007FFC00
FFF800007FFC00
FFF800003FFC00
FFF800003FFE00
FFF800003FFE00
FFF800003FFE00
FFF800003FFE00
FFF800003FFC00
FFF800007FFC00
FFF800007FFC00
FFF80000FFFC00
FFF80003FFF800
FFFFFFFFFFF800
FFFFFFFFFFF000
FFFFFFFFFFF000
FFFFFFFFFFE000
FFFFFFFFFFC000
FFFFFFFFFF0000
FFFFFFFFFFC000
FFFFFFFFFFF000
FFFFFFFFFFF800
FFFFFFFFFFFC00
FFFFFFFFFFFE00
FFFFFFFFFFFE00
FFF800007FFF00
FFF800003FFF00
FFF800001FFF80
FFF800000FFF80
FFF8000007FF80
FFF8000007FF80
FFF8000007FFC0
FFF8000007FFC0
FFF8000007FFC0
FFF8000007FFC0
FFF8000007FFC0
FFF800000FFF80
FFF800000FFF80
FFF800001FFF80
FFF800003FFF80
FFF80000FFFF80
FFFFFFFFFFFF00
FFFFFFFFFFFF00
FFFFFFFFFFFE00
FFFFFFFFFFFE00
FFFFFFFFFFFC00
FFFFFFFFFFFC00
FFFFFFFFFFF800
FFFFFFFFFFF000
FFFFFFFFFFC000
FFFFFFFFFF8000
FFFFFFFFFE0000
FFFFFFFFE00000
ENDCHAR
STARTCHAR 0043
ENCODING 67
SWIDTH 741 0
DWIDTH 68 0
BBX 62 68 3 -1
BITMAP
0000003FFC000000
000007FFFFC00000
00003FFFFFF80000
0000FFFFFFFE0000
0003FFFFFFFF8000
0007FFFFFFFFE000
001FFFFFFFFFF000
003FFFFFFFFFF800
007FFFFFFFFFFC00
00FFFFFFFFFFFE00
01FFFFFFFFFFFF00
01FFFFFFFFFFFF80
03FFFFC003FFFFC0
07FFFE0000FFFFC0
07FFF800003FFFE0
0FFFF000000FFFE0
1FFFE0000007FFF0
1FFFC0000003FFF0
1FFF80000003FFF8
3FFF00000001FFF8
3FFF00000000FFFC
7FFE00000000FFE0
7FFE000000007E00
7FFC000000007000
7FFC000000000000
FFFC000000000000
FFFC000000000000
FFF8000000000000
FFF8000000000000
FFF8000000000000
FFF8000000000000
FFF8000000000000
FFF8000000000000
FFF8000000000000
FFF8000000000000
FFF8000000000000
FFF8000000000000
FFF8000000000000
FFF8000000000000
FFF8000000000000
FFF8000000000000
FFFC000000000000
FFFC000000000000
7FFC000000000000
7FFC000000007000
7FFE000000007E00
7FFE00000000FFE0
3FFF00000000FFFC
3FFF00000001FFF8
1FFF80000003FFF8
1FFFC0000003FFF0
1FFFE0000007FFF0
0FFFF000000FFFE0
07FFF800003FFFE0
07FFFE0000FFFFC0
03FFFFC003FFFFC0
01FFFFFFFFFFFF80
01FFFFFFFFFFFF00
00FFFFFFFFFFFE00
007FFFFFFFFFFC00
003FFFFFFFFFF800
001FFFFFFFFFF000
0007FFFFFFFFE000
0003FFFFFFFF8000
0000FFFFFFFE0000
00003FFFFFF80000
000007FFFFC00000
0000003FFC000000
ENDCHAR
STARTCHAR 0044
ENCODING 68
SWIDTH 709 0
DWIDTH 65 0
BBX 54 66 6 0
BITMAP
FFFFFFFE000000
FFFFFFFFE00000
FFFFFFFFF80000
FFFFFFFFFE0000
FFFFFFFFFF8000
FFFFFFFFFFE000
FFFFFFFFFFF000
FFFFFFFFFFF800
FFFFFFFFFFFC00
FFFFFFFFFFFE00
FFFFFFFFFFFF00
FFFFFFFFFFFF00
FFF80003FFFF80
FFF800007FFFC0
FFF800003FFFC0
FFF800001FFFE0
FFF800000FFFE0
FFF8000007FFF0
FFF8000003FFF0
FFF8000003FFF0
FFF8000001FFF8
FFF8000001FFF8
FFF8000000FFF8
FFF8000000FFF8
FFF8000000FFFC
FFF8000000FFFC
FFF80000007FFC
FFF80000007FFC
FFF80000007FFC
FFF80000007FFC
FFF80000007FFC
FFF80000007FFC
FFF80000007FFC
FFF80000007FFC
FFF80000007FFC
FFF80000007FFC
FFF80000007FFC
FFF80000007FFC
FFF80000007FFC
FFF80000007FFC
FFF8000000FFFC
FFF8000000FFFC
FFF8000000FFF8
FFF8000000FFF8
FFF8000001FFF8
FFF8000001FFF8
FFF8000003FFF0
FFF8000003FFF0
FFF8000007FFF0
FFF800000FFFE0
FFF800001FFFE0
FFF800003FFFC0
FFF80000FFFFC0
FFF80003FFFF80
FFFFFFFFFFFF00
FFFFFFFFFFFF00
FFFFFFFFFFFE00
FFFFFFFFFFFC00
FFFFFFFFFFF800
FFFFFFFFFFF000
FFFFFFFFFFE000
FFFFFFFFFF8000
FFFFFFFFFF0000
FFFFFFFFFC0000
FFFFFFFFE00000
FFFFFFFC000000
ENDCHAR
STARTCHAR 0045
ENCODING 69
SWIDTH 589 0
DWIDTH 54 0
BBX 44 66 6 0
BITMAP
FFFFFFFFFFF0
FFFFFFFFFFF0
FFFFFFFFFFF0
FFFFFFFFFFF0
FFFFFFFFFFF0
FFFFFFFFFFF0
FFFFFFFFFFF0
FFFFFFFFFFF0
FFFFFFFFFFF0
FFFFFFFFFFF0
FFFFFFFFFFF0
FFFFFFFFFFF0
FFF800000000
FFF800000000
FFF800000000
FFF800000000
FFF800000000
FFF800000000
FFF800000000
FFF800000000
FFF800000000
FFF800000000
FFF800000000
FFF800000000
FFF800000000
FFF800000000
FFFFFFFFFC00
FFFFFFFFFC00
FFFFFFFFFC00
FFFFFFFFFC00
FFFFFFFFFC00
FFFFFFFFFC00
FFFFFFFFFC00
FFFFFFFFFC00
FFFFFFFFFC00
FFFFFFFFFC00
FFFFFFFFFC00
FFFFFFFFFC00
FFF800000000
FFF800000000
FFF800000000
FFF800000000
FFF800000000
FFF800000000
FFF800000000
FFF800000000
FFF800000000
FFF800000000
FFF800000000
FFF800000000
FFF800000000
FFF800000000
FFF800000000
FFF800000000
FFFFFFFFFFF0
FFFFFFFFFFF0
FFFFFFFFFFF0
FFFFFFFFFFF0
FFFFFFFFFFF0
FFFFFFFFFFF0
FFFFFFFFFFF0
FFFFFFFFFFF0
FFFFFFFFFFF0
FFFFFFFFFFF0
FFFFFFFFFFF0
FFFFFFFFFFF0
ENDCHAR
STARTCHAR 0046
ENCODING 70
SWIDTH 534 0
DWIDTH 49 0
BBX 41 66 6 0
BITMAP
FFFFFFFFFF80
FFFFFFFFFF80
FFFFFFFFFF80
FFFFFFFFFF80
FFFFFFFFFF80
FFFFFFFFFF80
FFFFFFFFFF80
FFFFFFFFFF80
FFFFFFFFFF80
FFFFFFFFFF80
FFFFFFFFFF80
FFFFFFFFFF80
FFF800000000
FFF800000000
FFF800000000
FFF800000000
FFF800000000
FFF800000000
FFF800000000
FFF800000000
FFF800000000
FFF800000000
FFF800000000
FFF800000000
FFF800000000
FFF800000000
FFF800000000
FFFFFFFFE000
FFFFFFFFE000
FFFFFFFFE000
FFFFFFFFE000
FFFFFFFFE000
FFFFFFFFE000
FFFFFFFFE000
FFFFFFFFE000
FFFFFFFFE000
FFFFFFFFE000
FFFFFFFFE000
FFFFFFFFE000
FFF800000000
FFF800000000
FFF800000000
FFF800000000
FFF800000000
FFF800000000
FFF800000000
FFF800000000
FFF800000000
FFF800000000
FFF800000000
FFF800000000
FFF800000000
FFF800000000
FFF800000000
FFF800000000
FFF800000000
FFF800000000
FFF800000000
FFF800000000
FFF800000000
FFF800000000
FFF800000000
FFF800000000
FFF800000000
FFF800000000
FFF800000000
ENDCHAR
STARTCHAR 0047
ENCODING 71
SWIDTH 741 0
DWIDTH 68 0
BBX 62 68 3 -1
BITMAP
0000007FFC000000
000007FFFFC00000
00003FFFFFF80000
0000FFFFFFFE0000
0003FFFFFFFF8000
0007FFFFFFFFC000
001FFFFFFFFFF000
003FFFFFFFFFF800
007FFFFFFFFFFC00
00FFFFFFFFFFFE00
01FFFFFFFFFFFE00
01FFFFFFFFFFFF00
03FFFFC007FFFF80
07FFFE0001FFFF80
07FFF800007FFFC0
0FFFF000003FFFC0
1FFFE000000FFFE0
1FFFC000000FFFE0
1FFF80000007FFF0
3FFF00000003FFF0
3FFF00000003FFF0
7FFE00000001FFF0
7FFE00000001FFF0
7FFC00000000F800
7FFC000000000000
FFFC000000000000
FFFC000000000000
FFF8000000000000
FFF8000000000000
FFF8000000000000
FFF8000000000000
FFF8000000000000
FFF8000003FFFFFC
FFF8000003FFFFFC
FFF8000003FFFFFC
FFF8000003FFFFFC
FFF8000003FFFFFC
FFF8000003FFFFFC
FFF8000003FFFFFC
FFF8000003FFFFFC
FFF8000003FFFFFC
FFFC000003FFFFFC
7FFC000000007FFC
7FFC00000000FFF8
7FFE00000000FFF8
7FFE00000000FFF8
3FFE00000001FFF8
3FFF00000001FFF0
3FFF00000003FFF0
1FFF80000003FFF0
1FFFC0000007FFE0
0FFFE000000FFFE0
0FFFF000001FFFC0
07FFF800003FFFC0
07FFFE0000FFFF80
03FFFFC003FFFF00
01FFFFFFFFFFFF00
01FFFFFFFFFFFE00
00FFFFFFFFFFFC00
007FFFFFFFFFF800
003FFFFFFFFFF000
000FFFFFFFFFE000
0007FFFFFFFFC000
0003FFFFFFFF0000
0000FFFFFFFC0000
00003FFFFFF00000
000007FFFF800000
0000007FF8000000
ENDCHAR
STARTCHAR 0048
ENCODING 72
SWIDTH 730 0
DWIDTH 67 0
BBX 55 66 6 0
BITMAP
FFF80000003FFE
FFF80000003FFE
FFF80000003FFE
FFF80000003FFE
FFF80000003FFE
FFF80000003FFE
FFF80000003FFE
FFF80000003FFE
FFF80000003FFE
FFF80000003FFE
FFF80000003FFE
FFF80000003FFE
FFF80000003FFE
FFF80000003FFE
FFF80000003FFE
FFF80000003FFE
FFF80000003FFE
FFF80000003FFE
FFF80000003FFE
FFF80000003FFE
FFF80000003FFE
FFF80000003FFE
FFF80000003FFE
FFF80000003FFE
FFF80000003FFE
FFF80000003FFE
FFF80000003FFE
FFFFFFFFFFFFFE
FFFFFFFFFFFFFE
FFFFFFFFFFFFFE
FFFFFFFFFFFFFE
FFFFFFFFFFFFFE
FFFFFFFFFFFFFE
FFFFFFFFFFFFFE
FFFFFFFFFFFFFE
FFFFFFFFFFFFFE
FFFFFFFFFFFFFE
FFFFFFFFFFFFFE
FFFFFFFFFFFFFE
FFF80000003FFE
FFF80000003FFE
FFF80000003FFE
FFF80000003FFE
FFF80000003FFE
FFF80000003FFE
FFF80000003FFE
FFF80000003FFE
FFF80000003FFE
FFF80000003FFE
FFF80000003FFE
FFF80000003FFE
FFF80000003FFE
FFF80000003FFE
FFF80000003FFE
FFF80000003FFE
FFF80000003FFE
FFF80000003FFE
FFF80000003FFE
FFF80000003FFE
FFF80000003FFE
FFF80000003FFE
FFF80000003FFE
FFF80000003FFE
FFF80000003FFE
FFF80000003FFE
FFF80000003FFE
ENDCHAR
STARTCHAR 0049
ENCODING 73
SWIDTH 294 0
DWIDTH 27 0
BBX 13 66 7 0
BITMAP
FFF8
FFF8
FFF8
FFF8
FFF8
FFF8
FFF8
FFF8
FFF8
FFF8
FFF8
FFF8
FFF8
FFF8
FFF8
FFF8
FFF8
FFF8
FFF8
FFF8
FFF8
FFF8
FFF8
FFF8
FFF8
FFF8
FFF8
FFF8
FFF8
FFF8
FFF8
FFF8
FFF8
FFF8
FFF8
FFF8
FFF8
FFF8
FFF8
FFF8
FFF8
FFF8
FFF8
FFF8
FFF8
FFF8
FFF8
FFF8
FFF8
FFF8
FFF8
FFF8
FFF8
FFF8
FFF8
FFF8
FFF8
FFF8
FFF8
FFF8
FFF8
FFF8
FFF8
FFF8
FFF8
FFF8
ENDCHAR
STARTCHAR 004A
ENCODING 74
SWIDTH 512 0
DWIDTH 47 0
BBX 40 67 0 -1
BITMAP
0000001FFF
0000001FFF
0000001FFF
0000001FFF
0000001FFF
0000001FFF
0000001FFF
0000001FFF
0000001FFF
0000001FFF
0000001FFF
0000001FFF
0000001FFF
0000001FFF
0000001FFF
0000001FFF
0000001FFF
0000001FFF
0000001FFF
0000001FFF
0000001FFF
0000001FFF
0000001FFF
0000001FFF
0000001FFF
0000001FFF
0000001FFF
0000001FFF
0000001FFF
0000001FFF
0000001FFF
0000001FFF
0000001FFF
0000001FFF
0000001FFF
0000001FFF
0000001FFF
0000001FFF
0000001FFF
0000001FFF
0000001FFF
0000001FFF
0000001FFF
0000001FFF
0000001FFF
0000001FFF
0000001FFF
0000001FFF
0000001FFF
0010001FFF
01F8001FFF
3FF8003FFF
FFFC003FFE
FFFE007FFE
7FFF01FFFE
7FFFFFFFFE
3FFFFFFFFC
3FFFFFFFFC
1FFFFFFFF8
0FFFFFFFF0
0FFFFFFFF0
07FFFFFFE0
01FFFFFFC0
00FFFFFF00
003FFFFE00
000FFFF800
0001FF8000
ENDCHAR
STARTCHAR 004B
ENCODING 75
SWIDTH 665 0
DWIDTH 61 0
BBX 55 66 6 0
BITMAP
FFF8000003FFF8
FFF8000007FFF0
FFF800000FFFE0
FFF800001FFFC0
FFF800003FFF80
FFF800007FFF80
FFF800007FFF00
FFF80000FFFE00
FFF80001FFFC00
FFF80003FFF800
FFF80007FFF000
FFF8000FFFE000
FFF8000FFFE000
FFF8001FFFC000
FFF8003FFF8000
FFF8007FFF0000
FFF800FFFE0000
FFF800FFFC0000
FFF801FFFC0000
FFF803FFF80000
FFF807FFF00000
FFF80FFFE00000
FFF81FFFC00000
FFF81FFF800000
FFF83FFF000000
FFF87FFF000000
FFF8FFFE000000
FFF9FFFC000000
FFFBFFF8000000
FFFBFFF0000000
FFFFFFE0000000
FFFFFFE0000000
FFFFFFC0000000
FFFFFFC0000000
FFFFFFE0000000
FFFFFFF0000000
FFFFFFF8000000
FFFBFFFC000000
FFF9FFFE000000
FFF8FFFF000000
FFF87FFF800000
FFF83FFF800000
FFF81FFFC00000
FFF81FFFE00000
FFF80FFFF00000
FFF807FFF80000
FFF803FFFC0000
FFF801FFFE0000
FFF800FFFF0000
FFF8007FFF8000
FFF8003FFF8000
FFF8003FFFC000
FFF8001FFFE000
FFF8000FFFF000
FFF80007FFF800
FFF80003FFFC00
FFF80001FFFE00
FFF80000FFFF00
FFF800007FFF00
FFF800007FFF80
FFF800003FFFC0
FFF800001FFFE0
FFF800000FFFF0
FFF8000007FFF8
FFF8000003FFFC
FFF8000001FFFE
ENDCHAR
STARTCHAR 004C
ENCODING 76
SWIDTH 545 0
DWIDTH 50 0
BBX 41 66 7 0
BITMAP
FFF800000000
FFF800000000
FFF800000000
FFF800000000
FFF800000000
FFF800000000
FFF800000000
FFF800000000
FFF800000000
FFF800000000
FFF800000000
FFF800000000
FFF800000000
FFF800000000
FFF800000000
FFF800000000
FFF800000000
FFF800000000
FFF800000000
FFF800000000
FFF800000000
FFF800000000
FFF800000000
FFF800000000
FFF800000000
FFF800000000
FFF800000000
FFF800000000
FFF800000000
FFF800000000
FFF800000000
FFF800000000
FFF800000000
FFF800000000
FFF800000000
FFF800000000
FFF800000000
FFF800000000
FFF800000000
FFF800000000
FFF800000000
FFF800000000
FFF800000000
FFF800000000
FFF800000000
FFF800000000
FFF800000000
FFF800000000
FFF800000000
FFF800000000
FFF800000000
FFF800000000
FFF800000000
FFF800000000
FFFFFFFFFF80
FFFFFFFFFF80
FFFFFFFFFF80
FFFFFFFFFF80
FFFFFFFFFF80
FFFFFFFFFF80
FFFFFFFFFF80
FFFFFFFFFF80
FFFFFFFFFF80
FFFFFFFFFF80
FFFFFFFFFF80
FFFFFFFFFF80
ENDCHAR
STARTCHAR 004D
ENCODING 77
SWIDTH 861 0
DWIDTH 79 0
BBX 66 66 6 0
BITMAP
FFF00000000001FFC0
FFF00000000003FFC0
FFF80000000003FFC0
FFF80000000007FFC0
FFFC0000000007FFC0
FFFC000000000FFFC0
FFFE000000000FFFC0
FFFE000000001FFFC0
FFFF000000001FFFC0
FFFF000000003FFFC0
FFFF800000003FFFC0
FFFF800000007FFFC0
FFFFC00000007FFFC0
FFFFC00000007FFFC0
FFFFE0000000FFFFC0
FFFFE0000000FFFFC0
FFFFF0000001FFFFC0
FFFFF0000001FFFFC0
FFFFF8000003FFFFC0
FFFFF8000003FFFFC0
FFFFFC000007FFFFC0
FFFFFC000007FFFFC0
FFFFFE00000FFFFFC0
FFFFFE00000FFFFFC0
FFFFFF00001FFFFFC0
FFFFFF00001FFFFFC0
FFFFFF80003FFFFFC0
FFFFFF80003FFDFFC0
FFF7FFC0007FFDFFC0
FFF7FFC0007FF9FFC0
FFF3FFE000FFF9FFC0
FFF3FFE000FFF1FFC0
FFF1FFF001FFF1FFC0
FFF1FFF001FFE1FFC0
FFF0FFF803FFE1FFC0
FFF0FFF803FFC1FFC0
FFF07FFC07FFC1FFC0
FFF07FFC07FF81FFC0
FFF03FFE0FFF81FFC0
FFF03FFE0FFF81FFC0
FFF01FFF1FFF01FFC0
FFF01FFF1FFF01FFC0
FFF00FFFBFFE01FFC0
FFF00FFFBFFE01FFC0
FFF007FFFFFC01FFC0
FFF007FFFFFC01FFC0
FFF003FFFFF801FFC0
FFF003FFFFF801FFC0
FFF001FFFFF001FFC0
FFF001FFFFF001FFC0
FFF000FFFFE001FFC0
FFF000FFFFE001FFC0
FFF0007FFFC001FFC0
FFF0007FFFC001FFC0
FFF0003FFF8001FFC0
FFF0003FFF8001FFC0
FFF0001FFF0001FFC0
FFF0001FFF0001FFC0
FFF0000FFE0001FFC0
FFF0000FFE0001FFC0
FFF00007FC0001FFC0
FFF00007FC0001FFC0
FFF00007F80001FFC0
FFF00003F80001FFC0
FFF00003F00001FFC0
FFF00001F00001FFC0
ENDCHAR
STARTCHAR 004E
ENCODING 78
SWIDTH 730 0
DWIDTH 67 0
BBX 54 66 6 0
BITMAP
FFF80000003FFC
FFFC0000003FFC
FFFE0000003FFC
FFFE0000003FFC
FFFF0000003FFC
FFFF8000003FFC
FFFF8000003FFC
FFFFC000003FFC
FFFFE000003FFC
FFFFE000003FFC
FFFFF000003FFC
FFFFF800003FFC
FFFFF800003FFC
FFFFFC00003FFC
FFFFFE00003FFC
FFFFFE00003FFC
FFFFFF00003FFC
FFFFFF00003FFC
FFFFFF80003FFC
FFFFFFC0003FFC
FFFFFFC0003FFC
FFFFFFE0003FFC
FFFFFFF0003FFC
FFFBFFF0003FFC
FFF9FFF8003FFC
FFF9FFFC003FFC
FFF8FFFC003FFC
FFF87FFE003FFC
FFF87FFF003FFC
FFF83FFF003FFC
FFF81FFF803FFC
FFF81FFFC03FFC
FFF80FFFC03FFC
FFF807FFE03FFC
FFF807FFF03FFC
FFF803FFF03FFC
FFF801FFF83FFC
FFF801FFFC3FFC
FFF800FFFC3FFC
FFF800FFFE3FFC
FFF8007FFE3FFC
FFF8003FFF3FFC
FFF8003FFFBFFC
FFF8001FFFBFFC
FFF8000FFFFFFC
FFF8000FFFFFFC
FFF80007FFFFFC
FFF80003FFFFFC
FFF80003FFFFFC
FFF80001FFFFFC
FFF80000FFFFFC
FFF80000FFFFFC
FFF800007FFFFC
FFF800003FFFFC
FFF800003FFFFC
FFF800001FFFFC
FFF800000FFFFC
FFF800000FFFFC
FFF8000007FFFC
FFF8000007FFFC
FFF8000003FFFC
FFF8000001FFFC
FFF8000001FFFC
FFF8000000FFFC
FFF80000007FFC
FFF80000007FFC
ENDCHAR
STARTCHAR 004F
ENCODING 79
SWIDTH 752 0
DWIDTH 69 0
BBX 64 68 3 -1
BITMAP
0000003FFC000000
000007FFFFC00000
00003FFFFFF80000
0000FFFFFFFE0000
0003FFFFFFFF8000
0007FFFFFFFFE000
001FFFFFFFFFF000
003FFFFFFFFFF800
007FFFFFFFFFFC00
00FFFFFFFFFFFE00
01FFFFFFFFFFFF00
01FFFFFFFFFFFF80
03FFFFC007FFFFC0
07FFFE0000FFFFC0
07FFF800003FFFE0
0FFFF000001FFFE0
1FFFE0000007FFF0
1FFFC0000003FFF0
1FFF80000003FFF8
3FFF00000001FFF8
3FFF00000000FFFC
7FFE00000000FFFC
7FFE000000007FFC
7FFE000000007FFC
7FFC000000007FFE
FFFC000000003FFE
FFFC000000003FFE
FFF8000000003FFE
FFF8000000003FFE
FFF8000000003FFF
FFF8000000003FFF
FFF8000000003FFF
FFF8000000003FFF
FFF8000000001FFF
FFF8000000001FFF
FFF8000000003FFF
FFF8000000003FFF
FFF8000000003FFF
FFF8000000003FFE
FFF8000000003FFE
FFF8000000003FFE
FFFC000000003FFE
FFFC000000003FFE
7FFC000000007FFE
7FFE000000007FFC
7FFE000000007FFC
7FFE00000000FFFC
3FFF00000000FFFC
3FFF00000001FFF8
1FFF80000003FFF8
1FFFC0000003FFF0
1FFFE0000007FFF0
0FFFF000000FFFE0
07FFF800003FFFE0
07FFFE00007FFFC0
03FFFFC003FFFFC0
01FFFFFFFFFFFF80
01FFFFFFFFFFFF00
00FFFFFFFFFFFE00
007FFFFFFFFFFC00
003FFFFFFFFFF800
001FFFFFFFFFF000
0007FFFFFFFFE000
0003FFFFFFFF8000
0000FFFFFFFE0000
00003FFFFFF80000
000007FFFFC00000
0000003FFC000000
ENDCHAR
STARTCHAR 0050
ENCODING 80
SWIDTH 654 0
DWIDTH 60 0
BBX 51 66 6 0
BITMAP
FFFFFFFFC00000
FFFFFFFFFC0000
FFFFFFFFFF8000
FFFFFFFFFFC000
FFFFFFFFFFF000
FFFFFFFFFFF800
FFFFFFFFFFFC00
FFFFFFFFFFFE00
FFFFFFFFFFFE00
FFFFFFFFFFFF00
FFFFFFFFFFFF00
FFFFFFFFFFFF80
FFF800007FFF80
FFF800001FFFC0
FFF800000FFFC0
FFF8000007FFC0
FFF8000007FFC0
FFF8000003FFE0
FFF8000003FFE0
FFF8000003FFE0
FFF8000003FFE0
FFF8000003FFE0
FFF8000003FFE0
FFF8000003FFE0
FFF8000003FFE0
FFF8000003FFE0
FFF8000007FFC0
FFF8000007FFC0
FFF800000FFFC0
FFF800001FFFC0
FFF800003FFFC0
FFF80000FFFF80
FFFFFFFFFFFF80
FFFFFFFFFFFF00
FFFFFFFFFFFF00
FFFFFFFFFFFE00
FFFFFFFFFFFC00
FFFFFFFFFFF800
FFFFFFFFFFF000
FFFFFFFFFFE000
FFFFFFFFFFC000
FFFFFFFFFF0000
FFFFFFFFF80000
FFFFFFFE000000
FFF80000000000
FFF80000000000
FFF80000000000
FFF80000000000
FFF80000000000
FFF80000000000
FFF80000000000
FFF80000000000
FFF80000000000
FFF80000000000
FFF80000000000
FFF80000000000
FFF80000000000
FFF80000000000
FFF80000000000
FFF80000000000
FFF80000000000
FFF80000000000
FFF80000000000
FFF80000000000
FFF80000000000
FFF80000000000
ENDCHAR
STARTCHAR 0051
ENCODING 81
SWIDTH 752 0
DWIDTH 69 0
BBX 64 68 3 -1
BITMAP
0000003FFC000000
000007FFFFC00000
00003FFFFFF80000
0000FFFFFFFE0000
0003FFFFFFFF8000
0007FFFFFFFFE000
001FFFFFFFFFF000
003FFFFFFFFFF800
007FFFFFFFFFFC00
00FFFFFFFFFFFE00
01FFFFFFFFFFFF00
01FFFFFFFFFFFF80
03FFFFC007FFFFC0
07FFFE0000FFFFC0
07FFF800003FFFE0
0FFFF000001FFFE0
1FFFE0000007FFF0
1FFFC0000003FFF0
1FFF80000003FFF8
3FFF00000001FFF8
3FFF00000000FFFC
7FFE00000000FFFC
7FFE000000007FFC
7FFE000000007FFC
7FFC000000007FFE
FFFC000000003FFE
FFFC000000003FFE
FFF8000000003FFE
FFF8000000003FFE
FFF8000000003FFF
FFF8000000003FFF
FFF8000000003FFF
FFF8000000003FFF
FFF8000000001FFF
FFF8000000001FFF
FFF8000000003FFF
FFF8000000003FFF
FFF8000000003FFF
FFF8000000003FFF
FFF8000000003FFE
FFF8000000003FFE
FFFC000000103FFE
FFFC000000383FFE
7FFC0000007C7FFE
7FFE000000FE7FFE
7FFE000001FF7FFC
7FFE000003FFFFFC
3FFF000007FFFFFC
3FFF00000FFFFFF8
1FFF80000FFFFFF8
1FFFC00007FFFFF0
1FFFE00003FFFFF0
0FFFF00001FFFFE0
07FFF80000FFFFE0
07FFFE00007FFFC0
03FFFFC003FFFFC0
01FFFFFFFFFFFFE0
01FFFFFFFFFFFFF0
00FFFFFFFFFFFFF8
007FFFFFFFFFFFFC
003FFFFFFFFFFFFC
001FFFFFFFFFFFF8
0007FFFFFFFFFFF0
0003FFFFFFFFBFE0
0000FFFFFFFE1FE0
00003FFFFFF80FC0
000007FFFFC00780
0000003FFC000300
ENDCHAR
STARTCHAR 0052
ENCODING 82
SWIDTH 665 0
DWIDTH 61 0
BBX 52 66 6 0
BITMAP
FFFFFFFFC00000
FFFFFFFFFC0000
FFFFFFFFFF8000
FFFFFFFFFFC000
FFFFFFFFFFF000
FFFFFFFFFFF800
FFFFFFFFFFFC00
FFFFFFFFFFFE00
FFFFFFFFFFFE00
FFFFFFFFFFFF00
FFFFFFFFFFFF00
FFFFFFFFFFFF80
FFF800007FFF80
FFF800001FFFC0
FFF800000FFFC0
FFF8000007FFC0
FFF8000007FFC0
FFF8000003FFE0
FFF8000003FFE0
FFF8000003FFE0
FFF8000003FFE0
FFF8000003FFE0
FFF8000003FFE0
FFF8000003FFE0
FFF8000003FFE0
FFF8000003FFE0
FFF8000007FFC0
FFF8000007FFC0
FFF800000FFFC0
FFF800001FFFC0
FFF800003FFFC0
FFF80000FFFF80
FFFFFFFFFFFF80
FFFFFFFFFFFF00
FFFFFFFFFFFF00
FFFFFFFFFFFE00
FFFFFFFFFFFC00
FFFFFFFFFFFC00
FFFFFFFFFFF800
FFFFFFFFFFE000
FFFFFFFFFFC000
FFFFFFFFFF0000
FFFFFFFFFF0000
FFFFFFFFFF8000
FFF8001FFF8000
FFF8000FFFC000
FFF8000FFFC000
FFF80007FFE000
FFF80007FFE000
FFF80003FFF000
FFF80003FFF000
FFF80001FFF800
FFF80001FFF800
FFF80000FFFC00
FFF80000FFFC00
FFF800007FFE00
FFF800007FFE00
FFF800007FFF00
FFF800003FFF00
FFF800003FFF80
FFF800001FFF80
FFF800001FFFC0
FFF800000FFFC0
FFF800000FFFE0
FFF8000007FFE0
FFF8000007FFF0
ENDCHAR
STARTCHAR 0053
ENCODING 83
SWIDTH 676 0
DWIDTH 62 0
BBX 54 68 4 -1
BITMAP
000007FF000000
0000FFFFF80000
0003FFFFFE0000
001FFFFFFF8000
003FFFFFFFE000
007FFFFFFFF800
01FFFFFFFFFC00
03FFFFFFFFFE00
03FFFFFFFFFF00
07FFFFFFFFFF80
0FFFFFFFFFFF80
0FFFFFFFFFFFC0
1FFFF801FFFFE0
1FFFE0003FFFE0
1FFF80001FFFF0
1FFF80000FFFF0
3FFF000007FFF0
3FFF000003FFF8
3FFE000001FFF8
3FFE000001FFF0
3FFF000000FC00
3FFF0000000000
3FFF8000000000
1FFFC000000000
1FFFF000000000
1FFFFE00000000
1FFFFFC0000000
0FFFFFFC000000
0FFFFFFFC00000
07FFFFFFF80000
03FFFFFFFF8000
01FFFFFFFFE000
00FFFFFFFFF800
003FFFFFFFFE00
001FFFFFFFFF00
0003FFFFFFFF80
00007FFFFFFFC0
00000FFFFFFFE0
000000FFFFFFF0
0000001FFFFFF0
00000001FFFFF8
000000003FFFF8
0000000007FFF8
0000000003FFF8
0000000000FFFC
01F8000000FFFC
FFF80000007FFC
FFFC0000007FFC
FFFC0000007FFC
FFFE0000007FFC
7FFE000000FFFC
7FFF000000FFF8
7FFF800001FFF8
3FFFE00003FFF8
3FFFF0000FFFF0
1FFFFE003FFFF0
1FFFFFFFFFFFF0
0FFFFFFFFFFFE0
07FFFFFFFFFFC0
03FFFFFFFFFF80
01FFFFFFFFFF00
00FFFFFFFFFE00
007FFFFFFFFC00
001FFFFFFFF800
000FFFFFFFE000
0003FFFFFF8000
00007FFFFC0000
000007FFC00000
ENDCHAR
STARTCHAR 0054
ENCODING 84
SWIDTH 610 0
DWIDTH 56 0
BBX 54 66 1 0
BITMAP
FFFFFFFFFFFFFC
FFFFFFFFFFFFFC
FFFFFFFFFFFFFC
FFFFFFFFFFFFFC
FFFFFFFFFFFFFC
FFFFFFFFFFFFFC
FFFFFFFFFFFFFC
FFFFFFFFFFFFFC
FFFFFFFFFFFFFC
FFFFFFFFFFFFFC
FFFFFFFFFFFFFC
FFFFFFFFFFFFFC
000007FF800000
000007FF800000
000007FF800000
000007FF800000
000007FF800000
000007FF800000
000007FF800000
000007FF800000
000007FF800000
000007FF800000
000007FF800000
000007FF800000
000007FF800000
000007FF800000
000007FF800000
000007FF800000
000007FF800000
000007FF800000
000007FF800000
000007FF800000
000007FF800000
000007FF800000
000007FF800000
000007FF800000
000007FF800000
000007FF800000
000007FF800000
000007FF800000
000007FF800000
000007FF800000
000007FF800000
000007FF800000
000007FF800000
000007FF800000
000007FF800000
000007FF800000
000007FF800000
000007FF800000
000007FF800000
000007FF800000
000007FF800000
000007FF800000
000007FF800000
000007FF800000
000007FF800000
000007FF800000
000007FF800000
000007FF800000
000007FF800000
000007FF800000
000007FF800000
000007FF800000
000007FF800000
000007FF800000
ENDCHAR
STARTCHAR 0055
ENCODING 85
SWIDTH 730 0
DWIDTH 67 0
BBX 54 67 6 -1
BITMAP
FFF80000007FFC
FFF80000007FFC
FFF80000007FFC
FFF80000007FFC
FFF80000007FFC
FFF80000007FFC
FFF80000007FFC
FFF80000007FFC
FFF80000007FFC
FFF80000007FFC
FFF80000007FFC
FFF80000007FFC
FFF80000007FFC
FFF80000007FFC
FFF80000007FFC
FFF80000007FFC
FFF80000007FFC
FFF80000007FFC
FFF80000007FFC
FFF80000007FFC
FFF80000007FFC
FFF80000007FFC
FFF80000007FFC
FFF80000007FFC
FFF80000007FFC
FFF80000007FFC
FFF80000007FFC
FFF80000007FFC
FFF80000007FFC
FFF80000007FFC
FFF80000007FFC
FFF80000007FFC
FFF80000007FFC
FFF80000007FFC
FFF80000007FFC
FFF80000007FFC
FFF80000007FFC
FFF80000007FFC
FFF80000007FFC
FFF80000007FFC
FFF80000007FFC
FFF80000007FFC
FFF80000007FFC
FFF80000007FFC
7FF80000007FFC
7FFC0000007FFC
7FFC000000FFFC
7FFC000000FFF8
7FFE000001FFF8
3FFF000001FFF8
3FFF000003FFF8
3FFF800007FFF0
1FFFE0000FFFF0
1FFFF0003FFFE0
0FFFFC00FFFFE0
0FFFFFFFFFFFC0
07FFFFFFFFFFC0
03FFFFFFFFFF80
03FFFFFFFFFF00
01FFFFFFFFFE00
00FFFFFFFFFC00
003FFFFFFFF800
001FFFFFFFE000
0007FFFFFFC000
0001FFFFFF0000
00007FFFF80000
000007FF800000
ENDCHAR
STARTCHAR 0056
ENCODING 86
SWIDTH 654 0
DWIDTH 60 0
BBX 58 66 1 0
BITMAP
FFF000000007FFC0
FFF800000007FFC0
FFF800000007FFC0
7FF80000000FFF80
7FFC0000000FFF80
7FFC0000000FFF80
7FFC0000000FFF00
3FFE0000001FFF00
3FFE0000001FFF00
3FFE0000001FFE00
1FFE0000003FFE00
1FFF0000003FFE00
1FFF0000003FFE00
0FFF0000007FFC00
0FFF8000007FFC00
0FFF8000007FFC00
0FFF800000FFF800
07FFC00000FFF800
07FFC00000FFF800
07FFC00000FFF000
03FFE00001FFF000
03FFE00001FFF000
03FFE00001FFF000
01FFE00003FFE000
01FFF00003FFE000
01FFF00003FFE000
00FFF00007FFC000
00FFF80007FFC000
00FFF80007FFC000
00FFF8000FFF8000
007FFC000FFF8000
007FFC000FFF8000
007FFC000FFF0000
003FFC001FFF0000
003FFE001FFF0000
003FFE001FFF0000
001FFE003FFE0000
001FFF003FFE0000
001FFF003FFE0000
000FFF007FFC0000
000FFF807FFC0000
000FFF807FFC0000
000FFF80FFF80000
0007FFC0FFF80000
0007FFC0FFF80000
0007FFC1FFF00000
0003FFC1FFF00000
0003FFE1FFF00000
0003FFE1FFF00000
0001FFE3FFE00000
0001FFF3FFE00000
0001FFF3FFE00000
0001FFF7FFC00000
0000FFFFFFC00000
0000FFFFFFC00000
0000FFFFFF800000
00007FFFFF800000
00007FFFFF800000
00007FFFFF800000
00003FFFFF000000
00003FFFFF000000
00003FFFFF000000
00001FFFFE000000
00001FFFFE000000
00001FFFFE000000
00001FFFFC000000
ENDCHAR
STARTCHAR 0057
ENCODING 87
SWIDTH 992 0
DWIDTH 91 0
BBX 89 66 1 0
BITMAP
FFF8000003FFE000001FFF80
FFF8000007FFE000001FFF00
7FFC000007FFF000001FFF00
7FFC000007FFF000001FFF00
7FFC000007FFF000003FFE00
7FFE00000FFFF000003FFE00
3FFE00000FFFF800003FFE00
3FFE00000FFFF800003FFE00
3FFE00001FFFF800007FFC00
1FFF00001FFFF800007FFC00
1FFF00001FFFFC00007FFC00
1FFF00001FFFFC0000FFF800
0FFF00003FFFFC0000FFF800
0FFF80003FFFFE0000FFF800
0FFF80003FFFFE0000FFF000
0FFF80003FFFFE0001FFF000
07FFC0007FFFFE0001FFF000
07FFC0007FFFFF0001FFF000
07FFC0007FFFFF0001FFE000
03FFC000FFFFFF0003FFE000
03FFE000FFFFFF0003FFE000
03FFE000FFFFFF8003FFC000
03FFE000FFF7FF8007FFC000
01FFE001FFF7FF8007FFC000
01FFF001FFE7FFC007FFC000
01FFF001FFE7FFC007FF8000
00FFF001FFE3FFC00FFF8000
00FFF803FFE3FFC00FFF8000
00FFF803FFC3FFE00FFF0000
007FF803FFC1FFE00FFF0000
007FF807FFC1FFE01FFF0000
007FFC07FF81FFE01FFF0000
007FFC07FF81FFF01FFE0000
003FFC07FF80FFF03FFE0000
003FFC0FFF80FFF03FFE0000
003FFE0FFF00FFF83FFC0000
001FFE0FFF007FF83FFC0000
001FFE0FFF007FF87FFC0000
001FFF1FFE007FF87FF80000
001FFF1FFE007FFC7FF80000
000FFF1FFE003FFC7FF80000
000FFF3FFE003FFCFFF80000
000FFFBFFC003FFCFFF00000
0007FFBFFC001FFEFFF00000
0007FFBFFC001FFFFFF00000
0007FFFFF8001FFFFFE00000
0003FFFFF8000FFFFFE00000
0003FFFFF8000FFFFFE00000
0003FFFFF8000FFFFFE00000
0003FFFFF0000FFFFFC00000
0001FFFFF00007FFFFC00000
0001FFFFF00007FFFFC00000
0001FFFFE00007FFFF800000
0000FFFFE00003FFFF800000
0000FFFFE00003FFFF800000
0000FFFFE00003FFFF000000
0000FFFFC00003FFFF000000
00007FFFC00001FFFF000000
00007FFFC00001FFFF000000
00007FFF800001FFFE000000
00003FFF800000FFFE000000
00003FFF800000FFFE000000
00003FFF800000FFFC000000
00003FFF000000FFFC000000
00001FFF0000007FFC000000
00001FFF0000007FFC000000
ENDCHAR
STARTCHAR 0058
ENCODING 88
SWIDTH 676 0
DWIDTH 62 0
BBX 59 66 1 0
BITMAP
7FFF0000001FFFE0
3FFF8000001FFFC0
3FFF8000003FFF80
1FFFC000003FFF80
1FFFE000007FFF00
0FFFE00000FFFF00
07FFF00000FFFE00
07FFF80001FFFC00
03FFF80003FFFC00
01FFFC0003FFF800
01FFFE0007FFF000
00FFFE000FFFF000
007FFF000FFFE000
007FFF001FFFC000
003FFF801FFFC000
001FFFC03FFF8000
001FFFC07FFF0000
000FFFE07FFF0000
0007FFF0FFFE0000
0007FFF1FFFC0000
0003FFF9FFFC0000
0001FFFFFFF80000
0001FFFFFFF00000
0000FFFFFFF00000
00007FFFFFE00000
00007FFFFFC00000
00003FFFFFC00000
00001FFFFF800000
00001FFFFF000000
00000FFFFF000000
000007FFFE000000
000007FFFC000000
000003FFFC000000
000003FFFC000000
000007FFFE000000
00000FFFFF000000
00000FFFFF000000
00001FFFFF800000
00003FFFFF800000
00003FFFFFC00000
00007FFFFFE00000
0000FFFFFFE00000
0000FFFFFFF00000
0001FFFFFFF80000
0003FFF9FFF80000
0003FFF1FFFC0000
0007FFF0FFFE0000
000FFFE07FFE0000
000FFFE07FFF0000
001FFFC03FFF8000
003FFF803FFF8000
003FFF801FFFC000
007FFF000FFFE000
00FFFE000FFFE000
00FFFE0007FFF000
01FFFC0003FFF800
03FFF80003FFF800
03FFF80001FFFC00
07FFF00000FFFE00
0FFFE00000FFFE00
0FFFE000007FFF00
1FFFC000007FFF80
3FFFC000003FFF80
3FFF8000001FFFC0
7FFF0000001FFFE0
FFFF0000000FFFE0
ENDCHAR
STARTCHAR 0059
ENCODING 89
SWIDTH 632 0
DWIDTH 58 0
BBX 57 66 0 0
BITMAP
FFFE0000001FFF80
7FFE0000003FFF80
7FFF0000003FFF00
3FFF8000007FFF00
1FFF8000007FFE00
1FFFC00000FFFE00
0FFFC00001FFFC00
0FFFE00001FFF800
07FFE00003FFF800
07FFF00003FFF000
03FFF80007FFF000
01FFF80007FFE000
01FFFC000FFFE000
00FFFC001FFFC000
00FFFE001FFF8000
007FFF003FFF8000
007FFF003FFF0000
003FFF807FFF0000
001FFF807FFE0000
001FFFC0FFFE0000
000FFFC1FFFC0000
000FFFE1FFF80000
0007FFF3FFF80000
0003FFF3FFF00000
0003FFFFFFF00000
0001FFFFFFE00000
0001FFFFFFC00000
0000FFFFFFC00000
0000FFFFFF800000
00007FFFFF800000
00003FFFFF000000
00003FFFFF000000
00001FFFFE000000
00001FFFFC000000
00000FFFFC000000
00000FFFF8000000
000007FFF8000000
000003FFF0000000
000003FFF0000000
000001FFE0000000
000001FFE0000000
000001FFE0000000
000001FFE0000000
000001FFE0000000
000001FFE0000000
000001FFE0000000
000001FFE0000000
000001FFE0000000
000001FFE0000000
000001FFE0000000
000001FFE0000000
000001FFE0000000
000001FFE0000000
000001FFE0000000
000001FFE0000000
000001FFE0000000
000001FFE0000000
000001FFE0000000
000001FFE0000000
000001FFE0000000
000001FFE0000000
000001FFE0000000
000001FFE0000000
000001FFE0000000
000001FFE0000000
000001FFE0000000
ENDCHAR
STARTCHAR 005A
ENCODING 90
SWIDTH 676 0
DWIDTH 62 0
BBX 53 66 5 0
BITMAP
3FFFFFFFFFFFF8
3FFFFFFFFFFFF8
3FFFFFFFFFFFF0
3FFFFFFFFFFFF0
3FFFFFFFFFFFE0
3FFFFFFFFFFFC0
3FFFFFFFFFFFC0
3FFFFFFFFFFF80
3FFFFFFFFFFF80
3FFFFFFFFFFF00
3FFFFFFFFFFE00
3FFFFFFFFFFE00
00000003FFFC00
00000003FFFC00
00000007FFF800
00000007FFF800
0000000FFFF000
0000001FFFE000
0000001FFFE000
0000003FFFC000
0000003FFFC000
0000007FFF8000
000000FFFF0000
000000FFFF0000
000001FFFE0000
000001FFFE0000
000003FFFC0000
000003FFF80000
000007FFF80000
00000FFFF00000
00000FFFF00000
00001FFFE00000
00001FFFC00000
00003FFFC00000
00007FFF800000
00007FFF800000
0000FFFF000000
0000FFFF000000
0001FFFE000000
0003FFFC000000
0003FFFC000000
0007FFF8000000
0007FFF8000000
000FFFF0000000
001FFFE0000000
001FFFE0000000
003FFFC0000000
003FFFC0000000
007FFF80000000
00FFFF00000000
00FFFF00000000
01FFFE00000000
01FFFE00000000
03FFFC00000000
07FFFFFFFFFFF0
07FFFFFFFFFFF0
0FFFFFFFFFFFF0
0FFFFFFFFFFFF0
1FFFFFFFFFFFF0
1FFFFFFFFFFFF0
3FFFFFFFFFFFF0
7FFFFFFFFFFFF0
7FFFFFFFFFFFF0
FFFFFFFFFFFFF0
FFFFFFFFFFFFF0
FFFFFFFFFFFFF0
ENDCHAR
STARTCHAR 005B
ENCODING 91
SWIDTH 425 0
DWIDTH 39 0
BBX 21 102 13 -19
BITMAP
FFFFF8
FFFFF8
FFFFF8
FFFFF8
FFFFF8
FFFFF8
FFFFF8
FFFFF8
FFFFF8
FFFFF8
FFFFF8
FFE000
FFE000
FFE000
FFE000
FFE000
FFE000
FFE000
FFE000
FFE000
FFE000
FFE000
FFE000
FFE000
FFE000
FFE000
FFE000
FFE000
FFE000
FFE000
FFE000
FFE000
FFE000
FFE000
FFE000
FFE000
FFE000
FFE000
FFE000
FFE000
FFE000
FFE000
FFE000
FFE000
FFE000
FFE000
FFE000
FFE000
FFE000
FFE000
FFE000
FFE000
FFE000
FFE000
FFE000
FFE000
FFE000
FFE000
FFE000
FFE000
FFE000
FFE000
FFE000
FFE000
FFE000
FFE000
FFE000
FFE000
FFE000
FFE000
FFE000
FFE000
FFE000
FFE000
FFE000
FFE000
FFE000
FFE000
FFE000
FFE000
FFE000
FFE000
FFE000
FFE000
FFE000
FFE000
FFE000
FFE000
FFE000
FFE000
FFE000
FFFFF8
FFFFF8
FFFFF8
FFFFF8
FFFFF8
FFFFF8
FFFFF8
FFFFF8
FFFFF8
FFFFF8
FFFFF8
ENDCHAR
STARTCHAR 005C
ENCODING 92
SWIDTH 447 0
DWIDTH 41 0
BBX 29 66 6 0
BITMAP
FFF00000
FFF00000
FFF80000
FFF80000
7FF80000
7FF80000
7FFC0000
7FFC0000
3FFC0000
3FFC0000
3FFE0000
1FFE0000
1FFE0000
1FFF0000
1FFF0000
0FFF0000
0FFF0000
0FFF8000
0FFF8000
07FF8000
07FF8000
07FFC000
07FFC000
03FFC000
03FFC000
03FFE000
01FFE000
01FFE000
01FFF000
01FFF000
00FFF000
00FFF000
00FFF800
00FFF800
007FF800
007FF800
007FFC00
007FFC00
003FFC00
003FFE00
003FFE00
001FFE00
001FFE00
001FFF00
001FFF00
000FFF00
000FFF00
000FFF80
000FFF80
0007FF80
0007FF80
0007FFC0
0007FFC0
0003FFC0
0003FFE0
0003FFE0
0001FFE0
0001FFE0
0001FFF0
0001FFF0
0000FFF0
0000FFF0
0000FFF8
0000FFF8
00007FF8
00007FF8
ENDCHAR
STARTCHAR 005D
ENCODING 93
SWIDTH 425 0
DWIDTH 39 0
BBX 21 102 5 -19
BITMAP
FFFFF8
FFFFF8
FFFFF8
FFFFF8
FFFFF8
FFFFF8
FFFFF8
FFFFF8
FFFFF8
FFFFF8
FFFFF8
003FF8
003FF8
003FF8
003FF8
003FF8
003FF8
003FF8
003FF8
003FF8
003FF8
003FF8
003FF8
003FF8
003FF8
003FF8
003FF8
003FF8
003FF8
003FF8
003FF8
003FF8
003FF8
003FF8
003FF8
003FF8
003FF8
003FF8
003FF8
003FF8
003FF8
003FF8
003FF8
003FF8
003FF8
003FF8
003FF8
003FF8
003FF8
003FF8
003FF8
003FF8
003FF8
003FF8
003FF8
003FF8
003FF8
003FF8
003FF8
003FF8
003FF8
003FF8
003FF8
003FF8
003FF8
003FF8
003FF8
003FF8
003FF8
003FF8
003FF8
003FF8
003FF8
003FF8
003FF8
003FF8
003FF8
003FF8
003FF8
003FF8
003FF8
003FF8
003FF8
003FF8
003FF8
003FF8
003FF8
003FF8
003FF8
003FF8
003FF8
FFFFF8
FFFFF8
FFFFF8
FFFFF8
FFFFF8
FFFFF8
FFFFF8
FFFFF8
FFFFF8
FFFFF8
FFFFF8
ENDCHAR
STARTCHAR 005E
ENCODING 94
SWIDTH 687 0
DWIDTH 63 0
BBX 44 30 10 37
BITMAP
000004000000
00000E000000
00001F000000
00003F800000
00007FC00000
0000FFE00000
0001FFF00000
0003FFF80000
0007FFFC0000
000FFFFE0000
001FFFFF0000
003FFFFF8000
007FFFFFC000
00FFFFFFE000
01FFFFFFF000
03FFFBFFF800
07FFF1FFFC00
0FFFE0FFFE00
1FFFC07FFF00
3FFF803FFF80
7FFF001FFFC0
FFFE000FFFE0
FFFE0007FFF0
7FFC0003FFE0
3FF80001FFC0
1FF00000FF80
0FE000007F00
07C000003E00
038000001C00
010000000800
ENDCHAR
STARTCHAR 005F
ENCODING 95
SWIDTH 665 0
DWIDTH 61 0
BBX 61 10 0 -12
BITMAP
FFFFFFFFFFFFFFF8
FFFFFFFFFFFFFFF8
FFFFFFFFFFFFFFF8
FFFFFFFFFFFFFFF8
FFFFFFFFFFFFFFF8
FFFFFFFFFFFFFFF8
FFFFFFFFFFFFFFF8
FFFFFFFFFFFFFFF8
FFFFFFFFFFFFFFF8
FFFFFFFFFFFFFFF8
ENDCHAR
STARTCHAR 0060
ENCODING 96
SWIDTH 556 0
DWIDTH 51 0
BBX 16 18 15 73
BITMAP
FF80
FFC0
7FC0
7FC0
7FE0
3FE0
3FF0
1FF0
1FF0
0FF8
0FF8
0FFC
07FC
07FE
03FE
03FE
01FF
01FF
ENDCHAR
STARTCHAR 0061
ENCODING 97
SWIDTH 578 0
DWIDTH 53 0
BBX 44 52 4 -1
BITMAP
00007FF80000
0007FFFF8000
001FFFFFE000
007FFFFFF800
00FFFFFFFC00
03FFFFFFFE00
07FFFFFFFF00
07FFFFFFFF80
0FFFFFFFFFC0
1FFFFFFFFFC0
1FFFFFFFFFE0
3FFFF8FFFFE0
3FFF800FFFE0
7FFF0003FFE0
0FFC0001FFF0
01FC0001FFF0
00380001FFF0
00000000FFF0
0000000FFFF0
000007FFFFF0
0000FFFFFFF0
000FFFFFFFF0
007FFFFFFFF0
01FFFFFFFFF0
03FFFFFFFFF0
0FFFFFFFFFF0
1FFFFFFFFFF0
3FFFFFFFFFF0
3FFFFFF8FFF0
7FFFFE01FFF0
7FFFE001FFF0
FFFF0001FFF0
FFFC0001FFF0
FFF80001FFF0
FFF00001FFF0
FFF00003FFF0
FFF00003FFF0
FFF00007FFF0
FFF0000FFFF0
FFF8001FFFF0
FFF8007FFFF0
FFFE01FFFFF0
7FFFFFFFFFF0
7FFFFFFFFFF0
3FFFFFFFFFF0
3FFFFFFF7FF0
1FFFFFFE7FF0
0FFFFFFC7FF0
07FFFFF87FF0
03FFFFE07FF0
00FFFF807FF0
000FFC000000
ENDCHAR
STARTCHAR 0062
ENCODING 98
SWIDTH 621 0
DWIDTH 57 0
BBX 48 67 6 -1
BITMAP
FFF800000000
FFF800000000
FFF800000000
FFF800000000
FFF800000000
FFF800000000
FFF800000000
FFF800000000
FFF800000000
FFF800000000
FFF800000000
FFF800000000
FFF800000000
FFF800000000
FFF800000000
FFF81FF80000
FFF8FFFF8000
FFFBFFFFE000
FFFFFFFFF800
FFFFFFFFFC00
FFFFFFFFFE00
FFFFFFFFFF00
FFFFFFFFFF80
FFFFFFFFFFC0
FFFFFFFFFFE0
FFFFFFFFFFE0
FFFFE07FFFF0
FFFF800FFFF8
FFFE0007FFF8
FFFC0001FFF8
FFFC0001FFFC
FFF80000FFFC
FFF800007FFC
FFF000007FFE
FFF000007FFE
FFF000003FFE
FFF000003FFE
FFE000003FFE
FFE000003FFE
FFE000003FFE
FFE000003FFF
FFE000003FFF
FFE000003FFE
FFE000003FFE
FFE000003FFE
FFF000003FFE
FFF000003FFE
FFF000007FFE
FFF000007FFE
FFF800007FFC
FFF80000FFFC
FFFC0000FFFC
FFFC0001FFF8
FFFE0003FFF8
FFFF800FFFF8
FFFFE03FFFF0
FFFFFFFFFFE0
FFFFFFFFFFE0
FFFFFFFFFFC0
FFFFFFFFFF80
FFFFFFFFFF00
FFFFFFFFFE00
FFFFFFFFFC00
FFEFFFFFF800
FFE3FFFFE000
FFE0FFFF8000
00000FFC0000
ENDCHAR
STARTCHAR 0063
ENCODING 99
SWIDTH 578 0
DWIDTH 53 0
BBX 47 52 4 -1
BITMAP
00001FFC0000
0001FFFFC000
0007FFFFF000
001FFFFFFC00
003FFFFFFE00
00FFFFFFFF00
01FFFFFFFF80
03FFFFFFFFC0
07FFFFFFFFE0
07FFFFFFFFF0
0FFFFFFFFFF0
1FFFFFFFFFF8
1FFFF00FFFF8
3FFFC003FFFC
3FFF8001FFFC
7FFF0000FFFC
7FFE00007FFE
7FFE00007FE0
FFFC00003E00
FFFC00002000
FFF800000000
FFF800000000
FFF800000000
FFF800000000
FFF800000000
FFF800000000
FFF800000000
FFF800000000
FFF800000000
FFF800000000
FFF800000000
FFF800000000
FFFC00000000
FFFC00003000
7FFE00007F80
7FFE00007FFC
7FFF0000FFFC
3FFF8000FFFC
3FFFC001FFFC
1FFFF007FFF8
1FFFFFFFFFF8
0FFFFFFFFFF0
0FFFFFFFFFF0
07FFFFFFFFE0
03FFFFFFFFC0
01FFFFFFFF80
00FFFFFFFF00
007FFFFFFE00
001FFFFFFC00
0007FFFFF000
0001FFFF8000
00001FFC0000
ENDCHAR
STARTCHAR 0064
ENCODING 100
SWIDTH 621 0
DWIDTH 57 0
BBX 47 67 4 -1
BITMAP
000000003FFE
000000003FFE
000000003FFE
000000003FFE
000000003FFE
000000003FFE
000000003FFE
000000003FFE
000000003FFE
000000003FFE
000000003FFE
000000003FFE
000000003FFE
000000003FFE
000000003FFE
00003FF03FFE
0003FFFE3FFE
000FFFFFBFFE
001FFFFFFFFE
007FFFFFFFFE
00FFFFFFFFFE
01FFFFFFFFFE
03FFFFFFFFFE
07FFFFFFFFFE
0FFFFFFFFFFE
0FFFFFFFFFFE
1FFFFC0FFFFE
1FFFE003FFFE
3FFFC000FFFE
3FFF80007FFE
7FFF00007FFE
7FFE00003FFE
7FFE00003FFE
FFFC00001FFE
FFFC00001FFE
FFF800001FFE
FFF800000FFE
FFF800000FFE
FFF800000FFE
FFF800000FFE
FFF800000FFE
FFF800000FFE
FFF800000FFE
FFF800000FFE
FFF800000FFE
FFF800000FFE
FFF800001FFE
FFFC00001FFE
FFFC00001FFE
7FFC00003FFE
7FFE00003FFE
7FFF00007FFE
3FFF00007FFE
3FFF8000FFFE
1FFFE003FFFE
1FFFF80FFFFE
0FFFFFFFFFFE
0FFFFFFFFFFE
07FFFFFFFFFE
03FFFFFFFFFE
01FFFFFFFFFE
00FFFFFFFFFE
007FFFFFFFFE
003FFFFFEFFE
000FFFFF8FFE
0003FFFE0FFE
00003FF00000
ENDCHAR
STARTCHAR 0065
ENCODING 101
SWIDTH 610 0
DWIDTH 56 0
BBX 48 52 4 -1
BITMAP
00001FFC0000
0000FFFFC000
0007FFFFF000
001FFFFFFC00
003FFFFFFE00
007FFFFFFF00
01FFFFFFFF80
03FFFFFFFFC0
03FFFFFFFFE0
07FFFFFFFFF0
0FFFFFFFFFF0
1FFFF803FFF8
1FFFC001FFF8
3FFF80007FFC
3FFF00007FFC
3FFE00003FFE
7FFE00003FFE
7FFC00001FFE
7FFC00001FFE
FFFC00001FFE
FFFFFFFFFFFF
FFFFFFFFFFFF
FFFFFFFFFFFF
FFFFFFFFFFFF
FFFFFFFFFFFF
FFFFFFFFFFFF
FFFFFFFFFFFF
FFFFFFFFFFFF
FFFFFFFFFFFF
FFF800000000
FFF800000000
FFF800000000
FFFC00000000
FFFC00000000
7FFE00001000
7FFE00003F00
7FFF00007FE0
3FFF80007FFE
3FFFC001FFFE
1FFFF007FFFE
1FFFFFFFFFFC
0FFFFFFFFFF8
07FFFFFFFFF8
03FFFFFFFFF0
03FFFFFFFFE0
00FFFFFFFFC0
007FFFFFFF80
003FFFFFFF00
000FFFFFFC00
0003FFFFF000
0000FFFFC000
00000FFE0000
ENDCHAR
STARTCHAR 0066
ENCODING 102
SWIDTH 381 0
DWIDTH 35 0
BBX 31 67 3 1
BITMAP
00003FFE
0001FFFE
0007FFFE
000FFFFE
001FFFFE
003FFFFE
007FFFFE
007FFFFE
00FFFFFE
00FFFFFE
00FFFE00
00FFF800
00FFF800
00FFF000
00FFF000
00FFF000
00FFF000
FFFFFFFE
FFFFFFFE
FFFFFFFE
FFFFFFFE
FFFFFFFE
FFFFFFFE
FFFFFFFE
FFFFFFFE
FFFFFFFE
FFFFFFFE
00FFF000
00FFF000
00FFF000
00FFF000
00FFF000
00FFF000
00FFF000
00FFF000
00FFF000
00FFF000
00FFF000
00FFF000
00FFF000
00FFF000
00FFF000
00FFF000
00FFF000
00FFF000
00FFF000
00FFF000
00FFF000
00FFF000
00FFF000
00FFF000
00FFF000
00FFF000
00FFF000
00FFF000
00FFF000
00FFF000
00FFF000
00FFF000
00FFF000
00FFF000
00FFF000
00FFF000
00FFF000
00FFF000
00FFF000
00FFF000
ENDCHAR
STARTCHAR 0067
ENCODING 103
SWIDTH 621 0
DWIDTH 57 0
BBX 47 74 4 -23
BITMAP
00003FF00000
0003FFFE0FFE
000FFFFF8FFE
001FFFFFEFFE
007FFFFFFFFE
00FFFFFFFFFE
01FFFFFFFFFE
03FFFFFFFFFE
07FFFFFFFFFE
0FFFFFFFFFFE
0FFFFFFFFFFE
1FFFFC0FFFFE
1FFFE003FFFE
3FFFC000FFFE
3FFF80007FFE
7FFF00007FFE
7FFE00003FFE
7FFE00003FFE
FFFC00001FFE
FFFC00001FFE
FFF800001FFE
FFF800000FFE
FFF800000FFE
FFF800000FFE
FFF800000FFE
FFF800000FFE
FFF800000FFE
FFF800000FFE
FFF800000FFE
FFF800000FFE
FFF800000FFE
FFF800001FFE
FFFC00001FFE
FFFC00001FFE
7FFC00003FFE
7FFE00003FFE
7FFF00007FFE
3FFF00007FFE
3FFF8000FFFE
1FFFE003FFFE
1FFFF80FFFFE
0FFFFFFFFFFE
0FFFFFFFFFFE
07FFFFFFFFFE
03FFFFFFFFFE
01FFFFFFFFFE
00FFFFFFFFFE
007FFFFFFFFE
003FFFFFFFFE
000FFFFFBFFE
0003FFFE3FFE
00003FF03FFE
000000003FFE
000000003FFE
000000003FFE
000000003FFE
000000003FFE
000000007FFE
000300007FFC
000F8000FFFC
003FC003FFFC
00FFF00FFFFC
07FFFFFFFFF8
0FFFFFFFFFF8
07FFFFFFFFF8
07FFFFFFFFF0
03FFFFFFFFE0
01FFFFFFFFC0
00FFFFFFFF80
003FFFFFFF00
001FFFFFFE00
0007FFFFF800
0001FFFFC000
00003FFC0000
ENDCHAR
STARTCHAR 0068
ENCODING 104
SWIDTH 632 0
DWIDTH 58 0
BBX 47 66 6 0
BITMAP
FFE000000000
FFE000000000
FFE000000000
FFE000000000
FFE000000000
FFE000000000
FFE000000000
FFE000000000
FFE000000000
FFE000000000
FFE000000000
FFE000000000
FFE000000000
FFE000000000
FFE000000000
FFE003FF0000
FFE01FFFF000
FFE07FFFFC00
FFE1FFFFFE00
FFE3FFFFFF00
FFEFFFFFFF80
FFFFFFFFFFC0
FFFFFFFFFFE0
FFFFFFFFFFF0
FFFFFFFFFFF0
FFFFFFFFFFF8
FFFFFFFFFFF8
FFFFE00FFFF8
FFFF8003FFFC
FFFF0001FFFC
FFFF0001FFFC
FFFE0000FFFC
FFFC00007FFC
FFFC00007FFE
FFFC00007FFE
FFF800003FFE
FFF800003FFE
FFF800003FFE
FFF800003FFE
FFF800003FFE
FFF800003FFE
FFF800003FFE
FFF800003FFE
FFF800003FFE
FFF800003FFE
FFF800003FFE
FFF800003FFE
FFF800003FFE
FFF800003FFE
FFF800003FFE
FFF800003FFE
FFF800003FFE
FFF800003FFE
FFF800003FFE
FFF800003FFE
FFF800003FFE
FFF800003FFE
FFF800003FFE
FFF800003FFE
FFF800003FFE
FFF800003FFE
FFF800003FFE
FFF800003FFE
FFF800003FFE
FFF800003FFE
FFF800003FFE
ENDCHAR
STARTCHAR 0069
ENCODING 105
SWIDTH 294 0
DWIDTH 27 0
BBX 13 67 7 0
BITMAP
FFF8
FFF8
FFF8
FFF8
FFF8
FFF8
FFF8
FFF8
FFF8
FFF8
FFF8
0000
0000
0000
0000
0000
0000
FFF8
FFF8
FFF8
FFF8
FFF8
FFF8
FFF8
FFF8
FFF8
FFF8
FFF8
FFF8
FFF8
FFF8
FFF8
FFF8
FFF8
FFF8
FFF8
FFF8
FFF8
FFF8
FFF8
FFF8
FFF8
FFF8
FFF8
FFF8
FFF8
FFF8
FFF8
FFF8
FFF8
FFF8
FFF8
FFF8
FFF8
FFF8
FFF8
FFF8
FFF8
FFF8
FFF8
FFF8
FFF8
FFF8
FFF8
FFF8
FFF8
FFF8
ENDCHAR
STARTCHAR 006A
ENCODING 106
SWIDTH 305 0
DWIDTH 28 0
BBX 22 89 -1 -22
BITMAP
003FFC
003FFC
003FFC
003FFC
003FFC
003FFC
003FFC
003FFC
003FFC
003FFC
003FFC
000000
000000
000000
000000
000000
000000
003FFC
003FFC
003FFC
003FFC
003FFC
003FFC
003FFC
003FFC
003FFC
003FFC
003FFC
003FFC
003FFC
003FFC
003FFC
003FFC
003FFC
003FFC
003FFC
003FFC
003FFC
003FFC
003FFC
003FFC
003FFC
003FFC
003FFC
003FFC
003FFC
003FFC
003FFC
003FFC
003FFC
003FFC
003FFC
003FFC
003FFC
003FFC
003FFC
003FFC
003FFC
003FFC
003FFC
003FFC
003FFC
003FFC
003FFC
003FFC
003FFC
003FFC
003FFC
003FFC
003FFC
003FFC
003FFC
007FFC
007FFC
007FFC
00FFFC
01FFFC
FFFFFC
FFFFFC
FFFFFC
FFFFF8
FFFFF8
FFFFF8
FFFFF0
FFFFE0
FFFFC0
FFFF80
FFFF00
FFF800
ENDCHAR
STARTCHAR 006B
ENCODING 107
SWIDTH 556 0
DWIDTH 51 0
BBX 46 66 6 0
BITMAP
FFF800000000
FFF800000000
FFF800000000
FFF800000000
FFF800000000
FFF800000000
FFF800000000
FFF800000000
FFF800000000
FFF800000000
FFF800000000
FFF800000000
FFF800000000
FFF800000000
FFF800000000
FFF800000000
FFF80007FFF8
FFF80007FFF0
FFF8000FFFE0
FFF8001FFFE0
FFF8001FFFC0
FFF8003FFF80
FFF8007FFF80
FFF8007FFF00
FFF800FFFE00
FFF801FFFC00
FFF801FFFC00
FFF803FFF800
FFF807FFF000
FFF80FFFF000
FFF80FFFE000
FFF81FFFC000
FFF83FFF8000
FFF83FFF8000
FFF87FFF0000
FFF8FFFE0000
FFF8FFFE0000
FFF9FFFC0000
FFFBFFF80000
FFFFFFF00000
FFFFFFF00000
FFFFFFF00000
FFFFFFF80000
FFFBFFF80000
FFF9FFFC0000
FFF8FFFE0000
FFF8FFFF0000
FFF87FFF0000
FFF83FFF8000
FFF83FFFC000
FFF81FFFE000
FFF80FFFE000
FFF807FFF000
FFF807FFF800
FFF803FFFC00
FFF801FFFC00
FFF801FFFE00
FFF800FFFF00
FFF8007FFF80
FFF8003FFF80
FFF8003FFFC0
FFF8001FFFE0
FFF8000FFFF0
FFF8000FFFF8
FFF80007FFF8
FFF80003FFFC
ENDCHAR
STARTCHAR 006C
ENCODING 108
SWIDTH 294 0
DWIDTH 27 0
BBX 13 66 7 0
BITMAP
FFF8
FFF8
FFF8
FFF8
FFF8
FFF8
FFF8
FFF8
FFF8
FFF8
FFF8
FFF8
FFF8
FFF8
FFF8
FFF8
FFF8
FFF8
FFF8
FFF8
FFF8
FFF8
FFF8
FFF8
FFF8
FFF8
FFF8
FFF8
FFF8
FFF8
FFF8
FFF8
FFF8
FFF8
FFF8
FFF8
FFF8
FFF8
FFF8
FFF8
FFF8
FFF8
FFF8
FFF8
FFF8
FFF8
FFF8
FFF8
FFF8
FFF8
FFF8
FFF8
FFF8
FFF8
FFF8
FFF8
FFF8
FFF8
FFF8
FFF8
FFF8
FFF8
FFF8
FFF8
FFF8
FFF8
ENDCHAR
STARTCHAR 006D
ENCODING 109
SWIDTH 916 0
DWIDTH 84 0
BBX 72 51 6 0
BITMAP
000007FC00001FF000
FFE03FFF8000FFFE00
FFE0FFFFE003FFFF80
FFE1FFFFF80FFFFFE0
FFE7FFFFFC1FFFFFF0
FFEFFFFFFE3FFFFFF0
FFFFFFFFFE7FFFFFF8
FFFFFFFFFFFFFFFFFC
FFFFFFFFFFFFFFFFFC
FFFFFFFFFFFFFFFFFE
FFFFFFFFFFFFFFFFFE
FFFFE0FFFFFF83FFFF
FFFF803FFFFE00FFFF
FFFF000FFFF8007FFF
FFFE000FFFF0003FFF
FFFC0007FFF0001FFF
FFFC0007FFE0001FFF
FFF80003FFE0001FFF
FFF80003FFE0000FFF
FFF80003FFE0000FFF
FFF80003FFE0000FFF
FFF80003FFE0000FFF
FFF80003FFE0000FFF
FFF80003FFE0000FFF
FFF80003FFE0000FFF
FFF80003FFE0000FFF
FFF80003FFE0000FFF
FFF80003FFE0000FFF
FFF80003FFE0000FFF
FFF80003FFE0000FFF
FFF80003FFE0000FFF
FFF80003FFE0000FFF
FFF80003FFE0000FFF
FFF80003FFE0000FFF
FFF80003FFE0000FFF
FFF80003FFE0000FFF
FFF80003FFE0000FFF
FFF80003FFE0000FFF
FFF80003FFE0000FFF
FFF80003FFE0000FFF
FFF80003FFE0000FFF
FFF80003FFE0000FFF
FFF80003FFE0000FFF
FFF80003FFE0000FFF
FFF80003FFE0000FFF
FFF80003FFE0000FFF
FFF80003FFE0000FFF
FFF80003FFE0000FFF
FFF80003FFE0000FFF
FFF80003FFE0000FFF
FFF80003FFE0000FFF
ENDCHAR
STARTCHAR 006E
ENCODING 110
SWIDTH 632 0
DWIDTH 58 0
BBX 47 52 6 0
BITMAP
0000007E0000
00001FFFE000
FFE07FFFF800
FFE1FFFFFE00
FFE3FFFFFF00
FFE7FFFFFF80
FFEFFFFFFFC0
FFFFFFFFFFE0
FFFFFFFFFFE0
FFFFFFFFFFF0
FFFFFFFFFFF0
FFFFFFFFFFF8
FFFFF01FFFF8
FFFFC007FFFC
FFFF8003FFFC
FFFF0001FFFC
FFFE0000FFFC
FFFE0000FFFC
FFFC00007FFE
FFFC00007FFE
FFFC00007FFE
FFF800003FFE
FFF800003FFE
FFF800003FFE
FFF800003FFE
FFF800003FFE
FFF800003FFE
FFF800003FFE
FFF800003FFE
FFF800003FFE
FFF800003FFE
FFF800003FFE
FFF800003FFE
FFF800003FFE
FFF800003FFE
FFF800003FFE
FFF800003FFE
FFF800003FFE
FFF800003FFE
FFF800003FFE
FFF800003FFE
FFF800003FFE
FFF800003FFE
FFF800003FFE
FFF800003FFE
FFF800003FFE
FFF800003FFE
FFF800003FFE
FFF800003FFE
FFF800003FFE
FFF800003FFE
FFF800003FFE
ENDCHAR
STARTCHAR 006F
ENCODING 111
SWIDTH 621 0
DWIDTH 57 0
BBX 50 52 4 -1
BITMAP
00001FFC000000
0000FFFFC00000
0007FFFFF00000
001FFFFFFC0000
003FFFFFFF0000
00FFFFFFFF8000
01FFFFFFFFC000
03FFFFFFFFE000
07FFFFFFFFF000
07FFFFFFFFF800
0FFFFFFFFFF800
1FFFFFFFFFFC00
1FFFF007FFFE00
3FFFC001FFFE00
3FFF80007FFF00
7FFF00003FFF00
7FFE00003FFF00
7FFE00001FFF80
FFFC00001FFF80
FFFC00000FFF80
FFF800000FFF80
FFF800000FFF80
FFF800000FFFC0
FFF800000FFFC0
FFF8000007FFC0
FFF8000007FFC0
FFF8000007FFC0
FFF8000007FFC0
FFF800000FFFC0
FFF800000FFFC0
FFF800000FFF80
FFF800000FFF80
FFFC00000FFF80
FFFC00001FFF80
7FFE00001FFF80
7FFE00003FFF00
7FFF00007FFF00
3FFF80007FFF00
3FFFC001FFFE00
1FFFF007FFFE00
1FFFFFFFFFFC00
0FFFFFFFFFF800
07FFFFFFFFF800
07FFFFFFFFF000
03FFFFFFFFE000
01FFFFFFFFC000
00FFFFFFFF8000
003FFFFFFF0000
001FFFFFFC0000
0007FFFFF00000
0000FFFFC00000
00001FFC000000
ENDCHAR
STARTCHAR 0070
ENCODING 112
SWIDTH 621 0
DWIDTH 57 0
BBX 48 73 6 -22
BITMAP
00001FF80000
FFE0FFFF8000
FFE3FFFFE000
FFEFFFFFF800
FFFFFFFFFC00
FFFFFFFFFE00
FFFFFFFFFF00
FFFFFFFFFF80
FFFFFFFFFFC0
FFFFFFFFFFE0
FFFFFFFFFFE0
FFFFE07FFFF0
FFFF800FFFF8
FFFE0007FFF8
FFFC0001FFF8
FFFC0001FFFC
FFF80000FFFC
FFF800007FFC
FFF000007FFE
FFF000007FFE
FFF000003FFE
FFF000003FFE
FFE000003FFE
FFE000003FFE
FFE000003FFF
FFE000003FFF
FFE000003FFF
FFE000003FFE
FFE000003FFE
FFE000003FFE
FFF000003FFE
FFF000003FFE
FFF000007FFE
FFF000007FFE
FFF800007FFC
FFF80000FFFC
FFFC0000FFFC
FFFC0001FFF8
FFFE0003FFF8
FFFF800FFFF8
FFFFE03FFFF0
FFFFFFFFFFE0
FFFFFFFFFFE0
FFFFFFFFFFC0
FFFFFFFFFF80
FFFFFFFFFF00
FFFFFFFFFE00
FFFFFFFFFC00
FFFFFFFFF800
FFFBFFFFE000
FFF8FFFF8000
FFF81FFC0000
FFF800000000
FFF800000000
FFF800000000
FFF800000000
FFF800000000
FFF800000000
FFF800000000
FFF800000000
FFF800000000
FFF800000000
FFF800000000
FFF800000000
FFF800000000
FFF800000000
FFF800000000
FFF800000000
FFF800000000
FFF800000000
FFF800000000
FFF800000000
FFF800000000
ENDCHAR
STARTCHAR 0071
ENCODING 113
SWIDTH 621 0
DWIDTH 57 0
BBX 47 73 4 -22
BITMAP
00003FF00000
0003FFFE0FFE
000FFFFF8FFE
001FFFFFEFFE
007FFFFFFFFE
00FFFFFFFFFE
01FFFFFFFFFE
03FFFFFFFFFE
07FFFFFFFFFE
0FFFFFFFFFFE
0FFFFFFFFFFE
1FFFFC0FFFFE
1FFFE003FFFE
3FFFC000FFFE
3FFF80007FFE
7FFF00007FFE
7FFE00003FFE
7FFE00003FFE
FFFC00001FFE
FFFC00001FFE
FFF800001FFE
FFF800000FFE
FFF800000FFE
FFF800000FFE
FFF800000FFE
FFF800000FFE
FFF800000FFE
FFF800000FFE
FFF800000FFE
FFF800000FFE
FFF800000FFE
FFF800001FFE
FFFC00001FFE
FFFC00001FFE
7FFE00003FFE
7FFE00003FFE
7FFF00007FFE
3FFF00007FFE
3FFF8000FFFE
1FFFE003FFFE
1FFFF80FFFFE
0FFFFFFFFFFE
0FFFFFFFFFFE
07FFFFFFFFFE
03FFFFFFFFFE
01FFFFFFFFFE
00FFFFFFFFFE
007FFFFFFFFE
003FFFFFFFFE
000FFFFFBFFE
0003FFFE3FFE
00003FF03FFE
000000003FFE
000000003FFE
000000003FFE
000000003FFE
000000003FFE
000000003FFE
000000003FFE
000000003FFE
000000003FFE
000000003FFE
000000003FFE
000000003FFE
000000003FFE
000000003FFE
000000003FFE
000000003FFE
000000003FFE
000000003FFE
000000003FFE
000000003FFE
000000003FFE
ENDCHAR
STARTCHAR 0072
ENCODING 114
SWIDTH 414 0
DWIDTH 38 0
BBX 29 50 6 1
BITMAP
FFE007F8
FFE03FF8
FFE07FF8
FFE1FFF8
FFE3FFF8
FFE7FFF8
FFEFFFF8
FFEFFFF8
FFFFFFF8
FFFFFFF8
FFFFFFF8
FFFFFF08
FFFFF000
FFFFC000
FFFF8000
FFFF0000
FFFE0000
FFFE0000
FFFC0000
FFFC0000
FFF80000
FFF80000
FFF80000
FFF80000
FFF80000
FFF80000
FFF80000
FFF80000
FFF80000
FFF80000
FFF80000
FFF80000
FFF80000
FFF80000
FFF80000
FFF80000
FFF80000
FFF80000
FFF80000
FFF80000
FFF80000
FFF80000
FFF80000
FFF80000
FFF80000
FFF80000
FFF80000
FFF80000
FFF80000
FFF80000
ENDCHAR
STARTCHAR 0073
ENCODING 115
SWIDTH 545 0
DWIDTH 50 0
BBX 42 52 4 -1
BITMAP
0001FFE00000
000FFFFC0000
007FFFFF8000
00FFFFFFE000
03FFFFFFF000
07FFFFFFF800
0FFFFFFFFC00
0FFFFFFFFE00
1FFFFFFFFF00
3FFFFFFFFF00
3FFFFFFFFF80
3FFF007FFF80
3FFE001FFFC0
7FFC000FFFC0
7FFC000FFFC0
7FFC0007F800
7FFC00070000
7FFE00000000
3FFF80000000
3FFFF0000000
3FFFFF000000
1FFFFFF00000
1FFFFFFE0000
0FFFFFFFC000
07FFFFFFF000
03FFFFFFF800
00FFFFFFFE00
003FFFFFFF00
0007FFFFFF00
0000FFFFFF80
00000FFFFFC0
000001FFFFC0
0000003FFFC0
0000000FFFC0
00F80007FFC0
3FF80003FFC0
FFF80003FFC0
FFFC0003FFC0
FFFE0007FFC0
7FFF000FFFC0
7FFFC01FFFC0
7FFFFFFFFF80
3FFFFFFFFF80
1FFFFFFFFF80
1FFFFFFFFF00
0FFFFFFFFE00
07FFFFFFFC00
03FFFFFFF800
00FFFFFFF000
003FFFFFC000
000FFFFF0000
0000FFF00000
ENDCHAR
STARTCHAR 0074
ENCODING 116
SWIDTH 447 0
DWIDTH 41 0
BBX 35 65 1 -2
BITMAP
00FFF80000
00FFF80000
00FFF80000
00FFF80000
00FFF80000
00FFF80000
00FFF80000
00FFF80000
00FFF80000
00FFF80000
00FFF80000
00FFF80000
00FFF80000
00FFF80000
FFFFFFFFE0
FFFFFFFFE0
FFFFFFFFE0
FFFFFFFFE0
FFFFFFFFE0
FFFFFFFFE0
FFFFFFFFE0
FFFFFFFFE0
FFFFFFFFE0
FFFFFFFFE0
00FFF80000
00FFF80000
00FFF80000
00FFF80000
00FFF80000
00FFF80000
00FFF80000
00FFF80000
00FFF80000
00FFF80000
00FFF80000
00FFF80000
00FFF80000
00FFF80000
00FFF80000
00FFF80000
00FFF80000
00FFF80000
00FFF80000
00FFF80000
00FFF80000
00FFF80000
00FFF80000
00FFF80000
00FFF80000
00FFF80000
00FFF80000
00FFFC0000
007FFE0000
007FFF0000
007FFFFFE0
007FFFFFE0
003FFFFFE0
003FFFFFE0
001FFFFFE0
001FFFFFE0
000FFFFFE0
0007FFFFE0
0001FFFFE0
00007FFFE0
00000FFF80
ENDCHAR
STARTCHAR 0075
ENCODING 117
SWIDTH 632 0
DWIDTH 58 0
BBX 47 52 5 -2
BITMAP
FFF800003FFE
FFF800003FFE
FFF800003FFE
FFF800003FFE
FFF800003FFE
FFF800003FFE
FFF800003FFE
FFF800003FFE
FFF800003FFE
FFF800003FFE
FFF800003FFE
FFF800003FFE
FFF800003FFE
FFF800003FFE
FFF800003FFE
FFF800003FFE
FFF800003FFE
FFF800003FFE
FFF800003FFE
FFF800003FFE
FFF800003FFE
FFF800003FFE
FFF800003FFE
FFF800003FFE
FFF800003FFE
FFF800003FFE
FFF800003FFE
FFF800003FFE
FFF800003FFE
FFF800003FFE
7FFC00003FFE
7FFC00003FFE
7FFC00007FFE
7FFC00007FFE
7FFE00007FFE
7FFE0000FFFE
7FFF0001FFFE
7FFF8001FFFE
3FFFC007FFFE
3FFFF01FFFFE
3FFFFFFFFFFE
1FFFFFFFFFFE
1FFFFFFFFFFE
0FFFFFFFFFFE
07FFFFFFFFFE
07FFFFFFFFFE
03FFFFFFEFFE
01FFFFFF8FFE
00FFFFFF0FFE
003FFFFC0FFE
000FFFF00000
0000FC000000
ENDCHAR
STARTCHAR 0076
ENCODING 118
SWIDTH 567 0
DWIDTH 52 0
BBX 48 50 2 0
BITMAP
FFF000000FFF
FFF800001FFF
7FF800001FFE
7FF800001FFE
7FFC00003FFE
3FFC00003FFC
3FFE00003FFC
1FFE00007FFC
1FFE00007FF8
1FFF00007FF8
0FFF0000FFF0
0FFF0000FFF0
0FFF8000FFF0
07FF8001FFE0
07FF8001FFE0
07FFC001FFE0
03FFC003FFC0
03FFC003FFC0
03FFE007FFC0
01FFE007FF80
01FFE007FF80
00FFF00FFF80
00FFF00FFF00
00FFF00FFF00
007FF81FFE00
007FF81FFE00
007FF81FFE00
003FFC3FFC00
003FFC3FFC00
003FFC3FFC00
001FFE7FF800
001FFE7FF800
000FFE7FF800
000FFFFFF000
000FFFFFF000
0007FFFFE000
0007FFFFE000
0007FFFFE000
0003FFFFC000
0003FFFFC000
0003FFFFC000
0001FFFF8000
0001FFFF8000
0001FFFF8000
0000FFFF0000
0000FFFF0000
00007FFF0000
00007FFE0000
00007FFE0000
00003FFC0000
ENDCHAR
STARTCHAR 0077
ENCODING 119
SWIDTH 818 0
DWIDTH 75 0
BBX 71 50 2 0
BITMAP
FFF00003FF80003FFE
FFF00003FF80003FFC
7FF80007FF80003FFC
7FF80007FFC0003FFC
7FF80007FFC0007FF8
7FFC000FFFC0007FF8
3FFC000FFFC0007FF8
3FFC000FFFE000FFF8
3FFE000FFFE000FFF0
1FFE001FFFE000FFF0
1FFE001FFFF001FFF0
1FFE001FFFF001FFE0
0FFF003FFFF001FFE0
0FFF003FFFF801FFE0
0FFF003FFFF803FFC0
07FF807FFFF803FFC0
07FF807FFFFC03FFC0
07FF807FFFFC07FF80
07FFC0FFEFFC07FF80
03FFC0FFEFFC07FF80
03FFC0FFCFFE0FFF80
03FFE0FFC7FE0FFF00
01FFE1FFC7FE0FFF00
01FFE1FF87FF0FFF00
01FFE1FF83FF1FFE00
00FFF3FF83FF1FFE00
00FFF3FF03FF9FFE00
00FFF3FF01FFBFFC00
00FFFFFF01FFBFFC00
007FFFFE01FFFFFC00
007FFFFE00FFFFFC00
007FFFFE00FFFFF800
003FFFFC00FFFFF800
003FFFFC007FFFF800
003FFFFC007FFFF000
001FFFF8007FFFF000
001FFFF8003FFFF000
001FFFF8003FFFE000
001FFFF0003FFFE000
000FFFF0001FFFE000
000FFFF0001FFFE000
000FFFE0001FFFC000
0007FFE0000FFFC000
0007FFE0000FFFC000
0007FFC0000FFF8000
0003FFC00007FF8000
0003FFC00007FF8000
0003FF800007FF0000
0003FF800003FF0000
0001FF800003FF0000
ENDCHAR
STARTCHAR 0078
ENCODING 120
SWIDTH 567 0
DWIDTH 52 0
BBX 49 50 1 0
BITMAP
7FFE00003FFF80
7FFF00003FFF00
3FFF80007FFE00
1FFF8000FFFE00
1FFFC000FFFC00
0FFFE001FFF800
07FFE003FFF800
03FFF003FFF000
03FFF807FFE000
01FFF80FFFE000
00FFFC0FFFC000
00FFFE1FFF8000
007FFE3FFF0000
003FFF3FFF0000
003FFFFFFE0000
001FFFFFFC0000
000FFFFFFC0000
0007FFFFF80000
0007FFFFF00000
0003FFFFF00000
0001FFFFE00000
0001FFFFC00000
0000FFFF800000
00007FFF800000
00007FFF000000
00007FFF000000
0000FFFF800000
0000FFFFC00000
0001FFFFE00000
0003FFFFE00000
0003FFFFF00000
0007FFFFF80000
000FFFFFF80000
001FFFFFFC0000
001FFFFFFE0000
003FFF7FFE0000
007FFF3FFF0000
007FFE1FFF8000
00FFFC1FFFC000
01FFFC0FFFC000
01FFF807FFE000
03FFF007FFF000
07FFF003FFF000
0FFFE001FFF800
0FFFC001FFFC00
1FFFC000FFFE00
3FFF80007FFE00
3FFF00007FFF00
7FFF00003FFF80
FFFE00001FFF80
ENDCHAR
STARTCHAR 0079
ENCODING 121
SWIDTH 567 0
DWIDTH 52 0
BBX 51 72 1 -22
BITMAP
FFF8000001FFE0
7FF8000003FFE0
7FFC000003FFC0
7FFC000007FFC0
3FFE000007FF80
3FFE000007FF80
1FFE00000FFF80
1FFF00000FFF00
1FFF00000FFF00
0FFF80001FFF00
0FFF80001FFE00
07FF80003FFE00
07FFC0003FFC00
07FFC0003FFC00
03FFC0007FFC00
03FFE0007FF800
01FFE000FFF800
01FFF000FFF000
01FFF000FFF000
00FFF001FFF000
00FFF801FFE000
007FF801FFE000
007FFC03FFC000
007FFC03FFC000
003FFC07FFC000
003FFE07FF8000
001FFE07FF8000
001FFE0FFF8000
001FFF0FFF0000
000FFF1FFF0000
000FFF9FFE0000
0007FF9FFE0000
0007FFBFFE0000
0003FFFFFC0000
0003FFFFFC0000
0003FFFFF80000
0001FFFFF80000
0001FFFFF80000
0000FFFFF00000
0000FFFFF00000
0000FFFFE00000
00007FFFE00000
00007FFFE00000
00003FFFC00000
00003FFFC00000
00003FFF800000
00001FFF800000
00001FFF800000
00000FFF000000
00000FFF000000
00001FFF000000
00001FFE000000
00001FFE000000
00003FFC000000
00003FFC000000
00003FFC000000
00007FF8000000
00007FF8000000
0000FFF0000000
0000FFF0000000
0000FFF0000000
0001FFE0000000
0001FFE0000000
0001FFC0000000
0003FFC0000000
0003FFC0000000
0003FF80000000
0007FF80000000
0007FF00000000
000FFF00000000
000FFF00000000
000FFE00000000
ENDCHAR
STARTCHAR 007A
ENCODING 122
SWIDTH 534 0
DWIDTH 49 0
BBX 43 50 2 0
BITMAP
1FFFFFFFFFE0
1FFFFFFFFFE0
1FFFFFFFFFE0
1FFFFFFFFFC0
1FFFFFFFFF80
1FFFFFFFFF80
1FFFFFFFFF00
1FFFFFFFFF00
1FFFFFFFFE00
1FFFFFFFFC00
1FFFFFFFFC00
000000FFF800
000001FFF000
000003FFF000
000003FFE000
000007FFC000
00000FFFC000
00000FFF8000
00001FFF0000
00001FFF0000
00003FFE0000
00007FFE0000
00007FFC0000
0000FFF80000
0001FFF80000
0001FFF00000
0003FFE00000
0007FFE00000
0007FFC00000
000FFF800000
001FFF800000
001FFF000000
003FFE000000
007FFE000000
007FFC000000
00FFFC000000
00FFF8000000
01FFF0000000
03FFF0000000
03FFFFFFFFC0
07FFFFFFFFC0
0FFFFFFFFFC0
0FFFFFFFFFC0
1FFFFFFFFFC0
3FFFFFFFFFC0
3FFFFFFFFFC0
7FFFFFFFFFC0
FFFFFFFFFFC0
FFFFFFFFFFC0
FFFFFFFFFFC0
ENDCHAR
STARTCHAR 007B
ENCODING 123
SWIDTH 458 0
DWIDTH 42 0
BBX 25 102 13 -19
BITMAP
0000FF80
000FFF80
001FFF80
007FFF80
00FFFF80
00FFFF80
01FFFF80
01FFFF80
03FFFF80
03FFFF80
03FFFF80
03FFFF80
07FFC000
07FF8000
07FF8000
07FF8000
07FF8000
07FF8000
07FF8000
07FF8000
07FF8000
07FF8000
07FF8000
07FF8000
07FF8000
07FF8000
07FF8000
07FF8000
07FF8000
07FF8000
07FF8000
07FF8000
07FF8000
07FF8000
07FF8000
07FF8000
07FF8000
07FF8000
07FF8000
07FF8000
07FF8000
07FF8000
07FF8000
0FFF8000
1FFF8000
3FFF0000
3FFF0000
7FFE0000
FFFE0000
FFFC0000
FFF80000
FFF80000
FFFC0000
FFFC0000
7FFE0000
3FFF0000
3FFF0000
1FFF0000
0FFF8000
0FFF8000
07FF8000
07FF8000
07FF8000
07FF8000
07FF8000
07FF8000
07FF8000
07FF8000
07FF8000
07FF8000
07FF8000
07FF8000
07FF8000
07FF8000
07FF8000
07FF8000
07FF8000
07FF8000
07FF8000
07FF8000
07FF8000
07FF8000
07FF8000
07FF8000
07FF8000
07FF8000
07FF8000
07FF8000
07FF8000
07FFC000
07FFFF80
03FFFF80
03FFFF80
03FFFF80
03FFFF80
01FFFF80
01FFFF80
00FFFF80
007FFF80
003FFF80
000FFF80
0003FF80
ENDCHAR
STARTCHAR 007C
ENCODING 124
SWIDTH 316 0
DWIDTH 29 0
BBX 13 66 8 0
BITMAP
FFF8
FFF8
FFF8
FFF8
FFF8
FFF8
FFF8
FFF8
FFF8
FFF8
FFF8
FFF8
FFF8
FFF8
FFF8
FFF8
FFF8
FFF8
FFF8
FFF8
FFF8
FFF8
FFF8
FFF8
FFF8
FFF8
FFF8
FFF8
FFF8
FFF8
FFF8
FFF8
FFF8
FFF8
FFF8
FFF8
FFF8
FFF8
FFF8
FFF8
FFF8
FFF8
FFF8
FFF8
FFF8
FFF8
FFF8
FFF8
FFF8
FFF8
FFF8
FFF8
FFF8
FFF8
FFF8
FFF8
FFF8
FFF8
FFF8
FFF8
FFF8
FFF8
FFF8
FFF8
FFF8
FFF8
ENDCHAR
STARTCHAR 007D
ENCODING 125
SWIDTH 458 0
DWIDTH 42 0
BBX 25 102 4 -19
BITMAP
FF800000
FFF80000
FFFC0000
FFFF0000
FFFF8000
FFFF8000
FFFFC000
FFFFC000
FFFFE000
FFFFE000
FFFFE000
FFFFE000
01FFF000
00FFF000
00FFF000
00FFF000
00FFF000
00FFF000
00FFF000
00FFF000
00FFF000
00FFF000
00FFF000
00FFF000
00FFF000
00FFF000
00FFF000
00FFF000
00FFF000
00FFF000
00FFF000
00FFF000
00FFF000
00FFF000
00FFF000
00FFF000
00FFF000
00FFF000
00FFF000
00FFF000
00FFF000
00FFF000
00FFF000
00FFF800
00FFFC00
007FFE00
007FFE00
003FFF00
003FFF80
001FFF80
000FFF80
000FFF80
001FFF80
001FFF80
003FFF00
007FFE00
007FFE00
007FFC00
00FFF800
00FFF800
00FFF000
00FFF000
00FFF000
00FFF000
00FFF000
00FFF000
00FFF000
00FFF000
00FFF000
00FFF000
00FFF000
00FFF000
00FFF000
00FFF000
00FFF000
00FFF000
00FFF000
00FFF000
00FFF000
00FFF000
00FFF000
00FFF000
00FFF000
00FFF000
00FFF000
00FFF000
00FFF000
00FFF000
00FFF000
01FFF000
FFFFF000
FFFFE000
FFFFE000
FFFFE000
FFFFE000
FFFFC000
FFFFC000
FFFF8000
FFFF0000
FFFE0000
FFF80000
FFE00000
ENDCHAR
STARTCHAR 007E
ENCODING 126
SWIDTH 730 0
DWIDTH 67 0
BBX 47 22 10 18
BITMAP
00FF00000000
03FFE0000000
0FFFF0000FFE
1FFFFC000FFE
3FFFFF000FFE
3FFFFF800FFE
7FFFFFE00FFE
7FFFFFF00FFE
FFFFFFFC1FFE
FFFFFFFFFFFE
FFFFFFFFFFFE
FFFFFFFFFFFE
FFFFFFFFFFFE
FFF07FFFFFFE
FFF01FFFFFFC
FFE007FFFFFC
FFE003FFFFFC
FFE000FFFFF8
FFE0007FFFF0
7FE0001FFFE0
00000007FF80
00000001FE00
ENDCHAR
STARTCHAR 00A0
ENCODING 160
SWIDTH 196 0
DWIDTH 18 0
BBX 0 0 0 0
BITMAP
ENDCHAR
STARTCHAR 00A1
ENCODING 161
SWIDTH 370 0
DWIDTH 34 0
BBX 12 66 11 -16
BITMAP
FFF0
FFF0
FFF0
FFF0
FFF0
FFF0
FFF0
FFF0
FFF0
FFF0
FFF0
0000
0000
0000
0000
0000
0000
FFF0
FFF0
FFF0
FFF0
FFF0
FFF0
FFF0
FFF0
FFF0
FFF0
FFF0
FFF0
FFF0
FFF0
FFF0
FFF0
FFF0
FFF0
FFF0
FFF0
FFF0
FFF0
FFF0
FFF0
FFF0
FFF0
FFF0
FFF0
FFF0
FFF0
FFF0
FFF0
FFF0
FFF0
FFF0
FFF0
FFF0
FFF0
FFF0
FFF0
FFF0
FFF0
FFF0
FFF0
FFF0
FFF0
FFF0
FFF0
FFF0
ENDCHAR
STARTCHAR 00A2
ENCODING 162
SWIDTH 578 0
DWIDTH 53 0
BBX 47 69 4 -3
BITMAP
00000FFC0000
00000FFC0000
00000FFC0000
00000FFC0000
00000FFC0000
00000FFC0000
00000FFC0000
00000FFC0000
00000FFC0000
0000FFFF8000
0003FFFFE000
000FFFFFF800
003FFFFFFE00
007FFFFFFF00
00FFFFFFFF80
01FFFFFFFFC0
03FFFFFFFFE0
07FFFFFFFFF0
0FFFFFFFFFF0
1FFFFFFFFFF8
1FFFF00FFFF8
3FFFC003FFFC
3FFF8001FFFC
3FFF0000FFFC
7FFE00007FFE
7FFE00007FF0
7FFC00003F00
FFFC00003000
FFFC00000000
FFF800000000
FFF800000000
FFF800000000
FFF800000000
FFF800000000
FFF800000000
FFF800000000
FFF800000000
FFF800000000
FFF800000000
FFF800000000
FFFC00000000
FFFC00000000
7FFC00003E00
7FFE00007FF0
7FFE00007FFE
3FFF0000FFFC
3FFF8001FFFC
3FFFE003FFFC
1FFFF81FFFF8
0FFFFFFFFFF8
0FFFFFFFFFF0
07FFFFFFFFE0
03FFFFFFFFE0
01FFFFFFFFC0
00FFFFFFFF80
007FFFFFFF00
003FFFFFFC00
000FFFFFF800
0003FFFFE000
00007FFF0000
00000FFC0000
00000FFC0000
00000FFC0000
00000FFC0000
00000FFC0000
00000FFC0000
00000FFC0000
00000FFC0000
00000FFC0000
ENDCHAR
STARTCHAR 00A3
ENCODING 163
SWIDTH 567 0
DWIDTH 52 0
BBX 45 67 4 0
BITMAP
000007FC0000
00003FFF8000
0000FFFFE000
0003FFFFF000
0007FFFFF800
000FFFFFFC00
001FFFFFFE00
003FFFFFFF00
007FFFFFFF80
007FFFFFFF80
00FFFFFFFFC0
00FFFFFFFFC0
01FFFE07FFE0
01FFF803FFE0
01FFF001FFF0
01FFF001FFF0
01FFF000FFF8
01FFE000FFE0
01FFE0007E00
01FFE0007000
01FFE0000000
01FFE0000000
01FFE0000000
01FFE0000000
01FFE0000000
01FFE0000000
01FFE0000000
01FFE0000000
FFFFFFFF0000
FFFFFFFF0000
FFFFFFFF0000
FFFFFFFF0000
FFFFFFFF0000
FFFFFFFF0000
FFFFFFFF0000
FFFFFFFF0000
FFFFFFFF0000
FFFFFFFF0000
FFFFFFFF0000
FFFFFFFF0000
01FFE0000000
01FFE0000000
01FFE0000000
01FFE0000000
01FFE0000000
01FFE0000000
01FFE0000000
01FFE0000000
01FFE0000000
01FFE0000000
03FFE0000000
03FFE0000000
07FFE0000000
0FFFE0000000
1FFFE0000000
FFFFFFFFFF00
FFFFFFFFFF00
FFFFFFFFFF00
FFFFFFFFFF00
FFFFFFFFFF00
FFFFFFFFFF00
FFFFFFFFFF00
FFFFFFFFFF00
FFFFFFFFFF00
FFFFFFFFFF00
FFFFFFFFFF00
FFFFFFFFFF00
ENDCHAR
STARTCHAR 00A4
ENCODING 164
SWIDTH 676 0
DWIDTH 62 0
BBX 56 56 3 5
BITMAP
01800000000080
03C000000001C0
07E000000003E0
0FF000000007F0
1FF801FF800FF8
3FFC0FFFF81FFC
7FFE3FFFFE3FFE
FFFFFFFFFFFFFF
FFFFFFFFFFFFFF
7FFFFFFFFFFFFE
3FFFFFFFFFFFFC
1FFFFFFFFFFFF8
0FFFFFFFFFFFF0
07FFFFFFFFFFE0
03FFFFFFFFFFC0
01FFFE007FFF80
01FFF8001FFF80
01FFF00007FFC0
03FFE00003FFC0
03FFC00001FFE0
07FF800001FFE0
07FF000000FFE0
07FF000000FFF0
07FE0000007FF0
0FFE0000007FF0
0FFE0000007FF0
0FFE0000003FF0
0FFE0000003FF0
0FFE0000003FF0
0FFE0000003FF0
0FFE0000007FF0
0FFE0000007FF0
07FE0000007FF0
07FF0000007FF0
07FF000000FFE0
07FF800001FFE0
03FFC00001FFE0
03FFE00003FFC0
01FFF00007FFC0
01FFF8001FFF80
01FFFE007FFF80
03FFFFF7FFFFC0
07FFFFFFFFFFE0
0FFFFFFFFFFFF0
1FFFFFFFFFFFF8
3FFFFFFFFFFFFC
7FFFFFFFFFFFFE
FFFFFFFFFFFFFF
FFFFFFFFFFFFFF
7FFE3FFFFE7FFE
3FFC0FFFF83FFC
1FF801FF801FF8
0FF00000000FF0
07E000000007E0
03C000000003C0
01800000000180
ENDCHAR
STARTCHAR 00A5
ENCODING 165
SWIDTH 632 0
DWIDTH 58 0
BBX 57 66 0 0
BITMAP
FFFE0000001FFF80
7FFE0000003FFF80
7FFF0000003FFF00
3FFF8000007FFF00
1FFF8000007FFE00
1FFFC00000FFFE00
0FFFC00001FFFC00
0FFFE00001FFF800
07FFE00003FFF800
07FFF00003FFF000
03FFF80007FFF000
01FFF80007FFE000
01FFFC000FFFE000
00FFFC001FFFC000
00FFFE001FFF8000
007FFE003FFF8000
007FFF003FFF0000
003FFF807FFF0000
001FFF807FFE0000
001FFFC0FFFE0000
000FFFC1FFFC0000
000FFFE1FFF80000
0007FFE3FFF80000
0007FFF3FFF00000
0003FFFFFFF00000
0001FFFFFFE00000
0001FFFFFFE00000
0000FFFFFFC00000
0000FFFFFF800000
00007FFFFF800000
00003FFFFF000000
00003FFFFF000000
003FFFFFFFFF0000
003FFFFFFFFF0000
003FFFFFFFFF0000
003FFFFFFFFF0000
003FFFFFFFFF0000
003FFFFFFFFF0000
003FFFFFFFFF0000
003FFFFFFFFF0000
003FFFFFFFFF0000
003FFFFFFFFF0000
000001FFE0000000
000001FFE0000000
000001FFE0000000
000001FFE0000000
000001FFE0000000
000001FFE0000000
003FFFFFFFFF0000
003FFFFFFFFF0000
003FFFFFFFFF0000
003FFFFFFFFF0000
003FFFFFFFFF0000
003FFFFFFFFF0000
003FFFFFFFFF0000
003FFFFFFFFF0000
003FFFFFFFFF0000
003FFFFFFFFF0000
000001FFE0000000
000001FFE0000000
000001FFE0000000
000001FFE0000000
000001FFE0000000
000001FFE0000000
000001FFE0000000
000001FFE0000000
ENDCHAR
STARTCHAR 00A6
ENCODING 166
SWIDTH 316 0
DWIDTH 29 0
BBX 13 86 8 -20
BITMAP
FFF8
FFF8
FFF8
FFF8
FFF8
FFF8
FFF8
FFF8
FFF8
FFF8
FFF8
FFF8
FFF8
FFF8
FFF8
FFF8
FFF8
FFF8
FFF8
FFF8
FFF8
FFF8
FFF8
FFF8
FFF8
FFF8
FFF8
FFF8
FFF8
FFF8
FFF8
FFF8
FFF8
FFF8
FFF8
FFF8
FFF8
FFF8
FFF8
0000
0000
0000
0000
0000
0000
0000
0000
0000
FFF8
FFF8
FFF8
FFF8
FFF8
FFF8
FFF8
FFF8
FFF8
FFF8
FFF8
FFF8
FFF8
FFF8
FFF8
FFF8
FFF8
FFF8
FFF8
FFF8
FFF8
FFF8
FFF8
FFF8
FFF8
FFF8
FFF8
FFF8
FFF8
FFF8
FFF8
FFF8
FFF8
FFF8
FFF8
FFF8
FFF8
FFF8
ENDCHAR
STARTCHAR 00A7
ENCODING 167
SWIDTH 545 0
DWIDTH 50 0
BBX 42 74 4 -13
BITMAP
0001FF800000
001FFFF00000
007FFFFC0000
01FFFFFF0000
03FFFFFFC000
07FFFFFFE000
0FFFFFFFF000
0FFFFFFFF000
1FFFFFFFF800
3FFFFFFFFC00
3FFFFFFFFC00
3FFF01FFFC00
3FFC007FFE00
7FFC007FFE00
7FFC003FFE00
7FFC003FE000
7FFC00380000
7FFE00000000
3FFF80000000
3FFFF0000000
3FFFFF000000
1FFFFFE00000
1FFFFFFE0000
0FFFFFFF8000
07FFFFFFE000
03FFFFFFF800
01FFFFFFFC00
01FFFFFFFF00
07FFFFFFFF00
0FFFFFFFFF80
1FFFFFFFFFC0
3FFF03FFFFC0
3FFE003FFFC0
7FFC000FFFC0
7FF80007FFC0
7FF80003FFC0
FFF80003FFC0
FFF80003FFC0
FFFC0007FFC0
FFFE0007FFC0
7FFFC00FFFC0
7FFFFC1FFF80
7FFFFFFFFF80
3FFFFFFFFF00
1FFFFFFFFE00
0FFFFFFFFC00
07FFFFFFF800
03FFFFFFF800
00FFFFFFFC00
003FFFFFFE00
0007FFFFFF00
00007FFFFF00
000007FFFF80
000000FFFF80
0000001FFF80
0000000FFF80
01FC0007FFC0
7FFC0007FFC0
7FFC0007FF80
7FFE0007FF80
7FFF000FFF80
3FFF801FFF80
3FFFE07FFF80
3FFFFFFFFF00
1FFFFFFFFF00
0FFFFFFFFE00
0FFFFFFFFE00
07FFFFFFFC00
03FFFFFFF800
01FFFFFFF000
007FFFFFE000
001FFFFF8000
0007FFFC0000
00003F800000
ENDCHAR
STARTCHAR 00A8
ENCODING 168
SWIDTH 567 0
DWIDTH 52 0
BBX 30 11 11 73
BITMAP
FFE01FFC
FFE01FFC
FFE01FFC
FFE01FFC
FFE01FFC
FFE01FFC
FFE01FFC
FFE01FFC
FFE01FFC
FFE01FFC
FFE01FFC
ENDCHAR
STARTCHAR 00A9
ENCODING 169
SWIDTH 916 0
DWIDTH 84 0
BBX 78 79 3 -7
BITMAP
000000007FF800000000
0000000FFFFF80000000
0000007FFFFFF8000000
000001FFFFFFFE000000
000007FFFFFFFF800000
00001FFFFFFFFFE00000
00007FFFFFFFFFF00000
0000FFFFFFFFFFFC0000
0001FFFFFFFFFFFE0000
0007FFFFFFFFFFFF0000
000FFFFFFFFFFFFF8000
001FFFFFFFFFFFFFC000
003FFFFF0003FFFFE000
007FFFF800007FFFF000
007FFFE000001FFFF800
00FFFF80000007FFFC00
01FFFE00000003FFFE00
03FFFC00000000FFFE00
03FFF8000000007FFF00
07FFF0000000003FFF80
07FFE0001FF8001FFF80
0FFFC000FFFF000FFFC0
0FFF8003FFFF8007FFC0
1FFF0007FFFFE007FFE0
1FFF001FFFFFF003FFE0
3FFE003FFFFFF801FFE0
3FFE003FFFFFFC01FFF0
3FFC007FFFFFFE00FFF0
7FFC00FFFFFFFE00FFF8
7FF800FFF01FFF00FFF8
7FF801FFC00FFF007FF8
7FF801FF8007FF007FF8
FFF003FF8003FF007FF8
FFF003FF0001F0003FFC
FFF003FF000100003FFC
FFF007FE000000003FFC
FFF007FE000000003FFC
FFE007FE000000003FFC
FFE007FE000000003FFC
FFE007FE000000003FFC
FFE007FE000000003FFC
FFE007FE000000003FFC
FFF007FE000000003FFC
FFF003FF000000003FFC
FFF003FF000000003FFC
FFF003FF0001E0003FFC
FFF003FF8003FF007FF8
7FF801FFC007FF007FF8
7FF801FFE007FF007FF8
7FF800FFF81FFE00FFF8
7FFC00FFFFFFFE00FFF0
3FFC007FFFFFFC00FFF0
3FFE003FFFFFFC01FFF0
3FFE003FFFFFF803FFE0
1FFF001FFFFFF003FFE0
1FFF8007FFFFE007FFE0
0FFF8003FFFF800FFFC0
0FFFC000FFFE000FFFC0
07FFE0001FF0001FFF80
07FFF0000000003FFF00
03FFF800000000FFFF00
01FFFC00000001FFFE00
01FFFF00000003FFFC00
00FFFFC000000FFFFC00
007FFFE000003FFFF800
003FFFFC0000FFFFF000
001FFFFFC00FFFFFE000
000FFFFFFFFFFFFFC000
0007FFFFFFFFFFFF8000
0003FFFFFFFFFFFF0000
0001FFFFFFFFFFFE0000
0000FFFFFFFFFFF80000
00003FFFFFFFFFF00000
00000FFFFFFFFFC00000
000007FFFFFFFF000000
000000FFFFFFFC000000
0000003FFFFFF0000000
00000003FFFF00000000
000000000FC000000000
ENDCHAR
STARTCHAR 00AA
ENCODING 170
SWIDTH 316 0
DWIDTH 29 0
BBX 22 26 4 25
BITMAP
01FE00
07FFC0
1FFFE0
3FFFF0
3FFFF8
7FFFF8
7F03FC
3E01FC
0000FC
000FFC
01FFFC
0FFFFC
3FFFFC
7FFFFC
7FF8FC
FF81FC
FE01FC
FC01FC
FC01FC
FC03FC
FE0FFC
FFFFFC
7FFFFC
7FFEFC
1FFCFC
07F000
ENDCHAR
STARTCHAR 00AB
ENCODING 171
SWIDTH 600 0
DWIDTH 55 0
BBX 43 41 7 4
BITMAP
000080000800
0001C0001C00
0001F0003E00
0003F8007F80
0007FC007FC0
000FFE00FFC0
001FFC01FFC0
001FF803FF80
003FF003FF00
007FF007FE00
00FFE00FFE00
01FFC01FFC00
01FF803FF800
03FF003FF000
07FF007FE000
0FFE00FFE000
1FFC01FFC000
1FF803FF8000
3FF003FF0000
7FF007FE0000
FFE00FFE0000
7FF007FE0000
3FF803FF0000
1FF803FF8000
0FFC01FFC000
0FFE00FFE000
07FF007FE000
03FF003FF000
01FF803FF800
01FFC01FFC00
00FFE00FFE00
007FF007FE00
003FF003FF00
001FF803FF80
001FFC01FFC0
000FFE00FFE0
0007FC007FC0
0003F8003F80
0001F0003E00
0001C0001C00
000080000800
ENDCHAR
STARTCHAR 00AC
ENCODING 172
SWIDTH 600 0
DWIDTH 55 0
BBX 45 20 5 17
BITMAP
FFFFFFFFFFF8
FFFFFFFFFFF8
FFFFFFFFFFF8
FFFFFFFFFFF8
FFFFFFFFFFF8
FFFFFFFFFFF8
FFFFFFFFFFF8
FFFFFFFFFFF8
FFFFFFFFFFF8
FFFFFFFFFFF8
000000001FF8
000000001FF8
000000001FF8
000000001FF8
000000001FF8
000000001FF8
000000001FF8
000000001FF8
000000001FF8
000000001FF8
ENDCHAR
STARTCHAR 00AD
ENCODING 173
SWIDTH 425 0
DWIDTH 39 0
BBX 28 10 5 24
BITMAP
FFFFFFF0
FFFFFFF0
FFFFFFF0
FFFFFFF0
FFFFFFF0
FFFFFFF0
FFFFFFF0
FFFFFFF0
FFFFFFF0
FFFFFFF0
ENDCHAR
STARTCHAR 00AE
ENCODING 174
SWIDTH 665 0
DWIDTH 61 0
BBX 49 48 6 25
BITMAP
00000FF8000000
0000FFFF800000
0003FFFFE00000
000FFFFFF80000
003FFFFFFC0000
007FFFFFFF0000
00FFFFFFFF8000
01FFFFFFFFC000
03FFF80FFFE000
07FFC001FFF000
07FF00007FF000
0FFE00003FF800
1FF800000FF800
1FF07FF80FFC00
3FF07FFE07FC00
3FE07FFF03FE00
3FC07FFF01FE00
7FC0780F81FF00
7FC0780781FF00
7F80780780FF00
7F807807C0FF00
7F80780780FF00
FF80780780FF00
FF80780F807F80
FF007FFF007F80
FF807FFF007F00
FF807FFE00FF00
7F807FFC00FF00
7F80783C00FF00
7F80783E00FF00
7FC0781E01FF00
3FC0781F01FE00
3FE0780F03FE00
3FE0780F87FE00
1FF07807C7FC00
1FF800000FFC00
0FFC00003FF800
0FFF00007FF000
07FFC001FFF000
03FFF80FFFE000
01FFFFFFFFC000
00FFFFFFFF8000
007FFFFFFF0000
003FFFFFFE0000
000FFFFFF80000
0007FFFFE00000
0000FFFF800000
00001FFC000000
ENDCHAR
STARTCHAR 00AF
ENCODING 175
SWIDTH 512 0
DWIDTH 47 0
BBX 25 10 11 77
BITMAP
FFFFFF80
FFFFFF80
FFFFFF80
FFFFFF80
FFFFFF80
FFFFFF80
FFFFFF80
FFFFFF80
FFFFFF80
FFFFFF80
ENDCHAR
STARTCHAR 00B0
ENCODING 176
SWIDTH 447 0
DWIDTH 41 0
BBX 33 33 3 34
BITMAP
000FF00000
003FFE0000
00FFFF8000
03FFFFC000
07FFFFF000
0FFFFFF800
1FFFFFF800
3FFFFFFC00
3FFFFFFE00
7FFFFFFE00
7FFFFFFF00
7FF81FFF00
FFF007FF00
FFE007FF00
FFE003FF80
FFC003FF80
FFC003FF80
FFC003FF80
FFE003FF80
FFE007FF00
FFF007FF00
FFF81FFF00
7FFFFFFF00
7FFFFFFE00
3FFFFFFE00
3FFFFFFC00
1FFFFFF800
0FFFFFF800
07FFFFF000
03FFFFC000
01FFFF8000
007FFE0000
000FF00000
ENDCHAR
STARTCHAR 00B1
ENCODING 177
SWIDTH 600 0
DWIDTH 55 0
BBX 45 45 5 5
BITMAP
00003FE00000
00003FE00000
00003FE00000
00003FE00000
00003FE00000
00003FE00000
00003FE00000
00003FE00000
00003FE00000
00003FE00000
FFFFFFFFFFF8
FFFFFFFFFFF8
FFFFFFFFFFF8
FFFFFFFFFFF8
FFFFFFFFFFF8
FFFFFFFFFFF8
FFFFFFFFFFF8
FFFFFFFFFFF8
FFFFFFFFFFF8
FFFFFFFFFFF8
00003FE00000
00003FE00000
00003FE00000
00003FE00000
00003FE00000
00003FE00000
00003FE00000
00003FE00000
00003FE00000
00003FE00000
000000000000
000000000000
000000000000
000000000000
000000000000
FFFFFFFFFFF8
FFFFFFFFFFF8
FFFFFFFFFFF8
FFFFFFFFFFF8
FFFFFFFFFFF8
FFFFFFFFFFF8
FFFFFFFFFFF8
FFFFFFFFFFF8
FFFFFFFFFFF8
FFFFFFFFFFF8
ENDCHAR
STARTCHAR 00B2
ENCODING 178
SWIDTH 414 0
DWIDTH 38 0
BBX 29 42 5 25
BITMAP
003FC000
01FFF800
07FFFE00
0FFFFF00
1FFFFF80
3FFFFFC0
7FFFFFE0
7FF9FFE0
FFC03FF0
FF801FF0
FF000FF0
FF000FF0
FF000FF0
FF000FF8
00000FF8
00000FF0
00000FF0
00001FF0
00003FF0
00007FF0
0000FFE0
0001FFC0
0003FFC0
0007FF80
000FFF00
001FFC00
003FF800
007FF000
01FFE000
03FFC000
07FF8000
0FFF0000
1FFE0000
3FF80000
7FF00000
FFFFFFF8
FFFFFFF8
FFFFFFF8
FFFFFFF8
FFFFFFF8
FFFFFFF8
FFFFFFF8
ENDCHAR
STARTCHAR 00B3
ENCODING 179
SWIDTH 414 0
DWIDTH 38 0
BBX 28 42 4 24
BITMAP
7FFFFFE0
7FFFFFE0
7FFFFFE0
7FFFFFE0
7FFFFFE0
7FFFFFE0
7FFFFFE0
00003FE0
0000FFC0
0001FF80
0003FF00
0007FE00
001FFC00
003FF800
007FE000
00FFF000
01FFFC00
01FFFE00
00FFFF00
007FFF80
007FFFC0
003BFFC0
00007FE0
00003FE0
00001FF0
00001FF0
00000FF0
00000FF0
00000FF0
00000FF0
0E000FF0
7F001FF0
FF803FE0
FFC07FE0
7FFBFFC0
7FFFFFC0
3FFFFF80
1FFFFF00
0FFFFE00
07FFFC00
01FFF000
003F8000
ENDCHAR
STARTCHAR 00B4
ENCODING 180
SWIDTH 556 0
DWIDTH 51 0
BBX 16 18 20 73
BITMAP
01FF
03FF
03FE
07FE
07FC
07FC
0FF8
0FF8
1FF8
1FF0
1FF0
3FE0
3FE0
7FE0
7FC0
FFC0
FF80
FF80
ENDCHAR
STARTCHAR 00B5
ENCODING 181
SWIDTH 643 0
DWIDTH 59 0
BBX 47 72 6 -22
BITMAP
FFF800003FFE
FFF800003FFE
FFF800003FFE
FFF800003FFE
FFF800003FFE
FFF800003FFE
FFF800003FFE
FFF800003FFE
FFF800003FFE
FFF800003FFE
FFF800003FFE
FFF800003FFE
FFF800003FFE
FFF800003FFE
FFF800003FFE
FFF800003FFE
FFF800003FFE
FFF800003FFE
FFF800003FFE
FFF800003FFE
FFF800003FFE
FFF800003FFE
FFF800003FFE
FFF800003FFE
FFF800003FFE
FFF800003FFE
FFF800003FFE
FFF800003FFE
FFF800003FFE
FFF800003FFE
FFF800003FFE
FFFC00007FFE
FFFC00007FFE
FFFC00007FFE
FFFE0000FFFE
FFFE0000FFFE
FFFF0001FFFE
FFFF8003FFFE
FFFFC007FFFE
FFFFF01FFFFE
FFFFFFFFFFFE
FFFFFFFFFFFE
FFFFFFFFFFFE
FFFFFFFFFFFE
FFFFFFFFFFFE
FFFFFFFFEFFE
FFFFFFFFCFFE
FFFFFFFF8FFE
FFFFFFFF0FFE
FFFFFFFC0FFE
FFEFFFF00000
FFE07C000000
FFE000000000
FFE000000000
FFE000000000
FFE000000000
FFE000000000
FFE000000000
FFE000000000
FFE000000000
FFE000000000
FFE000000000
FFE000000000
FFE000000000
FFE000000000
FFE000000000
FFE000000000
FFE000000000
FFE000000000
FFE000000000
FFE000000000
FFE000000000
ENDCHAR
STARTCHAR 00B6
ENCODING 182
SWIDTH 741 0
DWIDTH 68 0
BBX 60 79 4 -13
BITMAP
0000FFFFFE00FFF0
000FFFFFFE00FFF0
003FFFFFFE00FFF0
00FFFFFFFE00FFF0
01FFFFFFFE00FFF0
03FFFFFFFE00FFF0
07FFFFFFFE00FFF0
0FFFFFFFFE00FFF0
1FFFFFFFFE00FFF0
1FFFFFFFFE00FFF0
3FFFFFFFFE00FFF0
3FFFFFFFFE00FFF0
7FFFFFFFFE00FFF0
7FFFFFFFFE00FFF0
7FFFFFFFFE00FFF0
FFFFFFFFFE00FFF0
FFFFFFFFFE00FFF0
FFFFFFFFFE00FFF0
FFFFFFFFFE00FFF0
FFFFFFFFFE00FFF0
FFFFFFFFFE00FFF0
FFFFFFFFFE00FFF0
FFFFFFFFFE00FFF0
FFFFFFFFFE00FFF0
FFFFFFFFFE00FFF0
FFFFFFFFFE00FFF0
FFFFFFFFFE00FFF0
FFFFFFFFFE00FFF0
FFFFFFFFFE00FFF0
7FFFFFFFFE00FFF0
7FFFFFFFFE00FFF0
7FFFFFFFFE00FFF0
3FFFFFFFFE00FFF0
3FFFFFFFFE00FFF0
1FFFFFFFFE00FFF0
1FFFFFFFFE00FFF0
0FFFFFFFFE00FFF0
07FFFFFFFE00FFF0
03FFFFFFFE00FFF0
01FFFFFFFE00FFF0
007FFFFFFE00FFF0
001FFFFFFE00FFF0
0007FFFFFE00FFF0
00000FFFFE00FFF0
0000001FFE00FFF0
0000001FFE00FFF0
0000001FFE00FFF0
0000001FFE00FFF0
0000001FFE00FFF0
0000001FFE00FFF0
0000001FFE00FFF0
0000001FFE00FFF0
0000001FFE00FFF0
0000001FFE00FFF0
0000001FFE00FFF0
0000001FFE00FFF0
0000001FFE00FFF0
0000001FFE00FFF0
0000001FFE00FFF0
0000001FFE00FFF0
0000001FFE00FFF0
0000001FFE00FFF0
0000001FFE00FFF0
0000001FFE00FFF0
0000001FFE00FFF0
0000001FFE00FFF0
0000001FFE00FFF0
0000001FFE00FFF0
0000001FFE00FFF0
0000001FFE00FFF0
0000001FFE00FFF0
0000001FFE00FFF0
0000001FFE00FFF0
0000001FFE00FFF0
0000001FFE00FFF0
0000001FFE00FFF0
0000001FFE00FFF0
0000001FFE00FFF0
0000001FFE00FFF0
ENDCHAR
STARTCHAR 00B7
ENCODING 183
SWIDTH 283 0
DWIDTH 26 0
BBX 15 15 5 21
BITMAP
07E0
1FF0
3FF8
3FFC
7FFE
7FFE
7FFE
FFFE
7FFE
7FFE
7FFC
3FFC
1FF8
0FF0
03C0
ENDCHAR
STARTCHAR 00B8
ENCODING 184
SWIDTH 414 0
DWIDTH 38 0
BBX 16 23 11 -22
BITMAP
07F0
07F0
0FE0
0FE0
0FE0
1FF0
1FFC
1FFE
3FFE
0FFF
03FF
01FF
00FF
00FF
01FF
3FFF
3FFF
3FFF
7FFE
7FFC
FFF8
FFF0
3FE0
ENDCHAR
STARTCHAR 00B9
ENCODING 185
SWIDTH 349 0
DWIDTH 32 0
BBX 16 41 5 25
BITMAP
01FF
03FF
0FFF
3FFF
7FFF
FFFF
FFFF
FFFF
FFFF
FEFF
F8FF
E0FF
C0FF
00FF
00FF
00FF
00FF
00FF
00FF
00FF
00FF
00FF
00FF
00FF
00FF
00FF
00FF
00FF
00FF
00FF
00FF
00FF
00FF
00FF
00FF
00FF
00FF
00FF
00FF
00FF
00FF
ENDCHAR
STARTCHAR 00BA
ENCODING 186
SWIDTH 349 0
DWIDTH 32 0
BBX 25 26 4 25
BITMAP
00FF0000
03FFC000
0FFFF000
1FFFF800
3FFFFC00
3FFFFE00
7F81FE00
7F00FF00
FE007F00
FE003F00
FE003F80
FC003F80
FC003F80
FC003F80
FC003F80
FE003F80
FE003F00
FE007F00
7F00FF00
7F81FE00
3FFFFE00
3FFFFC00
1FFFF800
0FFFF000
03FFC000
00FF0000
ENDCHAR
STARTCHAR 00BB
ENCODING 187
SWIDTH 600 0
DWIDTH 55 0
BBX 42 41 6 4
BITMAP
040000400000
0E0000E00000
1F0001F00000
3F8007F80000
FFC00FF80000
FFC01FFC0000
7FE00FFE0000
7FF007FF0000
3FF803FF0000
1FFC01FF8000
0FFC01FFC000
07FE00FFE000
07FF007FF000
03FF803FF000
01FFC01FF800
00FFC01FFC00
007FE00FFE00
007FF007FF00
003FF803FF00
001FF801FF80
000FFC01FFC0
001FF801FF80
003FF803FF00
007FF007FF00
00FFE00FFE00
00FFC01FFC00
01FF801FF800
03FF803FF000
07FF007FF000
0FFE00FFE000
0FFC01FFC000
1FF801FF8000
3FF803FF0000
7FF007FF0000
FFE00FFE0000
FFC01FFC0000
FFC00FF80000
3F8007F00000
1F0001F00000
0E0000E00000
040000400000
ENDCHAR
STARTCHAR 00BC
ENCODING 188
SWIDTH 1058 0
DWIDTH 97 0
BBX 81 67 5 0
BITMAP
0000000000000020000000
01FF000000000070000000
03FF0000000000F8000000
0FFF0000000000FE000000
3FFF0000000001FF000000
7FFF0000000003FF800000
FFFF0000000003FF800000
FFFF0000000007FF000000
FFFF000000000FFE000000
FFFF000000001FFE000000
FEFF000000001FFC000000
F8FF000000003FF8000000
E0FF000000007FF0000000
C0FF000000007FF0000000
00FF00000000FFE0000000
00FF00000001FFC0000000
00FF00000003FFC0000000
00FF00000003FF80000000
00FF00000007FF00000000
00FF0000000FFE00000000
00FF0000000FFE00000000
00FF0000001FFC00000000
00FF0000003FF800000000
00FF0000007FF800000000
00FF0000007FF000000000
00FF000000FFE000FF8000
00FF000001FFC000FF8000
00FF000001FFC001FF0000
00FF000003FF8001FF0000
00FF000007FF0003FE0000
00FF00000FFE0003FE0000
00FF00000FFE0007FC0000
00FF00001FFC0007FC0000
00FF00003FF80007F80000
00FF00003FF8000FF80000
00FF00007FF0000FF80000
00FF0000FFE0001FF00000
00FF0001FFC0001FF00000
00FF0001FFC0003FE00000
00FF0003FF80003FE00000
00FF0007FF00007FC00000
00FF0007FF00007FC00000
0000000FFE0000FF800000
0000001FFC0000FF87F800
0000003FF80001FF07F800
0000003FF80001FF07F800
0000007FF00003FE07F800
000000FFE00003FE07F800
000001FFE00007FC07F800
000001FFC00007FC07F800
000003FF80000FF807F800
000007FF00000FF807F800
000007FF00000FF807F800
00000FFE00001FFFFFFF80
00001FFC00001FFFFFFF80
00003FF800001FFFFFFF80
00003FF800001FFFFFFF80
00007FF000001FFFFFFF80
0000FFE000001FFFFFFF80
0000FFE000001FFFFFFF80
0001FFC00000000007F800
0003FF800000000007F800
0001FF000000000007F800
00007F000000000007F800
00003E000000000007F800
00001C000000000007F800
000004000000000007F800
ENDCHAR
STARTCHAR 00BD
ENCODING 189
SWIDTH 1036 0
DWIDTH 95 0
BBX 86 67 5 0
BITMAP
0000000000000020000000
01FF000000000070000000
03FF0000000000F8000000
0FFF0000000000FE000000
3FFF0000000001FF000000
7FFF0000000003FF800000
FFFF0000000003FF800000
FFFF0000000007FF000000
FFFF000000000FFE000000
FFFF000000000FFE000000
FCFF000000001FFC000000
F8FF000000003FF8000000
E0FF000000007FF0000000
C0FF000000007FF0000000
00FF00000000FFE0000000
00FF00000001FFC0000000
00FF00000003FFC0000000
00FF00000003FF80000000
00FF00000007FF00000000
00FF0000000FFE00000000
00FF0000000FFE00000000
00FF0000001FFC00000000
00FF0000003FF800000000
00FF0000007FF800000000
00FF0000007FF000000000
00FF000000FFE0003FF800
00FF000001FFC000FFFE00
00FF000001FFC003FFFF80
00FF000003FF8007FFFFC0
00FF000007FF000FFFFFE0
00FF00000FFE001FFFFFE0
00FF00000FFE003FFFFFF0
00FF00001FFC003FF83FF0
00FF00003FF8003FE00FF8
00FF00003FF8007FC00FF8
00FF00007FF0007FC007F8
00FF0000FFE0007F8007FC
00FF0001FFC0007F8003FC
00FF0001FFC0007F8003FC
00FF0003FF8000000003FC
00FF0007FF0000000007FC
00FF0007FF0000000007FC
0000000FFE000000000FF8
0000001FFC000000001FF8
0000003FF8000000003FF8
0000003FF8000000007FF0
0000007FF000000000FFE0
000000FFE000000001FFC0
000000FFE000000003FF80
000001FFC000000007FF00
000003FF800000000FFE00
000007FF000000001FFC00
000007FF000000007FF800
00000FFE00000000FFF000
00001FFC00000001FFE000
00001FF800000003FFC000
00003FF800000007FF8000
00007FF00000000FFE0000
0000FFE00000001FFC0000
0000FFE00000003FF80000
0001FFC00000007FFFFFFC
0003FF800000007FFFFFFC
0001FF000000007FFFFFFC
0000FF000000007FFFFFFC
00003E000000007FFFFFFC
00001C000000007FFFFFFC
00000C000000007FFFFFFC
ENDCHAR
STARTCHAR 00BE
ENCODING 190
SWIDTH 1047 0
DWIDTH 96 0
BBX 86 67 4 0
BITMAP
0000000000000000800000
7FFFFFE000000001C00000
7FFFFFE000000001F00000
7FFFFFE000000003F80000
7FFFFFE000000007FC0000
7FFFFFE000000007FE0000
7FFFFFE00000000FFE0000
7FFFFFE00000001FFC0000
00003FE00000003FFC0000
0000FFC00000003FF80000
0001FF800000007FF00000
0003FF00000000FFE00000
0007FE00000000FFE00000
001FFC00000001FFC00000
003FF800000003FF800000
007FE000000007FF800000
00FFF000000007FF000000
01FFFC0000000FFE000000
01FFFE0000001FFC000000
00FFFF0000001FFC000000
007FFF8000003FF8000000
007FFFC000007FF0000000
003BFFC00000FFF0000000
00007FE00000FFE0000000
00003FE00001FFC0000000
00001FF00003FF8003FE00
00001FF00003FF8007FC00
00000FF00007FF0007FC00
00000FF0000FFE000FF800
00000FF0001FFC000FF800
00000FF0001FFC001FF000
0E000FF0003FF8001FF000
7F001FF0007FF0003FE000
FF803FE0007FF0003FE000
FFC07FE000FFE0007FC000
7FFBFFC001FFC0007FC000
7FFFFFC003FF8000FF8000
3FFFFF8003FF8000FF8000
1FFFFF0007FF0000FF8000
0FFFFE000FFE0001FF0000
07FFFC001FFE0001FF0000
01FFF0001FFC0003FE0000
003F80003FF80003FE0000
000000007FF00007FC1FE0
000000007FF00007FC1FE0
00000000FFE0000FF81FE0
00000001FFC0000FF81FE0
00000003FF80001FF01FE0
00000003FF80001FF01FE0
00000007FF00003FE01FE0
0000000FFE00003FE01FE0
0000000FFE00007FC01FE0
0000001FFC00007FC01FE0
0000003FF800007FFFFFFC
0000007FF000007FFFFFFC
0000007FF000007FFFFFFC
000000FFE000007FFFFFFC
000001FFC000007FFFFFFC
000001FFC000007FFFFFFC
000003FF8000007FFFFFFC
000007FF00000000001FE0
00000FFE00000000001FE0
000003FE00000000001FE0
000001FC00000000001FE0
000000F800000000001FE0
0000007800000000001FE0
0000001000000000001FE0
ENDCHAR
STARTCHAR 00BF
ENCODING 191
SWIDTH 567 0
DWIDTH 52 0
BBX 42 68 5 -18
BITMAP
0001FFF00000
0001FFF00000
0001FFF00000
0001FFF00000
0001FFF00000
0001FFF00000
0001FFF00000
0001FFF00000
0001FFF00000
0001FFF00000
0001FFF00000
0001FFF00000
0001FFF00000
000000000000
000000000000
000000000000
000000000000
000000000000
0001FFF80000
0001FFF00000
0001FFF00000
0001FFF00000
0001FFF00000
0003FFF00000
0003FFF00000
0007FFE00000
0007FFE00000
000FFFE00000
001FFFC00000
003FFFC00000
007FFF800000
00FFFF800000
01FFFF000000
03FFFE000000
07FFFC000000
07FFF8000000
0FFFF0000000
1FFFE0000000
1FFFC0000000
3FFF80000000
7FFF00000000
7FFE00000000
7FFC00000000
FFFC00000000
FFF800000000
FFF800000000
FFF800000000
FFF800000000
FFF800000000
FFF80007FFC0
FFF80007FFC0
FFF8000FFFC0
FFFC000FFF80
FFFC001FFF80
FFFE003FFF80
7FFF80FFFF00
7FFFFFFFFF00
3FFFFFFFFE00
3FFFFFFFFE00
1FFFFFFFFC00
0FFFFFFFF800
0FFFFFFFF800
07FFFFFFF000
01FFFFFFC000
00FFFFFF8000
003FFFFE0000
0007FFF80000
00003F800000
ENDCHAR
STARTCHAR 00C0
ENCODING 192
SWIDTH 687 0
DWIDTH 63 0
BBX 59 91 2 0
BITMAP
0000FF8000000000
0000FFC000000000
00007FC000000000
00007FC000000000
00003FE000000000
00003FE000000000
00003FF000000000
00001FF000000000
00001FF800000000
00000FF800000000
00000FF800000000
000007FC00000000
000007FC00000000
000007FE00000000
000003FE00000000
000003FF00000000
000001FF00000000
000001FF00000000
0000000000000000
0000000000000000
0000000000000000
0000000000000000
0000000000000000
0000000000000000
0000000000000000
00000FFFFE000000
00000FFFFE000000
00001FFFFE000000
00001FFFFF000000
00001FFFFF000000
00003FFFFF000000
00003FFFFF800000
00003FFFFF800000
00007FFFFF800000
00007FFFFFC00000
00007FFFFFC00000
0000FFFFFFC00000
0000FFFBFFC00000
0000FFFBFFE00000
0000FFFBFFE00000
0001FFF1FFE00000
0001FFF1FFF00000
0001FFF1FFF00000
0003FFE0FFF00000
0003FFE0FFF80000
0003FFE0FFF80000
0007FFC0FFF80000
0007FFC07FF80000
0007FFC07FFC0000
0007FF807FFC0000
000FFF803FFC0000
000FFF803FFE0000
000FFF803FFE0000
001FFF001FFE0000
001FFF001FFF0000
001FFF001FFF0000
003FFE000FFF0000
003FFE000FFF8000
003FFE000FFF8000
007FFC000FFF8000
007FFC0007FF8000
007FFC0007FFC000
007FF80007FFC000
00FFF80003FFC000
00FFF80003FFE000
00FFFFFFFFFFE000
01FFFFFFFFFFE000
01FFFFFFFFFFF000
01FFFFFFFFFFF000
03FFFFFFFFFFF000
03FFFFFFFFFFF800
03FFFFFFFFFFF800
07FFFFFFFFFFF800
07FFFFFFFFFFF800
07FFFFFFFFFFFC00
07FFFFFFFFFFFC00
0FFFFFFFFFFFFC00
0FFF8000003FFE00
0FFF0000003FFE00
1FFF0000001FFE00
1FFF0000001FFF00
1FFF0000001FFF00
3FFE0000001FFF00
3FFE0000000FFF00
3FFE0000000FFF80
3FFC0000000FFF80
7FFC00000007FF80
7FFC00000007FFC0
7FF800000007FFC0
FFF800000007FFC0
FFF800000003FFE0
ENDCHAR
STARTCHAR 00C1
ENCODING 193
SWIDTH 687 0
DWIDTH 63 0
BBX 59 91 2 0
BITMAP
000000007FE00000
000000007FC00000
000000007FC00000
00000000FF800000
00000000FF800000
00000001FF800000
00000001FF000000
00000003FF000000
00000003FE000000
00000003FE000000
00000007FC000000
00000007FC000000
0000000FFC000000
0000000FF8000000
0000001FF8000000
0000001FF0000000
0000001FF0000000
0000003FE0000000
0000000000000000
0000000000000000
0000000000000000
0000000000000000
0000000000000000
0000000000000000
0000000000000000
00000FFFFE000000
00000FFFFE000000
00001FFFFE000000
00001FFFFF000000
00001FFFFF000000
00003FFFFF000000
00003FFFFF800000
00003FFFFF800000
00007FFFFF800000
00007FFFFFC00000
00007FFFFFC00000
0000FFFFFFC00000
0000FFFFFFC00000
0000FFFBFFE00000
0000FFF3FFE00000
0001FFF3FFE00000
0001FFF1FFF00000
0001FFE1FFF00000
0003FFE1FFF00000
0003FFE0FFF80000
0003FFC0FFF80000
0007FFC0FFF80000
0007FFC07FF80000
0007FFC07FFC0000
0007FF807FFC0000
000FFF807FFC0000
000FFF803FFE0000
000FFF003FFE0000
001FFF003FFE0000
001FFF001FFF0000
001FFE001FFF0000
003FFE001FFF0000
003FFE000FFF8000
003FFC000FFF8000
007FFC000FFF8000
007FFC0007FF8000
007FFC0007FFC000
007FF80007FFC000
00FFF80007FFC000
00FFF80003FFE000
00FFFFFFFFFFE000
01FFFFFFFFFFE000
01FFFFFFFFFFF000
01FFFFFFFFFFF000
03FFFFFFFFFFF000
03FFFFFFFFFFF800
03FFFFFFFFFFF800
07FFFFFFFFFFF800
07FFFFFFFFFFF800
07FFFFFFFFFFFC00
07FFFFFFFFFFFC00
0FFFFFFFFFFFFC00
0FFF8000003FFE00
0FFF0000003FFE00
1FFF0000003FFE00
1FFF0000001FFF00
1FFE0000001FFF00
3FFE0000001FFF00
3FFE0000000FFF00
3FFE0000000FFF80
3FFC0000000FFF80
7FFC00000007FF80
7FFC00000007FFC0
7FF800000007FFC0
FFF800000007FFC0
FFF800000003FFE0
ENDCHAR
STARTCHAR 00C2
ENCODING 194
SWIDTH 687 0
DWIDTH 63 0
BBX 59 88 2 0
BITMAP
000000FFE0000000
000001FFF0000000
000003FFF0000000
000007FFF8000000
00000FFFFC000000
00001FFFFE000000
00003FFFFF000000
00007FFBFF800000
00007FF3FFC00000
0000FFE1FFE00000
0001FFC0FFE00000
0003FF807FF00000
0007FF003FF80000
000FFF001FFC0000
001FFE001FFE0000
0000000000000000
0000000000000000
0000000000000000
0000000000000000
0000000000000000
0000000000000000
0000000000000000
00000FFFFE000000
00000FFFFE000000
00001FFFFE000000
00001FFFFF000000
00001FFFFF000000
00003FFFFF000000
00003FFFFF800000
00003FFFFF800000
00007FFFFF800000
00007FFFFFC00000
00007FFFFFC00000
0000FFFFFFC00000
0000FFFFFFC00000
0000FFFBFFE00000
0000FFF3FFE00000
0001FFF3FFE00000
0001FFF1FFF00000
0001FFE1FFF00000
0003FFE1FFF00000
0003FFE0FFF80000
0003FFC0FFF80000
0007FFC0FFF80000
0007FFC07FF80000
0007FFC07FFC0000
0007FF807FFC0000
000FFF807FFC0000
000FFF803FFE0000
000FFF003FFE0000
001FFF003FFE0000
001FFF001FFF0000
001FFE001FFF0000
003FFE001FFF0000
003FFE000FFF8000
003FFC000FFF8000
007FFC000FFF8000
007FFC0007FF8000
007FFC0007FFC000
007FF80007FFC000
00FFF80007FFC000
00FFF80003FFE000
00FFFFFFFFFFE000
01FFFFFFFFFFE000
01FFFFFFFFFFF000
01FFFFFFFFFFF000
03FFFFFFFFFFF000
03FFFFFFFFFFF800
03FFFFFFFFFFF800
07FFFFFFFFFFF800
07FFFFFFFFFFF800
07FFFFFFFFFFFC00
07FFFFFFFFFFFC00
0FFFFFFFFFFFFC00
0FFF8000003FFE00
0FFF0000003FFE00
1FFF0000003FFE00
1FFF0000001FFF00
1FFE0000001FFF00
3FFE0000001FFF00
3FFE0000000FFF00
3FFE0000000FFF80
3FFC0000000FFF80
7FFC00000007FF80
7FFC00000007FFC0
7FF800000007FFC0
FFF800000007FFC0
FFF800000003FFE0
ENDCHAR
STARTCHAR 00C3
ENCODING 195
SWIDTH 687 0
DWIDTH 63 0
BBX 59 91 2 0
BITMAP
00003F0000000000
0000FFE000000000
0001FFF003FC0000
0003FFFC03FC0000
0007FFFE03FC0000
0007FFFF83FC0000
0007FFFFC7FC0000
0007FFFFFFFC0000
0007FFFFFFFC0000
000FF8FFFFFC0000
0007F83FFFFC0000
0007F80FFFF80000
0007F807FFF80000
0007F803FFF00000
00000000FFE00000
000000001F000000
0000000000000000
0000000000000000
0000000000000000
0000000000000000
0000000000000000
0000000000000000
0000000000000000
0000000000000000
0000000000000000
00000FFFFE000000
00000FFFFE000000
00001FFFFE000000
00001FFFFF000000
00001FFFFF000000
00003FFFFF000000
00003FFFFF800000
00003FFFFF800000
00007FFFFF800000
00007FFFFFC00000
00007FFFFFC00000
0000FFFFFFC00000
0000FFFFFFC00000
0000FFFBFFE00000
0000FFF3FFE00000
0001FFF3FFE00000
0001FFF1FFF00000
0001FFE1FFF00000
0003FFE1FFF00000
0003FFE0FFF80000
0003FFC0FFF80000
0007FFC0FFF80000
0007FFC07FF80000
0007FFC07FFC0000
0007FF807FFC0000
000FFF807FFC0000
000FFF803FFE0000
000FFF003FFE0000
001FFF003FFE0000
001FFF001FFF0000
001FFE001FFF0000
003FFE001FFF0000
003FFE000FFF8000
003FFC000FFF8000
007FFC000FFF8000
007FFC0007FF8000
007FFC0007FFC000
007FF80007FFC000
00FFF80007FFC000
00FFF80003FFE000
00FFFFFFFFFFE000
01FFFFFFFFFFE000
01FFFFFFFFFFF000
01FFFFFFFFFFF000
03FFFFFFFFFFF000
03FFFFFFFFFFF800
03FFFFFFFFFFF800
07FFFFFFFFFFF800
07FFFFFFFFFFF800
07FFFFFFFFFFFC00
07FFFFFFFFFFFC00
0FFFFFFFFFFFFC00
0FFF8000003FFE00
0FFF0000003FFE00
1FFF0000003FFE00
1FFF0000001FFF00
1FFE0000001FFF00
3FFE0000001FFF00
3FFE0000000FFF00
3FFE0000000FFF80
3FFC0000000FFF80
7FFC00000007FF80
7FFC00000007FFC0
7FF800000007FFC0
FFF800000007FFC0
FFF800000003FFE0
ENDCHAR
STARTCHAR 00C4
ENCODING 196
SWIDTH 687 0
DWIDTH 63 0
BBX 59 84 2 0
BITMAP
0003FF803FF80000
0003FF803FF80000
0003FF803FF80000
0003FF803FF80000
0003FF803FF80000
0003FF803FF80000
0003FF803FF80000
0003FF803FF80000
0003FF803FF80000
0003FF803FF80000
0003FF803FF80000
0000000000000000
0000000000000000
0000000000000000
0000000000000000
0000000000000000
0000000000000000
0000000000000000
00000FFFFE000000
00000FFFFE000000
00001FFFFE000000
00001FFFFF000000
00001FFFFF000000
00003FFFFF000000
00003FFFFF800000
00003FFFFF800000
00007FFFFF800000
00007FFFFFC00000
00007FFFFFC00000
0000FFFFFFC00000
0000FFFFFFC00000
0000FFFBFFE00000
0000FFF3FFE00000
0001FFF3FFE00000
0001FFF1FFF00000
0001FFE1FFF00000
0003FFE1FFF00000
0003FFE0FFF80000
0003FFC0FFF80000
0007FFC0FFF80000
0007FFC07FF80000
0007FFC07FFC0000
0007FF807FFC0000
000FFF807FFC0000
000FFF803FFE0000
000FFF003FFE0000
001FFF003FFE0000
001FFF001FFF0000
001FFE001FFF0000
003FFE001FFF0000
003FFE000FFF8000
003FFC000FFF8000
007FFC000FFF8000
007FFC0007FF8000
007FFC0007FFC000
007FF80007FFC000
00FFF80007FFC000
00FFF80003FFE000
00FFFFFFFFFFE000
01FFFFFFFFFFE000
01FFFFFFFFFFF000
01FFFFFFFFFFF000
03FFFFFFFFFFF000
03FFFFFFFFFFF800
03FFFFFFFFFFF800
07FFFFFFFFFFF800
07FFFFFFFFFFF800
07FFFFFFFFFFFC00
07FFFFFFFFFFFC00
0FFFFFFFFFFFFC00
0FFF8000003FFE00
0FFF0000003FFE00
1FFF0000003FFE00
1FFF0000001FFF00
1FFE0000001FFF00
3FFE0000001FFF00
3FFE0000000FFF00
3FFE0000000FFF80
3FFC0000000FFF80
7FFC00000007FF80
7FFC00000007FFC0
7FF800000007FFC0
FFF800000007FFC0
FFF800000003FFE0
ENDCHAR
STARTCHAR 00C5
ENCODING 197
SWIDTH 687 0
DWIDTH 63 0
BBX 59 96 2 0
BITMAP
0000003F80000000
000001FFE0000000
000003FFF8000000
000007FFFC000000
00000FFFFE000000
00001FFFFF000000
00003FFFFF000000
00003FFBFF800000
00003FC0FF800000
00007F807F800000
00007F803FC00000
00007F003FC00000
00007F003FC00000
00007F003FC00000
00007F803FC00000
00007F807F800000
00003FC0FF800000
00003FFBFF800000
00003FFFFF000000
00001FFFFF000000
00000FFFFE000000
000007FFFC000000
000003FFF8000000
000001FFE0000000
0000003F80000000
0000000000000000
0000000000000000
0000000000000000
0000000000000000
0000000000000000
00000FFFFE000000
00000FFFFE000000
00001FFFFE000000
00001FFFFF000000
00001FFFFF000000
00003FFFFF000000
00003FFFFF800000
00003FFFFF800000
00007FFFFF800000
00007FFFFFC00000
00007FFFFFC00000
0000FFFFFFC00000
0000FFFFFFC00000
0000FFFBFFE00000
0000FFF3FFE00000
0001FFF3FFE00000
0001FFF1FFF00000
0001FFE1FFF00000
0003FFE1FFF00000
0003FFE0FFF80000
0003FFC0FFF80000
0007FFC0FFF80000
0007FFC07FF80000
0007FFC07FFC0000
0007FF807FFC0000
000FFF807FFC0000
000FFF803FFE0000
000FFF003FFE0000
001FFF003FFE0000
001FFF001FFF0000
001FFE001FFF0000
003FFE001FFF0000
003FFE000FFF8000
003FFC000FFF8000
007FFC000FFF8000
007FFC0007FF8000
007FFC0007FFC000
007FF80007FFC000
00FFF80007FFC000
00FFF80003FFE000
00FFFFFFFFFFE000
01FFFFFFFFFFE000
01FFFFFFFFFFF000
01FFFFFFFFFFF000
03FFFFFFFFFFF000
03FFFFFFFFFFF800
03FFFFFFFFFFF800
07FFFFFFFFFFF800
07FFFFFFFFFFF800
07FFFFFFFFFFFC00
07FFFFFFFFFFFC00
0FFFFFFFFFFFFC00
0FFF8000003FFE00
0FFF0000003FFE00
1FFF0000003FFE00
1FFF0000001FFF00
1FFE0000001FFF00
3FFE0000001FFF00
3FFE0000000FFF00
3FFE0000000FFF80
3FFC0000000FFF80
7FFC00000007FF80
7FFC00000007FFC0
7FF800000007FFC0
FFF800000007FFC0
FFF800000003FFE0
ENDCHAR
STARTCHAR 00C6
ENCODING 198
SWIDTH 949 0
DWIDTH 87 0
BBX 80 66 2 0
BITMAP
00000FFFFFFFFFFFFFFF
00000FFFFFFFFFFFFFFF
00001FFFFFFFFFFFFFFF
00001FFFFFFFFFFFFFFF
00001FFFFFFFFFFFFFFF
00003FFFFFFFFFFFFFFF
00003FFFFFFFFFFFFFFF
00003FFFFFFFFFFFFFFF
00007FFFFFFFFFFFFFFF
00007FFFFFFFFFFFFFFF
00007FFFFFFFFFFFFFFF
0000FFFFFFFFFFFFFFFF
0000FFF807FF80000000
0000FFF807FF80000000
0000FFF007FF80000000
0001FFF007FF80000000
0001FFF007FF80000000
0001FFE007FF80000000
0003FFE007FF80000000
0003FFE007FF80000000
0003FFC007FF80000000
0007FFC007FF80000000
0007FFC007FF80000000
0007FFC007FF80000000
0007FF8007FF80000000
000FFF8007FF80000000
000FFF8007FFFFFFFFE0
000FFF0007FFFFFFFFE0
001FFF0007FFFFFFFFE0
001FFF0007FFFFFFFFE0
001FFE0007FFFFFFFFE0
003FFE0007FFFFFFFFE0
003FFE0007FFFFFFFFE0
003FFC0007FFFFFFFFE0
007FFC0007FFFFFFFFE0
007FFC0007FFFFFFFFE0
007FFC0007FFFFFFFFE0
007FF80007FFFFFFFFE0
00FFF80007FF80000000
00FFF80007FF80000000
00FFFFFFFFFF80000000
01FFFFFFFFFF80000000
01FFFFFFFFFF80000000
01FFFFFFFFFF80000000
03FFFFFFFFFF80000000
03FFFFFFFFFF80000000
03FFFFFFFFFF80000000
07FFFFFFFFFF80000000
07FFFFFFFFFF80000000
07FFFFFFFFFF80000000
07FFFFFFFFFF80000000
0FFFFFFFFFFF80000000
0FFF800007FF80000000
0FFF000007FF80000000
1FFF000007FFFFFFFFFF
1FFF000007FFFFFFFFFF
1FFE000007FFFFFFFFFF
3FFE000007FFFFFFFFFF
3FFE000007FFFFFFFFFF
3FFE000007FFFFFFFFFF
3FFC000007FFFFFFFFFF
7FFC000007FFFFFFFFFF
7FFC000007FFFFFFFFFF
7FF8000007FFFFFFFFFF
FFF8000007FFFFFFFFFF
FFF8000007FFFFFFFFFF
ENDCHAR
STARTCHAR 00C7
ENCODING 199
SWIDTH 741 0
DWIDTH 68 0
BBX 62 89 3 -22
BITMAP
0000003FFC000000
000007FFFFC00000
00003FFFFFF80000
0000FFFFFFFE0000
0003FFFFFFFF8000
0007FFFFFFFFE000
001FFFFFFFFFF000
003FFFFFFFFFF800
007FFFFFFFFFFC00
00FFFFFFFFFFFE00
01FFFFFFFFFFFF00
01FFFFFFFFFFFF80
03FFFFC003FFFFC0
07FFFE0000FFFFC0
07FFF800003FFFE0
0FFFF000001FFFE0
1FFFE0000007FFF0
1FFFC0000003FFF0
1FFF80000003FFF8
3FFF00000001FFF8
3FFF00000000FFFC
3FFE00000000FFE0
7FFE00000000FF00
7FFC000000007000
7FFC000000000000
7FFC000000000000
FFFC000000000000
FFF8000000000000
FFF8000000000000
FFF8000000000000
FFF8000000000000
FFF8000000000000
FFF8000000000000
FFF8000000000000
FFF8000000000000
FFF8000000000000
FFF8000000000000
FFF8000000000000
FFF8000000000000
FFF8000000000000
FFF8000000000000
FFFC000000000000
FFFC000000000000
7FFC000000000000
7FFC000000006000
7FFE000000007E00
7FFE00000000FFC0
3FFF00000000FFFC
3FFF00000001FFF8
3FFF80000001FFF8
1FFFC0000003FFF8
1FFFC0000007FFF0
0FFFF000000FFFF0
0FFFF800001FFFE0
07FFFE00007FFFC0
03FFFF8003FFFFC0
03FFFFFEFFFFFF80
01FFFFFFFFFFFF00
00FFFFFFFFFFFE00
007FFFFFFFFFFC00
003FFFFFFFFFF800
001FFFFFFFFFF000
0007FFFFFFFFE000
0003FFFFFFFF8000
0000FFFFFFFF0000
00003FFFFFFC0000
000007FFFFE00000
000000FFFE000000
0000000FE0000000
0000000FE0000000
0000000FF0000000
0000001FF8000000
0000001FFC000000
0000001FFE000000
0000003FFF000000
00000007FF000000
00000001FF000000
00000000FF000000
00000000FF800000
00000000FF000000
00000013FF000000
0000003FFF000000
0000003FFF000000
0000003FFE000000
0000007FFE000000
0000007FFC000000
000000FFF8000000
0000007FF0000000
0000001FC0000000
ENDCHAR
STARTCHAR 00C8
ENCODING 200
SWIDTH 589 0
DWIDTH 54 0
BBX 44 91 6 0
BITMAP
001FF0000000
001FF0000000
001FF8000000
000FF8000000
000FFC000000
0007FC000000
0007FC000000
0003FE000000
0003FE000000
0003FF000000
0001FF000000
0001FF800000
0000FF800000
0000FF800000
00007FC00000
00007FC00000
00007FE00000
00003FE00000
000000000000
000000000000
000000000000
000000000000
000000000000
000000000000
000000000000
FFFFFFFFFFF0
FFFFFFFFFFF0
FFFFFFFFFFF0
FFFFFFFFFFF0
FFFFFFFFFFF0
FFFFFFFFFFF0
FFFFFFFFFFF0
FFFFFFFFFFF0
FFFFFFFFFFF0
FFFFFFFFFFF0
FFFFFFFFFFF0
FFFFFFFFFFF0
FFF800000000
FFF800000000
FFF800000000
FFF800000000
FFF800000000
FFF800000000
FFF800000000
FFF800000000
FFF800000000
FFF800000000
FFF800000000
FFF800000000
FFF800000000
FFF800000000
FFFFFFFFFC00
FFFFFFFFFC00
FFFFFFFFFC00
FFFFFFFFFC00
FFFFFFFFFC00
FFFFFFFFFC00
FFFFFFFFFC00
FFFFFFFFFC00
FFFFFFFFFC00
FFFFFFFFFC00
FFFFFFFFFC00
FFFFFFFFFC00
FFF800000000
FFF800000000
FFF800000000
FFF800000000
FFF800000000
FFF800000000
FFF800000000
FFF800000000
FFF800000000
FFF800000000
FFF800000000
FFF800000000
FFF800000000
FFF800000000
FFF800000000
FFF800000000
FFFFFFFFFFF0
FFFFFFFFFFF0
FFFFFFFFFFF0
FFFFFFFFFFF0
FFFFFFFFFFF0
FFFFFFFFFFF0
FFFFFFFFFFF0
FFFFFFFFFFF0
FFFFFFFFFFF0
FFFFFFFFFFF0
FFFFFFFFFFF0
FFFFFFFFFFF0
ENDCHAR
STARTCHAR 00C9
ENCODING 201
SWIDTH 589 0
DWIDTH 54 0
BBX 44 91 6 0
BITMAP
0000003FE000
0000003FE000
0000007FE000
0000007FC000
000000FFC000
000000FF8000
000000FF8000
000001FF0000
000001FF0000
000003FF0000
000003FE0000
000007FE0000
000007FC0000
000007FC0000
00000FF80000
00000FF80000
00001FF80000
00001FF00000
000000000000
000000000000
000000000000
000000000000
000000000000
000000000000
000000000000
FFFFFFFFFFF0
FFFFFFFFFFF0
FFFFFFFFFFF0
FFFFFFFFFFF0
FFFFFFFFFFF0
FFFFFFFFFFF0
FFFFFFFFFFF0
FFFFFFFFFFF0
FFFFFFFFFFF0
FFFFFFFFFFF0
FFFFFFFFFFF0
FFFFFFFFFFF0
FFF800000000
FFF800000000
FFF800000000
FFF800000000
FFF800000000
FFF800000000
FFF800000000
FFF800000000
FFF800000000
FFF800000000
FFF800000000
FFF800000000
FFF800000000
FFF800000000
FFFFFFFFFC00
FFFFFFFFFC00
FFFFFFFFFC00
FFFFFFFFFC00
FFFFFFFFFC00
FFFFFFFFFC00
FFFFFFFFFC00
FFFFFFFFFC00
FFFFFFFFFC00
FFFFFFFFFC00
FFFFFFFFFC00
FFFFFFFFFC00
FFF800000000
FFF800000000
FFF800000000
FFF800000000
FFF800000000
FFF800000000
FFF800000000
FFF800000000
FFF800000000
FFF800000000
FFF800000000
FFF800000000
FFF800000000
FFF800000000
FFF800000000
FFF800000000
FFFFFFFFFFF0
FFFFFFFFFFF0
FFFFFFFFFFF0
FFFFFFFFFFF0
FFFFFFFFFFF0
FFFFFFFFFFF0
FFFFFFFFFFF0
FFFFFFFFFFF0
FFFFFFFFFFF0
FFFFFFFFFFF0
FFFFFFFFFFF0
FFFFFFFFFFF0
ENDCHAR
STARTCHAR 00CA
ENCODING 202
SWIDTH 589 0
DWIDTH 54 0
BBX 44 88 6 0
BITMAP
0000FFE00000
0001FFF00000
0003FFF80000
0007FFFC0000
000FFFFC0000
001FFFFE0000
001FFFFF0000
003FFBFF8000
007FF1FFC000
00FFE1FFE000
01FFC0FFF000
03FF807FF000
07FF803FF800
0FFF001FFC00
0FFE000FFE00
100000000000
000000000000
000000000000
000000000000
000000000000
000000000000
000000000000
FFFFFFFFFFF0
FFFFFFFFFFF0
FFFFFFFFFFF0
FFFFFFFFFFF0
FFFFFFFFFFF0
FFFFFFFFFFF0
FFFFFFFFFFF0
FFFFFFFFFFF0
FFFFFFFFFFF0
FFFFFFFFFFF0
FFFFFFFFFFF0
FFFFFFFFFFF0
FFF800000000
FFF800000000
FFF800000000
FFF800000000
FFF800000000
FFF800000000
FFF800000000
FFF800000000
FFF800000000
FFF800000000
FFF800000000
FFF800000000
FFF800000000
FFF800000000
FFFFFFFFFC00
FFFFFFFFFC00
FFFFFFFFFC00
FFFFFFFFFC00
FFFFFFFFFC00
FFFFFFFFFC00
FFFFFFFFFC00
FFFFFFFFFC00
FFFFFFFFFC00
FFFFFFFFFC00
FFFFFFFFFC00
FFFFFFFFFC00
FFF800000000
FFF800000000
FFF800000000
FFF800000000
FFF800000000
FFF800000000
FFF800000000
FFF800000000
FFF800000000
FFF800000000
FFF800000000
FFF800000000
FFF800000000
FFF800000000
FFF800000000
FFF800000000
FFFFFFFFFFF0
FFFFFFFFFFF0
FFFFFFFFFFF0
FFFFFFFFFFF0
FFFFFFFFFFF0
FFFFFFFFFFF0
FFFFFFFFFFF0
FFFFFFFFFFF0
FFFFFFFFFFF0
FFFFFFFFFFF0
FFFFFFFFFFF0
FFFFFFFFFFF0
ENDCHAR
STARTCHAR 00CB
ENCODING 203
SWIDTH 589 0
DWIDTH 54 0
BBX 44 84 6 0
BITMAP
01FFC03FF800
01FFC03FF800
01FFC03FF800
01FFC03FF800
01FFC03FF800
01FFC03FF800
01FFC03FF800
01FFC03FF800
01FFC03FF800
01FFC03FF800
01FFC03FF800
000000000000
000000000000
000000000000
000000000000
000000000000
000000000000
000000000000
FFFFFFFFFFF0
FFFFFFFFFFF0
FFFFFFFFFFF0
FFFFFFFFFFF0
FFFFFFFFFFF0
FFFFFFFFFFF0
FFFFFFFFFFF0
FFFFFFFFFFF0
FFFFFFFFFFF0
FFFFFFFFFFF0
FFFFFFFFFFF0
FFFFFFFFFFF0
FFF800000000
FFF800000000
FFF800000000
FFF800000000
FFF800000000
FFF800000000
FFF800000000
FFF800000000
FFF800000000
FFF800000000
FFF800000000
FFF800000000
FFF800000000
FFF800000000
FFFFFFFFFC00
FFFFFFFFFC00
FFFFFFFFFC00
FFFFFFFFFC00
FFFFFFFFFC00
FFFFFFFFFC00
FFFFFFFFFC00
FFFFFFFFFC00
FFFFFFFFFC00
FFFFFFFFFC00
FFFFFFFFFC00
FFFFFFFFFC00
FFF800000000
FFF800000000
FFF800000000
FFF800000000
FFF800000000
FFF800000000
FFF800000000
FFF800000000
FFF800000000
FFF800000000
FFF800000000
FFF800000000
FFF800000000
FFF800000000
FFF800000000
FFF800000000
FFFFFFFFFFF0
FFFFFFFFFFF0
FFFFFFFFFFF0
FFFFFFFFFFF0
FFFFFFFFFFF0
FFFFFFFFFFF0
FFFFFFFFFFF0
FFFFFFFFFFF0
FFFFFFFFFFF0
FFFFFFFFFFF0
FFFFFFFFFFF0
FFFFFFFFFFF0
ENDCHAR
STARTCHAR 00CC
ENCODING 204
SWIDTH 294 0
DWIDTH 27 0
BBX 19 91 1 0
BITMAP
FFC000
7FC000
7FC000
3FE000
3FE000
3FF000
1FF000
1FF800
0FF800
0FF800
07FC00
07FC00
07FE00
03FE00
03FF00
01FF00
01FF00
00FF80
000000
000000
000000
000000
000000
000000
000000
03FFE0
03FFE0
03FFE0
03FFE0
03FFE0
03FFE0
03FFE0
03FFE0
03FFE0
03FFE0
03FFE0
03FFE0
03FFE0
03FFE0
03FFE0
03FFE0
03FFE0
03FFE0
03FFE0
03FFE0
03FFE0
03FFE0
03FFE0
03FFE0
03FFE0
03FFE0
03FFE0
03FFE0
03FFE0
03FFE0
03FFE0
03FFE0
03FFE0
03FFE0
03FFE0
03FFE0
03FFE0
03FFE0
03FFE0
03FFE0
03FFE0
03FFE0
03FFE0
03FFE0
03FFE0
03FFE0
03FFE0
03FFE0
03FFE0
03FFE0
03FFE0
03FFE0
03FFE0
03FFE0
03FFE0
03FFE0
03FFE0
03FFE0
03FFE0
03FFE0
03FFE0
03FFE0
03FFE0
03FFE0
03FFE0
03FFE0
ENDCHAR
STARTCHAR 00CD
ENCODING 205
SWIDTH 294 0
DWIDTH 27 0
BBX 19 91 7 0
BITMAP
003FE0
007FC0
007FC0
00FFC0
00FF80
01FF80
01FF00
01FF00
03FE00
03FE00
07FE00
07FC00
0FFC00
0FF800
0FF800
1FF000
1FF000
3FF000
000000
000000
000000
000000
000000
000000
000000
FFF800
FFF800
FFF800
FFF800
FFF800
FFF800
FFF800
FFF800
FFF800
FFF800
FFF800
FFF800
FFF800
FFF800
FFF800
FFF800
FFF800
FFF800
FFF800
FFF800
FFF800
FFF800
FFF800
FFF800
FFF800
FFF800
FFF800
FFF800
FFF800
FFF800
FFF800
FFF800
FFF800
FFF800
FFF800
FFF800
FFF800
FFF800
FFF800
FFF800
FFF800
FFF800
FFF800
FFF800
FFF800
FFF800
FFF800
FFF800
FFF800
FFF800
FFF800
FFF800
FFF800
FFF800
FFF800
FFF800
FFF800
FFF800
FFF800
FFF800
FFF800
FFF800
FFF800
FFF800
FFF800
FFF800
ENDCHAR
STARTCHAR 00CE
ENCODING 206
SWIDTH 294 0
DWIDTH 27 0
BBX 35 88 -4 0
BITMAP
000FFE0000
001FFF0000
003FFF8000
007FFFC000
00FFFFC000
01FFFFE000
01FFFFF000
03FFBFF800
07FF1FFC00
0FFE0FFE00
1FFC0FFF00
3FFC07FF80
7FF803FF80
FFF001FFC0
FFE000FFE0
0000000000
0000000000
0000000000
0000000000
0000000000
0000000000
0000000000
001FFF0000
001FFF0000
001FFF0000
001FFF0000
001FFF0000
001FFF0000
001FFF0000
001FFF0000
001FFF0000
001FFF0000
001FFF0000
001FFF0000
001FFF0000
001FFF0000
001FFF0000
001FFF0000
001FFF0000
001FFF0000
001FFF0000
001FFF0000
001FFF0000
001FFF0000
001FFF0000
001FFF0000
001FFF0000
001FFF0000
001FFF0000
001FFF0000
001FFF0000
001FFF0000
001FFF0000
001FFF0000
001FFF0000
001FFF0000
001FFF0000
001FFF0000
001FFF0000
001FFF0000
001FFF0000
001FFF0000
001FFF0000
001FFF0000
001FFF0000
001FFF0000
001FFF0000
001FFF0000
001FFF0000
001FFF0000
001FFF0000
001FFF0000
001FFF0000
001FFF0000
001FFF0000
001FFF0000
001FFF0000
001FFF0000
001FFF0000
001FFF0000
001FFF0000
001FFF0000
001FFF0000
001FFF0000
001FFF0000
001FFF0000
001FFF0000
001FFF0000
ENDCHAR
STARTCHAR 00CF
ENCODING 207
SWIDTH 294 0
DWIDTH 27 0
BBX 31 84 -2 0
BITMAP
FFE00FFE
FFE00FFE
FFE00FFE
FFE00FFE
FFE00FFE
FFE00FFE
FFE00FFE
FFE00FFE
FFE00FFE
FFE00FFE
FFE00FFE
00000000
00000000
00000000
00000000
00000000
00000000
00000000
007FFC00
007FFC00
007FFC00
007FFC00
007FFC00
007FFC00
007FFC00
007FFC00
007FFC00
007FFC00
007FFC00
007FFC00
007FFC00
007FFC00
007FFC00
007FFC00
007FFC00
007FFC00
007FFC00
007FFC00
007FFC00
007FFC00
007FFC00
007FFC00
007FFC00
007FFC00
007FFC00
007FFC00
007FFC00
007FFC00
007FFC00
007FFC00
007FFC00
007FFC00
007FFC00
007FFC00
007FFC00
007FFC00
007FFC00
007FFC00
007FFC00
007FFC00
007FFC00
007FFC00
007FFC00
007FFC00
007FFC00
007FFC00
007FFC00
007FFC00
007FFC00
007FFC00
007FFC00
007FFC00
007FFC00
007FFC00
007FFC00
007FFC00
007FFC00
007FFC00
007FFC00
007FFC00
007FFC00
007FFC00
007FFC00
007FFC00
ENDCHAR
STARTCHAR 00D0
ENCODING 208
SWIDTH 709 0
DWIDTH 65 0
BBX 60 66 1 0
BITMAP
03FFFFFFF0000000
03FFFFFFFF000000
03FFFFFFFFE00000
03FFFFFFFFF80000
03FFFFFFFFFE0000
03FFFFFFFFFF0000
03FFFFFFFFFF8000
03FFFFFFFFFFC000
03FFFFFFFFFFE000
03FFFFFFFFFFF000
03FFFFFFFFFFF800
03FFFFFFFFFFFC00
03FFC0000FFFFC00
03FFC00003FFFE00
03FFC00001FFFF00
03FFC000007FFF00
03FFC000003FFF80
03FFC000003FFF80
03FFC000001FFF80
03FFC000000FFFC0
03FFC000000FFFC0
03FFC0000007FFC0
03FFC0000007FFE0
03FFC0000007FFE0
03FFC0000003FFE0
03FFC0000003FFE0
03FFC0000003FFE0
03FFC0000003FFF0
FFFFFFFF0003FFF0
FFFFFFFF0003FFF0
FFFFFFFF0001FFF0
FFFFFFFF0001FFF0
FFFFFFFF0001FFF0
FFFFFFFF0001FFF0
FFFFFFFF0001FFF0
FFFFFFFF0001FFF0
FFFFFFFF0003FFF0
FFFFFFFF0003FFF0
03FFC0000003FFE0
03FFC0000003FFE0
03FFC0000003FFE0
03FFC0000003FFE0
03FFC0000007FFE0
03FFC0000007FFE0
03FFC000000FFFC0
03FFC000000FFFC0
03FFC000000FFFC0
03FFC000001FFF80
03FFC000003FFF80
03FFC000007FFF00
03FFC000007FFF00
03FFC00001FFFF00
03FFC00003FFFE00
03FFC0001FFFFC00
03FFFFFFFFFFFC00
03FFFFFFFFFFF800
03FFFFFFFFFFF000
03FFFFFFFFFFE000
03FFFFFFFFFFC000
03FFFFFFFFFF8000
03FFFFFFFFFF0000
03FFFFFFFFFE0000
03FFFFFFFFF80000
03FFFFFFFFE00000
03FFFFFFFF000000
03FFFFFFF0000000
ENDCHAR
STARTCHAR 00D1
ENCODING 209
SWIDTH 730 0
DWIDTH 67 0
BBX 54 89 6 0
BITMAP
00007E00000000
0001FF80000000
0003FFE007F800
0007FFF807F800
0007FFFC07F800
000FFFFE07F800
000FFFFF8FF800
000FFFFFFFF800
000FFFFFFFF800
001FF1FFFFF800
000FF07FFFF800
000FF01FFFF000
000FF00FFFF000
000FF003FFE000
00000001FFC000
000000003E0000
00000000000000
00000000000000
00000000000000
00000000000000
00000000000000
00000000000000
00000000000000
FFF80000003FFC
FFFC0000003FFC
FFFE0000003FFC
FFFE0000003FFC
FFFF0000003FFC
FFFF8000003FFC
FFFF8000003FFC
FFFFC000003FFC
FFFFE000003FFC
FFFFE000003FFC
FFFFF000003FFC
FFFFF800003FFC
FFFFF800003FFC
FFFFFC00003FFC
FFFFFE00003FFC
FFFFFE00003FFC
FFFFFF00003FFC
FFFFFF00003FFC
FFFFFF80003FFC
FFFFFFC0003FFC
FFFFFFC0003FFC
FFFFFFE0003FFC
FFFFFFF0003FFC
FFFBFFF0003FFC
FFF9FFF8003FFC
FFF9FFFC003FFC
FFF8FFFC003FFC
FFF87FFE003FFC
FFF87FFF003FFC
FFF83FFF003FFC
FFF81FFF803FFC
FFF81FFFC03FFC
FFF80FFFC03FFC
FFF807FFE03FFC
FFF807FFF03FFC
FFF803FFF03FFC
FFF801FFF83FFC
FFF801FFFC3FFC
FFF800FFFC3FFC
FFF800FFFE3FFC
FFF8007FFE3FFC
FFF8003FFF3FFC
FFF8003FFFBFFC
FFF8001FFFBFFC
FFF8000FFFFFFC
FFF8000FFFFFFC
FFF80007FFFFFC
FFF80003FFFFFC
FFF80003FFFFFC
FFF80001FFFFFC
FFF80000FFFFFC
FFF80000FFFFFC
FFF800007FFFFC
FFF800003FFFFC
FFF800003FFFFC
FFF800001FFFFC
FFF800000FFFFC
FFF800000FFFFC
FFF8000007FFFC
FFF8000007FFFC
FFF8000003FFFC
FFF8000001FFFC
FFF8000001FFFC
FFF8000000FFFC
FFF80000007FFC
FFF80000007FFC
ENDCHAR
STARTCHAR 00D2
ENCODING 210
SWIDTH 752 0
DWIDTH 69 0
BBX 64 91 3 -1
BITMAP
00001FF000000000
00001FF000000000
00001FF800000000
00000FF800000000
00000FFC00000000
000007FC00000000
000007FC00000000
000003FE00000000
000003FE00000000
000003FF00000000
000001FF00000000
000001FF80000000
000000FF80000000
000000FF80000000
0000007FC0000000
0000007FC0000000
0000007FE0000000
0000003FE0000000
0000000000000000
0000000000000000
0000000000000000
0000000000000000
0000000000000000
0000003FFC000000
000007FFFFC00000
00003FFFFFF80000
0000FFFFFFFE0000
0003FFFFFFFF8000
0007FFFFFFFFE000
001FFFFFFFFFF000
003FFFFFFFFFF800
007FFFFFFFFFFC00
00FFFFFFFFFFFE00
01FFFFFFFFFFFF00
01FFFFFFFFFFFF80
03FFFFC007FFFFC0
07FFFE0000FFFFC0
07FFF800003FFFE0
0FFFF000001FFFE0
1FFFE0000007FFF0
1FFFC0000003FFF0
1FFF80000003FFF8
3FFF00000001FFF8
3FFF00000000FFFC
7FFE00000000FFFC
7FFE000000007FFC
7FFE000000007FFC
7FFC000000007FFE
FFFC000000003FFE
FFFC000000003FFE
FFF8000000003FFE
FFF8000000003FFE
FFF8000000003FFF
FFF8000000003FFF
FFF8000000003FFF
FFF8000000003FFF
FFF8000000001FFF
FFF8000000001FFF
FFF8000000003FFF
FFF8000000003FFF
FFF8000000003FFF
FFF8000000003FFE
FFF8000000003FFE
FFF8000000003FFE
FFFC000000003FFE
FFFC000000003FFE
7FFC000000007FFE
7FFE000000007FFC
7FFE000000007FFC
7FFE00000000FFFC
3FFF00000000FFFC
3FFF00000001FFF8
1FFF80000003FFF8
1FFFC0000003FFF0
1FFFE0000007FFF0
0FFFF000000FFFE0
07FFF800003FFFE0
07FFFE00007FFFC0
03FFFFC003FFFFC0
01FFFFFFFFFFFF80
01FFFFFFFFFFFF00
00FFFFFFFFFFFE00
007FFFFFFFFFFC00
003FFFFFFFFFF800
001FFFFFFFFFF000
0007FFFFFFFFE000
0003FFFFFFFF8000
0000FFFFFFFE0000
00003FFFFFF80000
000007FFFFC00000
0000003FFC000000
ENDCHAR
STARTCHAR 00D3
ENCODING 211
SWIDTH 752 0
DWIDTH 69 0
BBX 64 91 3 -1
BITMAP
000000001FF00000
000000003FF00000
000000003FE00000
000000007FE00000
000000007FC00000
000000007FC00000
00000000FF800000
00000000FF800000
00000001FF800000
00000001FF000000
00000003FF000000
00000003FE000000
00000003FE000000
00000007FC000000
00000007FC000000
0000000FFC000000
0000000FF8000000
0000001FF8000000
0000000000000000
0000000000000000
0000000000000000
0000000000000000
0000000000000000
0000003FFC000000
000007FFFFC00000
00003FFFFFF80000
0000FFFFFFFE0000
0003FFFFFFFF8000
0007FFFFFFFFE000
001FFFFFFFFFF000
003FFFFFFFFFF800
007FFFFFFFFFFC00
00FFFFFFFFFFFE00
01FFFFFFFFFFFF00
01FFFFFFFFFFFF80
03FFFFC007FFFFC0
07FFFE0000FFFFC0
07FFF800003FFFE0
0FFFF000001FFFE0
1FFFE0000007FFF0
1FFFC0000003FFF0
1FFF80000003FFF8
3FFF00000001FFF8
3FFF00000000FFFC
7FFE00000000FFFC
7FFE000000007FFC
7FFE000000007FFC
7FFC000000007FFE
FFFC000000003FFE
FFFC000000003FFE
FFF8000000003FFE
FFF8000000003FFE
FFF8000000003FFF
FFF8000000003FFF
FFF8000000003FFF
FFF8000000003FFF
FFF8000000001FFF
FFF8000000001FFF
FFF8000000003FFF
FFF8000000003FFF
FFF8000000003FFF
FFF8000000003FFE
FFF8000000003FFE
FFF8000000003FFE
FFFC000000003FFE
FFFC000000003FFE
7FFC000000007FFE
7FFE000000007FFC
7FFE000000007FFC
7FFE00000000FFFC
3FFF00000000FFFC
3FFF00000001FFF8
1FFF80000003FFF8
1FFFC0000003FFF0
1FFFE0000007FFF0
0FFFF000000FFFE0
07FFF800003FFFE0
07FFFE00007FFFC0
03FFFFC003FFFFC0
01FFFFFFFFFFFF80
01FFFFFFFFFFFF00
00FFFFFFFFFFFE00
007FFFFFFFFFFC00
003FFFFFFFFFF800
001FFFFFFFFFF000
0007FFFFFFFFE000
0003FFFFFFFF8000
0000FFFFFFFE0000
00003FFFFFF80000
000007FFFFC00000
0000003FFC000000
ENDCHAR
STARTCHAR 00D4
ENCODING 212
SWIDTH 752 0
DWIDTH 69 0
BBX 64 89 3 -1
BITMAP
0000003FF8000000
0000007FFC000000
000000FFFE000000
000001FFFF000000
000003FFFF800000
000003FFFF800000
000007FFFFC00000
00000FFEFFE00000
00001FFC7FF00000
00003FF83FF80000
00007FF81FFC0000
0000FFF01FFE0000
0000FFE00FFF0000
0001FFC007FF0000
0003FF8003FF8000
0000000000000000
0000000000000000
0000000000000000
0000000000000000
0000000000000000
0000000000000000
0000003FFC000000
000007FFFFC00000
00003FFFFFF80000
0000FFFFFFFE0000
0003FFFFFFFF8000
0007FFFFFFFFE000
001FFFFFFFFFF000
003FFFFFFFFFF800
007FFFFFFFFFFC00
00FFFFFFFFFFFE00
01FFFFFFFFFFFF00
01FFFFFFFFFFFF80
03FFFFC007FFFFC0
07FFFE0000FFFFC0
07FFF800003FFFE0
0FFFF000001FFFE0
1FFFE0000007FFF0
1FFFC0000003FFF0
1FFF80000003FFF8
3FFF00000001FFF8
3FFF00000000FFFC
7FFE00000000FFFC
7FFE000000007FFC
7FFE000000007FFC
7FFC000000007FFE
FFFC000000003FFE
FFFC000000003FFE
FFF8000000003FFE
FFF8000000003FFE
FFF8000000003FFF
FFF8000000003FFF
FFF8000000003FFF
FFF8000000003FFF
FFF8000000001FFF
FFF8000000001FFF
FFF8000000003FFF
FFF8000000003FFF
FFF8000000003FFF
FFF8000000003FFE
FFF8000000003FFE
FFF8000000003FFE
FFFC000000003FFE
FFFC000000003FFE
7FFC000000007FFE
7FFE000000007FFC
7FFE000000007FFC
7FFE00000000FFFC
3FFF00000000FFFC
3FFF00000001FFF8
1FFF80000003FFF8
1FFFC0000003FFF0
1FFFE0000007FFF0
0FFFF000000FFFE0
07FFF800003FFFE0
07FFFE00007FFFC0
03FFFFC003FFFFC0
01FFFFFFFFFFFF80
01FFFFFFFFFFFF00
00FFFFFFFFFFFE00
007FFFFFFFFFFC00
003FFFFFFFFFF800
001FFFFFFFFFF000
0007FFFFFFFFE000
0003FFFFFFFF8000
0000FFFFFFFE0000
00003FFFFFF80000
000007FFFFC00000
0000003FFC000000
ENDCHAR
STARTCHAR 00D5
ENCODING 213
SWIDTH 752 0
DWIDTH 69 0
BBX 64 90 3 -1
BITMAP
000007E000000000
00001FF800000000
00003FFE007F8000
00007FFF807F8000
00007FFFC07F8000
0000FFFFE07F8000
0000FFFFF8FF8000
0000FFFFFFFF8000
0001FFFFFFFF8000
0001FF1FFFFF8000
0001FF07FFFF8000
0000FE03FFFF0000
0000FE00FFFF0000
0000FF007FFE0000
0000FF001FFC0000
0000000007F00000
0000000000000000
0000000000000000
0000000000000000
0000000000000000
0000000000000000
0000000000000000
0000003FFC000000
000007FFFFC00000
00003FFFFFF80000
0000FFFFFFFE0000
0003FFFFFFFF8000
0007FFFFFFFFE000
001FFFFFFFFFF000
003FFFFFFFFFF800
007FFFFFFFFFFC00
00FFFFFFFFFFFE00
01FFFFFFFFFFFF00
01FFFFFFFFFFFF80
03FFFFC007FFFFC0
07FFFE0000FFFFC0
07FFF800003FFFE0
0FFFF000001FFFE0
1FFFE0000007FFF0
1FFFC0000003FFF0
1FFF80000003FFF8
3FFF00000001FFF8
3FFF00000000FFFC
7FFE00000000FFFC
7FFE000000007FFC
7FFE000000007FFC
7FFC000000007FFE
FFFC000000003FFE
FFFC000000003FFE
FFF8000000003FFE
FFF8000000003FFE
FFF8000000003FFF
FFF8000000003FFF
FFF8000000003FFF
FFF8000000003FFF
FFF8000000001FFF
FFF8000000001FFF
FFF8000000003FFF
FFF8000000003FFF
FFF8000000003FFF
FFF8000000003FFE
FFF8000000003FFE
FFF8000000003FFE
FFFC000000003FFE
FFFC000000003FFE
7FFC000000007FFE
7FFE000000007FFC
7FFE000000007FFC
7FFE00000000FFFC
3FFF00000000FFFC
3FFF00000001FFF8
1FFF80000003FFF8
1FFFC0000003FFF0
1FFFE0000007FFF0
0FFFF000000FFFE0
07FFF800003FFFE0
07FFFE00007FFFC0
03FFFFC003FFFFC0
01FFFFFFFFFFFF80
01FFFFFFFFFFFF00
00FFFFFFFFFFFE00
007FFFFFFFFFFC00
003FFFFFFFFFF800
001FFFFFFFFFF000
0007FFFFFFFFE000
0003FFFFFFFF8000
0000FFFFFFFE0000
00003FFFFFF80000
000007FFFFC00000
0000003FFC000000
ENDCHAR
STARTCHAR 00D6
ENCODING 214
SWIDTH 752 0
DWIDTH 69 0
BBX 64 85 3 -1
BITMAP
00007FF00FFE0000
00007FF00FFE0000
00007FF00FFE0000
00007FF00FFE0000
00007FF00FFE0000
00007FF00FFE0000
00007FF00FFE0000
00007FF00FFE0000
00007FF00FFE0000
00007FF00FFE0000
00007FF00FFE0000
0000000000000000
0000000000000000
0000000000000000
0000000000000000
0000000000000000
0000000000000000
0000003FFC000000
000007FFFFC00000
00003FFFFFF80000
0000FFFFFFFE0000
0003FFFFFFFF8000
0007FFFFFFFFE000
001FFFFFFFFFF000
003FFFFFFFFFF800
007FFFFFFFFFFC00
00FFFFFFFFFFFE00
01FFFFFFFFFFFF00
01FFFFFFFFFFFF80
03FFFFC007FFFFC0
07FFFE0000FFFFC0
07FFF800003FFFE0
0FFFF000001FFFE0
1FFFE0000007FFF0
1FFFC0000003FFF0
1FFF80000003FFF8
3FFF00000001FFF8
3FFF00000000FFFC
7FFE00000000FFFC
7FFE000000007FFC
7FFE000000007FFC
7FFC000000007FFE
FFFC000000003FFE
FFFC000000003FFE
FFF8000000003FFE
FFF8000000003FFE
FFF8000000003FFF
FFF8000000003FFF
FFF8000000003FFF
FFF8000000003FFF
FFF8000000001FFF
FFF8000000001FFF
FFF8000000003FFF
FFF8000000003FFF
FFF8000000003FFF
FFF8000000003FFE
FFF8000000003FFE
FFF8000000003FFE
FFFC000000003FFE
FFFC000000003FFE
7FFC000000007FFE
7FFE000000007FFC
7FFE000000007FFC
7FFE00000000FFFC
3FFF00000000FFFC
3FFF00000001FFF8
1FFF80000003FFF8
1FFFC0000003FFF0
1FFFE0000007FFF0
0FFFF000000FFFE0
07FFF800003FFFE0
07FFFE00007FFFC0
03FFFFC003FFFFC0
01FFFFFFFFFFFF80
01FFFFFFFFFFFF00
00FFFFFFFFFFFE00
007FFFFFFFFFFC00
003FFFFFFFFFF800
001FFFFFFFFFF000
0007FFFFFFFFE000
0003FFFFFFFF8000
0000FFFFFFFE0000
00003FFFFFF80000
000007FFFFC00000
0000003FFC000000
ENDCHAR
STARTCHAR 00D7
ENCODING 215
SWIDTH 512 0
DWIDTH 47 0
BBX 35 36 6 15
BITMAP
0200000800
0700001C00
0F80003E00
1FC0007F00
3FE000FF80
7FF001FFC0
FFF803FFE0
FFFC07FFE0
7FFE0FFFC0
3FFF1FFF80
1FFFBFFF00
0FFFFFFE00
07FFFFFC00
03FFFFF800
01FFFFF000
00FFFFE000
007FFFC000
003FFF8000
003FFF8000
007FFFC000
00FFFFE000
01FFFFF000
03FFFFF800
07FFFFFC00
0FFFFFFE00
1FFFBFFF00
3FFF1FFF80
7FFE0FFFC0
FFFC07FFE0
FFF803FFE0
7FF001FFC0
3FE000FF80
1FC0007F00
0F80003E00
0700001C00
0200000800
ENDCHAR
STARTCHAR 00D8
ENCODING 216
SWIDTH 752 0
DWIDTH 69 0
BBX 64 68 3 -1
BITMAP
0000003FFC000300
000007FFFFC00380
00003FFFFFF807C0
0000FFFFFFFF0FE0
0003FFFFFFFF9FF0
0007FFFFFFFFFFF8
001FFFFFFFFFFFFC
003FFFFFFFFFFFFE
007FFFFFFFFFFFFE
00FFFFFFFFFFFFFC
01FFFFFFFFFFFFF8
01FFFFFFFFFFFFF0
03FFFFC007FFFFE0
07FFFE0000FFFFE0
07FFF800003FFFE0
0FFFF000003FFFF0
1FFFE000007FFFF0
1FFFC00000FFFFF8
1FFF800001FFFFF8
3FFF000003FFFFF8
3FFF000007FFFFFC
7FFE00000FFFFFFC
7FFE00001FFFFFFC
7FFE00003FFFFFFE
7FFC00003FFFFFFE
FFFC00007FFF7FFE
FFFC0000FFFE3FFE
FFF80001FFFC3FFE
FFF80003FFF83FFE
FFF80007FFF03FFF
FFF8000FFFE03FFF
FFF8001FFFC03FFF
FFF8003FFF803FFF
FFF8007FFF001FFF
FFF8007FFF001FFF
FFF800FFFE003FFF
FFF801FFFC003FFF
FFF803FFF8003FFF
FFF807FFF0003FFE
FFF80FFFE0003FFE
FFF81FFFC0003FFE
FFFC3FFF80003FFE
7FFC7FFF00003FFE
7FFCFFFE00007FFE
7FFEFFFE00007FFC
7FFFFFFC00007FFC
7FFFFFF80000FFFC
3FFFFFF00000FFFC
3FFFFFE00001FFF8
1FFFFFC00003FFF8
1FFFFF800003FFF0
1FFFFF000007FFF0
0FFFFE00000FFFE0
07FFFC00003FFFE0
07FFFE00007FFFC0
07FFFFC003FFFFC0
0FFFFFFFFFFFFF80
1FFFFFFFFFFFFF00
1FFFFFFFFFFFFE00
3FFFFFFFFFFFFC00
3FFFFFFFFFFFF800
1FFFFFFFFFFFF000
0FFFFFFFFFFFE000
07FFFFFFFFFF8000
03F8FFFFFFFE0000
01F03FFFFFF80000
00E007FFFFC00000
0020003FFC000000
ENDCHAR
STARTCHAR 00D9
ENCODING 217
SWIDTH 730 0
DWIDTH 67 0
BBX 54 92 6 -1
BITMAP
0000FF80000000
0000FFC0000000
00007FC0000000
00007FC0000000
00003FE0000000
00003FE0000000
00003FF0000000
00001FF0000000
00001FF8000000
00000FF8000000
00000FF8000000
000007FC000000
000007FC000000
000007FE000000
000003FE000000
000003FF000000
000001FF000000
000001FF000000
00000000000000
00000000000000
00000000000000
00000000000000
00000000000000
00000000000000
00000000000000
FFF80000007FFC
FFF80000007FFC
FFF80000007FFC
FFF80000007FFC
FFF80000007FFC
FFF80000007FFC
FFF80000007FFC
FFF80000007FFC
FFF80000007FFC
FFF80000007FFC
FFF80000007FFC
FFF80000007FFC
FFF80000007FFC
FFF80000007FFC
FFF80000007FFC
FFF80000007FFC
FFF80000007FFC
FFF80000007FFC
FFF80000007FFC
FFF80000007FFC
FFF80000007FFC
FFF80000007FFC
FFF80000007FFC
FFF80000007FFC
FFF80000007FFC
FFF80000007FFC
FFF80000007FFC
FFF80000007FFC
FFF80000007FFC
FFF80000007FFC
FFF80000007FFC
FFF80000007FFC
FFF80000007FFC
FFF80000007FFC
FFF80000007FFC
FFF80000007FFC
FFF80000007FFC
FFF80000007FFC
FFF80000007FFC
FFF80000007FFC
FFF80000007FFC
FFF80000007FFC
FFF80000007FFC
FFF80000007FFC
7FF80000007FFC
7FFC0000007FFC
7FFC000000FFFC
7FFC000000FFF8
7FFE000001FFF8
3FFF000001FFF8
3FFF000003FFF8
3FFF800007FFF0
1FFFE0000FFFF0
1FFFF0003FFFE0
0FFFFC00FFFFE0
0FFFFFFFFFFFC0
07FFFFFFFFFFC0
03FFFFFFFFFF80
03FFFFFFFFFF00
01FFFFFFFFFE00
00FFFFFFFFFC00
003FFFFFFFF800
001FFFFFFFE000
0007FFFFFFC000
0001FFFFFF0000
00007FFFF80000
000007FF800000
ENDCHAR
STARTCHAR 00DA
ENCODING 218
SWIDTH 730 0
DWIDTH 67 0
BBX 54 92 6 -1
BITMAP
00000003FE0000
00000003FE0000
00000007FC0000
00000007FC0000
0000000FFC0000
0000000FF80000
0000001FF80000
0000001FF00000
0000001FF00000
0000003FE00000
0000003FE00000
0000007FE00000
0000007FC00000
0000007FC00000
000000FF800000
000000FF800000
000001FF800000
000001FF000000
00000000000000
00000000000000
00000000000000
00000000000000
00000000000000
00000000000000
00000000000000
FFF80000007FFC
FFF80000007FFC
FFF80000007FFC
FFF80000007FFC
FFF80000007FFC
FFF80000007FFC
FFF80000007FFC
FFF80000007FFC
FFF80000007FFC
FFF80000007FFC
FFF80000007FFC
FFF80000007FFC
FFF80000007FFC
FFF80000007FFC
FFF80000007FFC
FFF80000007FFC
FFF80000007FFC
FFF80000007FFC
FFF80000007FFC
FFF80000007FFC
FFF80000007FFC
FFF80000007FFC
FFF80000007FFC
FFF80000007FFC
FFF80000007FFC
FFF80000007FFC
FFF80000007FFC
FFF80000007FFC
FFF80000007FFC
FFF80000007FFC
FFF80000007FFC
FFF80000007FFC
FFF80000007FFC
FFF80000007FFC
FFF80000007FFC
FFF80000007FFC
FFF80000007FFC
FFF80000007FFC
FFF80000007FFC
FFF80000007FFC
FFF80000007FFC
FFF80000007FFC
FFF80000007FFC
FFF80000007FFC
7FF80000007FFC
7FFC0000007FFC
7FFC000000FFFC
7FFC000000FFF8
7FFE000001FFF8
3FFF000001FFF8
3FFF000003FFF8
3FFF800007FFF0
1FFFE0000FFFF0
1FFFF0003FFFE0
0FFFFC00FFFFE0
0FFFFFFFFFFFC0
07FFFFFFFFFFC0
03FFFFFFFFFF80
03FFFFFFFFFF00
01FFFFFFFFFE00
00FFFFFFFFFC00
003FFFFFFFF800
001FFFFFFFE000
0007FFFFFFC000
0001FFFFFF0000
00007FFFF80000
000007FF800000
ENDCHAR
STARTCHAR 00DB
ENCODING 219
SWIDTH 730 0
DWIDTH 67 0
BBX 54 89 6 -1
BITMAP
000003FF800000
000007FFC00000
00000FFFC00000
00001FFFE00000
00003FFFF00000
00007FFFF80000
0000FFFFFC0000
0001FFEFFE0000
0001FFCFFF0000
0003FF87FF8000
0007FF03FF8000
000FFE01FFC000
001FFC00FFE000
003FFC007FF000
007FF8007FF800
00000000000000
00000000000000
00000000000000
00000000000000
00000000000000
00000000000000
00000000000000
FFF80000007FFC
FFF80000007FFC
FFF80000007FFC
FFF80000007FFC
FFF80000007FFC
FFF80000007FFC
FFF80000007FFC
FFF80000007FFC
FFF80000007FFC
FFF80000007FFC
FFF80000007FFC
FFF80000007FFC
FFF80000007FFC
FFF80000007FFC
FFF80000007FFC
FFF80000007FFC
FFF80000007FFC
FFF80000007FFC
FFF80000007FFC
FFF80000007FFC
FFF80000007FFC
FFF80000007FFC
FFF80000007FFC
FFF80000007FFC
FFF80000007FFC
FFF80000007FFC
FFF80000007FFC
FFF80000007FFC
FFF80000007FFC
FFF80000007FFC
FFF80000007FFC
FFF80000007FFC
FFF80000007FFC
FFF80000007FFC
FFF80000007FFC
FFF80000007FFC
FFF80000007FFC
FFF80000007FFC
FFF80000007FFC
FFF80000007FFC
FFF80000007FFC
FFF80000007FFC
FFF80000007FFC
FFF80000007FFC
7FF80000007FFC
7FFC0000007FFC
7FFC000000FFFC
7FFC000000FFF8
7FFE000001FFF8
3FFF000001FFF8
3FFF000003FFF8
3FFF800007FFF0
1FFFE0000FFFF0
1FFFF0003FFFE0
0FFFFC00FFFFE0
0FFFFFFFFFFFC0
07FFFFFFFFFFC0
03FFFFFFFFFF80
03FFFFFFFFFF00
01FFFFFFFFFE00
00FFFFFFFFFC00
003FFFFFFFF800
001FFFFFFFE000
0007FFFFFFC000
0001FFFFFF0000
00007FFFF80000
000007FF800000
ENDCHAR
STARTCHAR 00DC
ENCODING 220
SWIDTH 730 0
DWIDTH 67 0
BBX 54 85 6 -1
BITMAP
000FFE01FFC000
000FFE01FFC000
000FFE01FFC000
000FFE01FFC000
000FFE01FFC000
000FFE01FFC000
000FFE01FFC000
000FFE01FFC000
000FFE01FFC000
000FFE01FFC000
000FFE01FFC000
00000000000000
00000000000000
00000000000000
00000000000000
00000000000000
00000000000000
00000000000000
FFF80000007FFC
FFF80000007FFC
FFF80000007FFC
FFF80000007FFC
FFF80000007FFC
FFF80000007FFC
FFF80000007FFC
FFF80000007FFC
FFF80000007FFC
FFF80000007FFC
FFF80000007FFC
FFF80000007FFC
FFF80000007FFC
FFF80000007FFC
FFF80000007FFC
FFF80000007FFC
FFF80000007FFC
FFF80000007FFC
FFF80000007FFC
FFF80000007FFC
FFF80000007FFC
FFF80000007FFC
FFF80000007FFC
FFF80000007FFC
FFF80000007FFC
FFF80000007FFC
FFF80000007FFC
FFF80000007FFC
FFF80000007FFC
FFF80000007FFC
FFF80000007FFC
FFF80000007FFC
FFF80000007FFC
FFF80000007FFC
FFF80000007FFC
FFF80000007FFC
FFF80000007FFC
FFF80000007FFC
FFF80000007FFC
FFF80000007FFC
FFF80000007FFC
FFF80000007FFC
FFF80000007FFC
FFF80000007FFC
7FF80000007FFC
7FFC0000007FFC
7FFC000000FFFC
7FFC000000FFF8
7FFE000001FFF8
3FFF000001FFF8
3FFF000003FFF8
3FFF800007FFF0
1FFFE0000FFFF0
1FFFF0003FFFE0
0FFFFC00FFFFE0
0FFFFFFFFFFFC0
07FFFFFFFFFFC0
03FFFFFFFFFF80
03FFFFFFFFFF00
01FFFFFFFFFE00
00FFFFFFFFFC00
003FFFFFFFF800
001FFFFFFFE000
0007FFFFFFC000
0001FFFFFF0000
00007FFFF80000
000007FF800000
ENDCHAR
STARTCHAR 00DD
ENCODING 221
SWIDTH 632 0
DWIDTH 58 0
BBX 57 91 0 0
BITMAP
00000000FF800000
00000001FF800000
00000001FF000000
00000003FF000000
00000003FE000000
00000003FE000000
00000007FC000000
00000007FC000000
0000000FFC000000
0000000FF8000000
0000001FF8000000
0000001FF0000000
0000001FF0000000
0000003FE0000000
0000003FE0000000
0000007FE0000000
0000007FC0000000
000000FFC0000000
0000000000000000
0000000000000000
0000000000000000
0000000000000000
0000000000000000
0000000000000000
0000000000000000
FFFE0000001FFF80
7FFE0000003FFF80
7FFF0000003FFF00
3FFF8000007FFF00
1FFF8000007FFE00
1FFFC00000FFFE00
0FFFC00001FFFC00
0FFFE00001FFF800
07FFE00003FFF800
07FFF00003FFF000
03FFF80007FFF000
01FFF80007FFE000
01FFFC000FFFE000
00FFFC001FFFC000
00FFFE001FFF8000
007FFF003FFF8000
007FFF003FFF0000
003FFF807FFF0000
001FFF807FFE0000
001FFFC0FFFE0000
000FFFC1FFFC0000
000FFFE1FFF80000
0007FFF3FFF80000
0003FFF3FFF00000
0003FFFFFFF00000
0001FFFFFFE00000
0001FFFFFFC00000
0000FFFFFFC00000
0000FFFFFF800000
00007FFFFF800000
00003FFFFF000000
00003FFFFF000000
00001FFFFE000000
00001FFFFC000000
00000FFFFC000000
00000FFFF8000000
000007FFF8000000
000003FFF0000000
000003FFF0000000
000001FFE0000000
000001FFE0000000
000001FFE0000000
000001FFE0000000
000001FFE0000000
000001FFE0000000
000001FFE0000000
000001FFE0000000
000001FFE0000000
000001FFE0000000
000001FFE0000000
000001FFE0000000
000001FFE0000000
000001FFE0000000
000001FFE0000000
000001FFE0000000
000001FFE0000000
000001FFE0000000
000001FFE0000000
000001FFE0000000
000001FFE0000000
000001FFE0000000
000001FFE0000000
000001FFE0000000
000001FFE0000000
000001FFE0000000
000001FFE0000000
ENDCHAR
STARTCHAR 00DE
ENCODING 222
SWIDTH 643 0
DWIDTH 59 0
BBX 50 66 6 0
BITMAP
FFF80000000000
FFF80000000000
FFF80000000000
FFF80000000000
FFF80000000000
FFF80000000000
FFF80000000000
FFF80000000000
FFF80000000000
FFF80000000000
FFF80000000000
FFFFFFFE000000
FFFFFFFFE00000
FFFFFFFFFC0000
FFFFFFFFFF0000
FFFFFFFFFF8000
FFFFFFFFFFC000
FFFFFFFFFFE000
FFFFFFFFFFF000
FFFFFFFFFFF800
FFFFFFFFFFFC00
FFFFFFFFFFFE00
FFFFFFFFFFFE00
FFF80001FFFF00
FFF800007FFF00
FFF800003FFF80
FFF800001FFF80
FFF800000FFF80
FFF800000FFFC0
FFF8000007FFC0
FFF8000007FFC0
FFF8000007FFC0
FFF8000007FFC0
FFF8000007FFC0
FFF8000007FFC0
FFF8000007FFC0
FFF8000007FFC0
FFF800000FFFC0
FFF800000FFF80
FFF800001FFF80
FFF800003FFF80
FFF800007FFF00
FFF80001FFFF00
FFFFFFFFFFFE00
FFFFFFFFFFFE00
FFFFFFFFFFFC00
FFFFFFFFFFF800
FFFFFFFFFFF000
FFFFFFFFFFE000
FFFFFFFFFFC000
FFFFFFFFFF8000
FFFFFFFFFE0000
FFFFFFFFFC0000
FFFFFFFFE00000
FFFFFFFE000000
FFF80000000000
FFF80000000000
FFF80000000000
FFF80000000000
FFF80000000000
FFF80000000000
FFF80000000000
FFF80000000000
FFF80000000000
FFF80000000000
FFF80000000000
ENDCHAR
STARTCHAR 00DF
ENCODING 223
SWIDTH 643 0
DWIDTH 59 0
BBX 48 68 6 -1
BITMAP
0000FFC00000
000FFFFC0000
003FFFFF0000
00FFFFFFC000
01FFFFFFE000
07FFFFFFF000
07FFFFFFF800
0FFFFFFFFC00
1FFFFFFFFE00
3FFFFFFFFF00
3FFFFFFFFF00
7FFFFFFFFF80
7FFF807FFF80
7FFF001FFFC0
7FFE000FFFC0
FFFC0007FFC0
FFFC0007FFC0
FFF80003FFC0
FFF80003FFC0
FFF80003FFC0
FFF80003FFC0
FFF80003FFC0
FFF80007FFC0
FFF80007FFC0
FFF8000FFFC0
FFF8001FFF80
FFF800FFFF80
FFF807FFFF00
FFF807FFFF00
FFF807FFFE00
FFF807FFFC00
FFF807FFFE00
FFF807FFFF80
FFF807FFFFC0
FFF807FFFFE0
FFF807FFFFF0
FFF807FFFFF8
FFF807FFFFF8
FFF80007FFFC
FFF80001FFFC
FFF800007FFE
FFF800007FFE
FFF800003FFE
FFF800001FFE
FFF800001FFF
FFF800001FFF
FFF800001FFF
FFF800001FFF
FFF800001FFF
FFF800001FFF
FFF800001FFF
FFF800003FFE
FFF800003FFE
FFF800007FFE
FFF80001FFFE
FFF83C0FFFFE
FFF83FFFFFFC
FFF83FFFFFFC
FFF83FFFFFF8
FFF83FFFFFF8
FFF83FFFFFF0
FFF83FFFFFE0
FFF83FFFFFC0
FFF83FFFFF80
FFF83FFFFF00
FFF83FFFFC00
FFF83FFFF000
00000FFF0000
ENDCHAR
STARTCHAR 00E0
ENCODING 224
SWIDTH 578 0
DWIDTH 53 0
BBX 44 75 4 -1
BITMAP
001FF8000000
000FF8000000
000FF8000000
0007FC000000
0007FC000000
0007FE000000
0003FE000000
0003FE000000
0001FF000000
0001FF000000
0001FF800000
0000FF800000
0000FFC00000
00007FC00000
00007FC00000
00003FE00000
00003FE00000
00003FF00000
000000000000
000000000000
000000000000
000000000000
000000000000
00007FF80000
0007FFFF8000
001FFFFFE000
007FFFFFF800
00FFFFFFFC00
03FFFFFFFE00
07FFFFFFFF00
07FFFFFFFF80
0FFFFFFFFFC0
1FFFFFFFFFC0
1FFFFFFFFFE0
3FFFF8FFFFE0
3FFF800FFFE0
7FFF0003FFE0
0FFC0001FFF0
01FC0001FFF0
00380001FFF0
00000000FFF0
0000000FFFF0
000007FFFFF0
0000FFFFFFF0
000FFFFFFFF0
007FFFFFFFF0
01FFFFFFFFF0
03FFFFFFFFF0
0FFFFFFFFFF0
1FFFFFFFFFF0
3FFFFFFFFFF0
3FFFFFF8FFF0
7FFFFE01FFF0
7FFFE001FFF0
FFFF0001FFF0
FFFC0001FFF0
FFF80001FFF0
FFF00001FFF0
FFF00003FFF0
FFF00003FFF0
FFF00007FFF0
FFF0000FFFF0
FFF8001FFFF0
FFF8007FFFF0
FFFE01FFFFF0
7FFFFFFFFFF0
7FFFFFFFFFF0
3FFFFFFFFFF0
3FFFFFFF7FF0
1FFFFFFE7FF0
0FFFFFFC7FF0
07FFFFF87FF0
03FFFFE07FF0
00FFFF807FF0
000FFC000000
ENDCHAR
STARTCHAR 00E1
ENCODING 225
SWIDTH 578 0
DWIDTH 53 0
BBX 44 75 4 -1
BITMAP
0000003FF000
0000003FE000
0000003FE000
0000007FC000
0000007FC000
000000FFC000
000000FF8000
000001FF8000
000001FF0000
000001FF0000
000003FE0000
000003FE0000
000007FE0000
000007FC0000
00000FFC0000
00000FF80000
00000FF80000
00001FF00000
000000000000
000000000000
000000000000
000000000000
000000000000
00007FF80000
0007FFFF8000
001FFFFFE000
007FFFFFF800
00FFFFFFFC00
03FFFFFFFE00
07FFFFFFFF00
07FFFFFFFF80
0FFFFFFFFFC0
1FFFFFFFFFC0
1FFFFFFFFFE0
3FFFF8FFFFE0
3FFF800FFFE0
7FFF0003FFE0
0FFC0001FFF0
01FC0001FFF0
00380001FFF0
00000000FFF0
0000000FFFF0
000007FFFFF0
0000FFFFFFF0
000FFFFFFFF0
007FFFFFFFF0
01FFFFFFFFF0
03FFFFFFFFF0
0FFFFFFFFFF0
1FFFFFFFFFF0
3FFFFFFFFFF0
3FFFFFF8FFF0
7FFFFE01FFF0
7FFFE001FFF0
FFFF0001FFF0
FFFC0001FFF0
FFF80001FFF0
FFF00001FFF0
FFF00003FFF0
FFF00003FFF0
FFF00007FFF0
FFF0000FFFF0
FFF8001FFFF0
FFF8007FFFF0
FFFE01FFFFF0
7FFFFFFFFFF0
7FFFFFFFFFF0
3FFFFFFFFFF0
3FFFFFFF7FF0
1FFFFFFE7FF0
0FFFFFFC7FF0
07FFFFF87FF0
03FFFFE07FF0
00FFFF807FF0
000FFC000000
ENDCHAR
STARTCHAR 00E2
ENCODING 226
SWIDTH 578 0
DWIDTH 53 0
BBX 44 73 4 -1
BITMAP
00003FF80000
00007FFC0000
0000FFFE0000
0001FFFF0000
0003FFFF0000
0007FFFF8000
0007FFFFC000
000FFEFFE000
001FFC7FF000
003FF87FF800
007FF03FFC00
00FFE01FFC00
01FFE00FFE00
03FFC007FF00
03FF8003FF80
040000000000
000000000000
000000000000
000000000000
000000000000
000000000000
00007FF80000
0007FFFF8000
001FFFFFE000
007FFFFFF800
00FFFFFFFC00
03FFFFFFFE00
07FFFFFFFF00
07FFFFFFFF80
0FFFFFFFFFC0
1FFFFFFFFFC0
1FFFFFFFFFE0
3FFFF8FFFFE0
3FFF800FFFE0
7FFF0003FFE0
0FFC0001FFF0
01FC0001FFF0
00380001FFF0
00000000FFF0
0000000FFFF0
000007FFFFF0
0000FFFFFFF0
000FFFFFFFF0
007FFFFFFFF0
01FFFFFFFFF0
03FFFFFFFFF0
0FFFFFFFFFF0
1FFFFFFFFFF0
3FFFFFFFFFF0
3FFFFFF8FFF0
7FFFFE01FFF0
7FFFE001FFF0
FFFF0001FFF0
FFFC0001FFF0
FFF80001FFF0
FFF00001FFF0
FFF00003FFF0
FFF00003FFF0
FFF00007FFF0
FFF0000FFFF0
FFF8001FFFF0
FFF8007FFFF0
FFFE01FFFFF0
7FFFFFFFFFF0
7FFFFFFFFFF0
3FFFFFFFFFF0
3FFFFFFF7FF0
1FFFFFFE7FF0
0FFFFFFC7FF0
07FFFFF87FF0
03FFFFE07FF0
00FFFF807FF0
000FFC000000
ENDCHAR
STARTCHAR 00E3
ENCODING 227
SWIDTH 578 0
DWIDTH 53 0
BBX 44 74 4 -1
BITMAP
0007E0000000
001FF8000000
003FFE007F80
007FFF807F80
007FFFC07F80
00FFFFE07F80
00FFFFF8FF80
00FFFFFFFF80
01FFFFFFFF80
01FF1FFFFF80
01FF07FFFF80
00FF03FFFF00
00FE00FFFF00
00FF007FFE00
00FF001FFC00
00000007F000
000000000000
000000000000
000000000000
000000000000
000000000000
000000000000
00007FF80000
0007FFFF8000
001FFFFFE000
007FFFFFF800
00FFFFFFFC00
03FFFFFFFE00
07FFFFFFFF00
07FFFFFFFF80
0FFFFFFFFFC0
1FFFFFFFFFC0
1FFFFFFFFFE0
3FFFF8FFFFE0
3FFF800FFFE0
7FFF0003FFE0
0FFC0001FFF0
01FC0001FFF0
00380001FFF0
00000000FFF0
0000000FFFF0
000007FFFFF0
0000FFFFFFF0
000FFFFFFFF0
007FFFFFFFF0
01FFFFFFFFF0
03FFFFFFFFF0
0FFFFFFFFFF0
1FFFFFFFFFF0
3FFFFFFFFFF0
3FFFFFF8FFF0
7FFFFE01FFF0
7FFFE001FFF0
FFFF0001FFF0
FFFC0001FFF0
FFF80001FFF0
FFF00001FFF0
FFF00003FFF0
FFF00003FFF0
FFF00007FFF0
FFF0000FFFF0
FFF0001FFFF0
FFF8003FFFF0
FFFE00FFFFF0
7FFFFFFFFFF0
7FFFFFFFFFF0
3FFFFFFFFFF0
3FFFFFFF7FF0
1FFFFFFE7FF0
0FFFFFFC7FF0
07FFFFF87FF0
03FFFFE07FF0
00FFFF807FF0
000FFC000000
ENDCHAR
STARTCHAR 00E4
ENCODING 228
SWIDTH 578 0
DWIDTH 53 0
BBX 44 69 4 -1
BITMAP
00FFE00FFE00
00FFE00FFE00
00FFE00FFE00
00FFE00FFE00
00FFE00FFE00
00FFE00FFE00
00FFE00FFE00
00FFE00FFE00
00FFE00FFE00
00FFE00FFE00
00FFE00FFE00
000000000000
000000000000
000000000000
000000000000
000000000000
000000000000
00007FF80000
0007FFFF8000
001FFFFFE000
007FFFFFF800
00FFFFFFFC00
03FFFFFFFE00
07FFFFFFFF00
07FFFFFFFF80
0FFFFFFFFFC0
1FFFFFFFFFC0
1FFFFFFFFFE0
3FFFF8FFFFE0
3FFF800FFFE0
7FFF0003FFE0
0FFC0001FFF0
01FC0001FFF0
00380001FFF0
00000000FFF0
0000000FFFF0
000007FFFFF0
0000FFFFFFF0
000FFFFFFFF0
007FFFFFFFF0
01FFFFFFFFF0
03FFFFFFFFF0
0FFFFFFFFFF0
1FFFFFFFFFF0
3FFFFFFFFFF0
3FFFFFF8FFF0
7FFFFE01FFF0
7FFFE001FFF0
FFFF0001FFF0
FFFC0001FFF0
FFF80001FFF0
FFF00001FFF0
FFF00003FFF0
FFF00003FFF0
FFF00007FFF0
FFF0000FFFF0
FFF8001FFFF0
FFF8007FFFF0
FFFE01FFFFF0
7FFFFFFFFFF0
7FFFFFFFFFF0
3FFFFFFFFFF0
3FFFFFFF7FF0
1FFFFFFE7FF0
0FFFFFFC7FF0
07FFFFF87FF0
03FFFFE07FF0
00FFFF807FF0
000FFC000000
ENDCHAR
STARTCHAR 00E5
ENCODING 229
SWIDTH 578 0
DWIDTH 53 0
BBX 44 80 4 -1
BITMAP
00001FF00000
00007FFC0000
0001FFFE0000
0003FFFF0000
0007FFFF8000
0007FFFFC000
000FFFFFC000
000FF87FE000
001FF01FE000
001FE00FE000
001FC00FF000
001FC00FF000
001FC00FF000
001FC00FF000
001FE00FE000
001FF01FE000
000FF87FE000
000FFFFFC000
0007FFFFC000
0003FFFF8000
0003FFFF0000
0001FFFE0000
00007FFC0000
00001FF00000
000000000000
000000000000
000000000000
000000000000
00007FF80000
0007FFFF8000
001FFFFFE000
007FFFFFF800
00FFFFFFFC00
03FFFFFFFE00
07FFFFFFFF00
07FFFFFFFF80
0FFFFFFFFFC0
1FFFFFFFFFC0
1FFFFFFFFFE0
3FFFF8FFFFE0
3FFF800FFFE0
7FFF0003FFE0
0FFC0001FFF0
01FC0001FFF0
00380001FFF0
00000000FFF0
0000000FFFF0
000007FFFFF0
0000FFFFFFF0
000FFFFFFFF0
007FFFFFFFF0
01FFFFFFFFF0
03FFFFFFFFF0
0FFFFFFFFFF0
1FFFFFFFFFF0
3FFFFFFFFFF0
3FFFFFF8FFF0
7FFFFE01FFF0
7FFFE001FFF0
FFFF0001FFF0
FFFC0001FFF0
FFF80001FFF0
FFF00001FFF0
FFF00003FFF0
FFF00003FFF0
FFF00007FFF0
FFF0000FFFF0
FFF8001FFFF0
FFF8007FFFF0
FFFE01FFFFF0
7FFFFFFFFFF0
7FFFFFFFFFF0
3FFFFFFFFFF0
3FFFFFFF7FF0
1FFFFFFE7FF0
0FFFFFFC7FF0
07FFFFF87FF0
03FFFFE07FF0
00FFFF807FF0
000FFC000000
ENDCHAR
STARTCHAR 00E6
ENCODING 230
SWIDTH 938 0
DWIDTH 86 0
BBX 78 52 4 -1
BITMAP
00003FF800001FF80000
0003FFFF0001FFFF0000
000FFFFFE007FFFFC000
003FFFFFF01FFFFFF000
007FFFFFFC3FFFFFF800
00FFFFFFFE7FFFFFFE00
01FFFFFFFFFFFFFFFF00
03FFFFFFFFFFFFFFFF00
07FFFFFFFFFFFFFFFF80
0FFFFFFFFFFFFFFFFFC0
1FFFFFFFFFFFFFFFFFC0
1FFFFCFFFFFFF00FFFE0
3FFF800FFFFFC003FFE0
3FFF0007FFFF0001FFF0
1FFE0003FFFF0000FFF0
03FC0001FFFE00007FF0
00780001FFFC00007FF8
00000001FFFC00007FF8
00000001FFFC00003FF8
00000000FFF800003FF8
0000000FFFFFFFFFFFFC
00000FFFFFFFFFFFFFFC
0001FFFFFFFFFFFFFFFC
001FFFFFFFFFFFFFFFFC
007FFFFFFFFFFFFFFFFC
01FFFFFFFFFFFFFFFFFC
07FFFFFFFFFFFFFFFFFC
0FFFFFFFFFFFFFFFFFFC
1FFFFFFFFFFFFFFFFFFC
3FFFFF80FFFFFFFFFFFC
7FFFE000FFF800000000
7FFF0001FFF800000000
FFFE0001FFF800000000
FFF80001FFFC00000000
FFF80001FFFC00004000
FFF00003FFFE00007C00
FFF00003FFFE0000FF80
FFF00007FFFF0001FFF0
FFF0000FFFFF8003FFF8
FFF8001FFFFFE00FFFF8
FFF8007FFFFFFFFFFFF0
FFFE01FFFFFFFFFFFFE0
FFFFFFFFFFFFFFFFFFE0
7FFFFFFFF3FFFFFFFFC0
7FFFFFFFE1FFFFFFFF80
3FFFFFFFC0FFFFFFFF00
1FFFFFFF807FFFFFFE00
0FFFFFFF003FFFFFFC00
07FFFFFC001FFFFFF800
03FFFFF80007FFFFE000
00FFFFC00000FFFF8000
001FFE0000001FF80000
ENDCHAR
STARTCHAR 00E7
ENCODING 231
SWIDTH 578 0
DWIDTH 53 0
BBX 47 73 4 -22
BITMAP
00001FFC0000
0001FFFFC000
0007FFFFF000
001FFFFFFC00
003FFFFFFE00
00FFFFFFFF00
01FFFFFFFF80
03FFFFFFFFC0
07FFFFFFFFE0
07FFFFFFFFF0
0FFFFFFFFFF0
1FFFFFFFFFF8
1FFFF00FFFF8
3FFFC003FFFC
3FFF8001FFFC
7FFF0000FFFC
7FFE00007FFE
7FFE00007FE0
7FFC00003E00
FFFC00002000
FFF800000000
FFF800000000
FFF800000000
FFF800000000
FFF800000000
FFF800000000
FFF800000000
FFF800000000
FFF800000000
FFF800000000
FFF800000000
FFF800000000
FFFC00000000
FFFC00002000
7FFC00007F00
7FFE00007FF8
7FFF0000FFFC
3FFF0000FFFC
3FFFC001FFFC
1FFFE007FFF8
1FFFFE3FFFF8
0FFFFFFFFFF0
0FFFFFFFFFF0
07FFFFFFFFE0
03FFFFFFFFC0
01FFFFFFFFC0
00FFFFFFFF80
007FFFFFFE00
001FFFFFFC00
000FFFFFF000
0003FFFFC000
00003FFE0000
00000FF00000
00000FE00000
00000FF00000
00001FF80000
00001FFC0000
00001FFE0000
00003FFF0000
000007FF0000
000001FF0000
000000FF8000
000000FF8000
000000FF8000
000011FF8000
00003FFF0000
00003FFF0000
00003FFF0000
00007FFE0000
00007FFC0000
00007FF80000
00007FF00000
00001FC00000
ENDCHAR
STARTCHAR 00E8
ENCODING 232
SWIDTH 610 0
DWIDTH 56 0
BBX 48 75 4 -1
BITMAP
0007FC000000
0007FC000000
0003FE000000
0003FE000000
0003FF000000
0001FF000000
0001FF800000
0000FF800000
0000FF800000
00007FC00000
00007FC00000
00007FE00000
00003FE00000
00003FF00000
00001FF00000
00001FF00000
00000FF80000
00000FF80000
000000000000
000000000000
000000000000
000000000000
000000000000
00001FFC0000
0000FFFFC000
0007FFFFF000
001FFFFFFC00
003FFFFFFE00
007FFFFFFF00
01FFFFFFFF80
03FFFFFFFFC0
03FFFFFFFFE0
07FFFFFFFFF0
0FFFFFFFFFF0
1FFFF803FFF8
1FFFC001FFF8
3FFF80007FFC
3FFF00007FFC
3FFE00003FFE
7FFE00003FFE
7FFC00001FFE
7FFC00001FFE
FFFC00001FFE
FFFFFFFFFFFF
FFFFFFFFFFFF
FFFFFFFFFFFF
FFFFFFFFFFFF
FFFFFFFFFFFF
FFFFFFFFFFFF
FFFFFFFFFFFF
FFFFFFFFFFFF
FFFFFFFFFFFF
FFF800000000
FFF800000000
FFF800000000
FFFC00000000
FFFC00000000
7FFE00001000
7FFE00003F00
7FFF00007FE0
3FFF80007FFE
3FFFC001FFFE
1FFFF007FFFE
1FFFFFFFFFFC
0FFFFFFFFFF8
07FFFFFFFFF8
03FFFFFFFFF0
03FFFFFFFFE0
00FFFFFFFFC0
007FFFFFFF80
003FFFFFFF00
000FFFFFFC00
0003FFFFF000
0000FFFFC000
00000FFE0000
ENDCHAR
STARTCHAR 00E9
ENCODING 233
SWIDTH 610 0
DWIDTH 56 0
BBX 48 75 4 -1
BITMAP
0000000FFC00
0000000FF800
0000001FF800
0000001FF000
0000001FF000
0000003FE000
0000003FE000
0000007FE000
0000007FC000
000000FFC000
000000FF8000
000000FF8000
000001FF0000
000001FF0000
000003FF0000
000003FE0000
000007FE0000
000007FC0000
000000000000
000000000000
000000000000
000000000000
000000000000
00001FFC0000
0000FFFFC000
0007FFFFF000
001FFFFFFC00
003FFFFFFE00
007FFFFFFF00
01FFFFFFFF80
03FFFFFFFFC0
03FFFFFFFFE0
07FFFFFFFFF0
0FFFFFFFFFF0
1FFFF803FFF8
1FFFC001FFF8
3FFF80007FFC
3FFF00007FFC
3FFE00003FFE
7FFE00003FFE
7FFC00001FFE
7FFC00001FFE
FFFC00001FFE
FFFFFFFFFFFF
FFFFFFFFFFFF
FFFFFFFFFFFF
FFFFFFFFFFFF
FFFFFFFFFFFF
FFFFFFFFFFFF
FFFFFFFFFFFF
FFFFFFFFFFFF
FFFFFFFFFFFF
FFF800000000
FFF800000000
FFF800000000
FFFC00000000
FFFC00000000
7FFE00001000
7FFE00003F00
7FFF00007FE0
3FFF80007FFE
3FFFC001FFFE
1FFFF007FFFE
1FFFFFFFFFFC
0FFFFFFFFFF8
07FFFFFFFFF8
03FFFFFFFFF0
03FFFFFFFFE0
00FFFFFFFFC0
007FFFFFFF80
003FFFFFFF00
000FFFFFFC00
0003FFFFF000
0000FFFFC000
00000FFE0000
ENDCHAR
STARTCHAR 00EA
ENCODING 234
SWIDTH 610 0
DWIDTH 56 0
BBX 48 73 4 -1
BITMAP
00001FFC0000
00003FFE0000
00007FFF0000
0000FFFF8000
0001FFFFC000
0001FFFFC000
0003FFFFE000
0007FF7FF000
000FFE3FF800
001FFC1FFC00
003FFC0FFE00
007FF80FFF00
00FFF007FF80
00FFE003FF80
01FFC001FFC0
000000000000
000000000000
000000000000
000000000000
000000000000
000000000000
00001FFC0000
0000FFFFC000
0007FFFFF000
001FFFFFFC00
003FFFFFFE00
007FFFFFFF00
01FFFFFFFF80
03FFFFFFFFC0
03FFFFFFFFE0
07FFFFFFFFF0
0FFFFFFFFFF0
1FFFF803FFF8
1FFFC001FFF8
3FFF80007FFC
3FFF00007FFC
3FFE00003FFE
7FFE00003FFE
7FFC00001FFE
7FFC00001FFE
FFFC00001FFE
FFFFFFFFFFFF
FFFFFFFFFFFF
FFFFFFFFFFFF
FFFFFFFFFFFF
FFFFFFFFFFFF
FFFFFFFFFFFF
FFFFFFFFFFFF
FFFFFFFFFFFF
FFFFFFFFFFFF
FFF800000000
FFF800000000
FFF800000000
FFFC00000000
FFFC00000000
7FFE00001000
7FFE00003F00
7FFF00007FE0
3FFF80007FFE
3FFFC001FFFE
1FFFF007FFFE
1FFFFFFFFFFC
0FFFFFFFFFF8
07FFFFFFFFF8
03FFFFFFFFF0
03FFFFFFFFE0
00FFFFFFFFC0
007FFFFFFF80
003FFFFFFF00
000FFFFFFC00
0003FFFFF000
0000FFFFC000
00000FFE0000
ENDCHAR
STARTCHAR 00EB
ENCODING 235
SWIDTH 610 0
DWIDTH 56 0
BBX 48 69 4 -1
BITMAP
007FF007FF00
007FF007FF00
007FF007FF00
007FF007FF00
007FF007FF00
007FF007FF00
007FF007FF00
007FF007FF00
007FF007FF00
007FF007FF00
007FF007FF00
000000000000
000000000000
000000000000
000000000000
000000000000
000000000000
00001FFC0000
0000FFFFC000
0007FFFFF000
001FFFFFFC00
003FFFFFFE00
007FFFFFFF00
01FFFFFFFF80
03FFFFFFFFC0
03FFFFFFFFE0
07FFFFFFFFF0
0FFFFFFFFFF0
1FFFF803FFF8
1FFFC001FFF8
3FFF80007FFC
3FFF00007FFC
3FFE00003FFE
7FFE00003FFE
7FFC00001FFE
7FFC00001FFE
FFFC00001FFE
FFFFFFFFFFFF
FFFFFFFFFFFF
FFFFFFFFFFFF
FFFFFFFFFFFF
FFFFFFFFFFFF
FFFFFFFFFFFF
FFFFFFFFFFFF
FFFFFFFFFFFF
FFFFFFFFFFFF
FFF800000000
FFF800000000
FFF800000000
FFFC00000000
FFFC00000000
7FFE00001000
7FFE00003F00
7FFF00007FE0
3FFF80007FFE
3FFFC001FFFE
1FFFF007FFFE
1FFFFFFFFFFC
0FFFFFFFFFF8
07FFFFFFFFF8
03FFFFFFFFF0
03FFFFFFFFE0
00FFFFFFFFC0
007FFFFFFF80
003FFFFFFF00
000FFFFFFC00
0003FFFFF000
0000FFFFC000
00000FFE0000
ENDCHAR
STARTCHAR 00EC
ENCODING 236
SWIDTH 294 0
DWIDTH 27 0
BBX 19 75 1 0
BITMAP
FFC000
7FC000
7FC000
3FE000
3FE000
3FF000
1FF000
1FF000
0FF800
0FF800
0FFC00
07FC00
07FE00
03FE00
03FE00
01FF00
01FF00
01FF80
000000
000000
000000
000000
000000
000000
000000
03FFE0
03FFE0
03FFE0
03FFE0
03FFE0
03FFE0
03FFE0
03FFE0
03FFE0
03FFE0
03FFE0
03FFE0
03FFE0
03FFE0
03FFE0
03FFE0
03FFE0
03FFE0
03FFE0
03FFE0
03FFE0
03FFE0
03FFE0
03FFE0
03FFE0
03FFE0
03FFE0
03FFE0
03FFE0
03FFE0
03FFE0
03FFE0
03FFE0
03FFE0
03FFE0
03FFE0
03FFE0
03FFE0
03FFE0
03FFE0
03FFE0
03FFE0
03FFE0
03FFE0
03FFE0
03FFE0
03FFE0
03FFE0
03FFE0
03FFE0
ENDCHAR
STARTCHAR 00ED
ENCODING 237
SWIDTH 294 0
DWIDTH 27 0
BBX 19 75 7 0
BITMAP
003FE0
007FC0
007FC0
00FFC0
00FF80
01FF80
01FF00
01FF00
03FE00
03FE00
07FE00
07FC00
0FFC00
0FF800
0FF800
1FF000
1FF000
3FF000
000000
000000
000000
000000
000000
000000
000000
FFF800
FFF800
FFF800
FFF800
FFF800
FFF800
FFF800
FFF800
FFF800
FFF800
FFF800
FFF800
FFF800
FFF800
FFF800
FFF800
FFF800
FFF800
FFF800
FFF800
FFF800
FFF800
FFF800
FFF800
FFF800
FFF800
FFF800
FFF800
FFF800
FFF800
FFF800
FFF800
FFF800
FFF800
FFF800
FFF800
FFF800
FFF800
FFF800
FFF800
FFF800
FFF800
FFF800
FFF800
FFF800
FFF800
FFF800
FFF800
FFF800
FFF800
ENDCHAR
STARTCHAR 00EE
ENCODING 238
SWIDTH 294 0
DWIDTH 27 0
BBX 36 72 -4 0
BITMAP
0007FF0000
000FFF8000
001FFFC000
003FFFC000
007FFFE000
00FFFFF000
01FFFFF800
01FFDFFC00
03FF8FFE00
07FF0FFF00
0FFE07FF80
1FFC03FF80
3FFC01FFC0
7FF800FFE0
FFF0007FF0
0000000000
0000000000
0000000000
0000000000
0000000000
0000000000
0000000000
001FFF0000
001FFF0000
001FFF0000
001FFF0000
001FFF0000
001FFF0000
001FFF0000
001FFF0000
001FFF0000
001FFF0000
001FFF0000
001FFF0000
001FFF0000
001FFF0000
001FFF0000
001FFF0000
001FFF0000
001FFF0000
001FFF0000
001FFF0000
001FFF0000
001FFF0000
001FFF0000
001FFF0000
001FFF0000
001FFF0000
001FFF0000
001FFF0000
001FFF0000
001FFF0000
001FFF0000
001FFF0000
001FFF0000
001FFF0000
001FFF0000
001FFF0000
001FFF0000
001FFF0000
001FFF0000
001FFF0000
001FFF0000
001FFF0000
001FFF0000
001FFF0000
001FFF0000
001FFF0000
001FFF0000
001FFF0000
001FFF0000
001FFF0000
ENDCHAR
STARTCHAR 00EF
ENCODING 239
SWIDTH 294 0
DWIDTH 27 0
BBX 31 68 -2 0
BITMAP
FFE00FFE
FFE00FFE
FFE00FFE
FFE00FFE
FFE00FFE
FFE00FFE
FFE00FFE
FFE00FFE
FFE00FFE
FFE00FFE
FFE00FFE
00000000
00000000
00000000
00000000
00000000
00000000
00000000
007FFC00
007FFC00
007FFC00
007FFC00
007FFC00
007FFC00
007FFC00
007FFC00
007FFC00
007FFC00
007FFC00
007FFC00
007FFC00
007FFC00
007FFC00
007FFC00
007FFC00
007FFC00
007FFC00
007FFC00
007FFC00
007FFC00
007FFC00
007FFC00
007FFC00
007FFC00
007FFC00
007FFC00
007FFC00
007FFC00
007FFC00
007FFC00
007FFC00
007FFC00
007FFC00
007FFC00
007FFC00
007FFC00
007FFC00
007FFC00
007FFC00
007FFC00
007FFC00
007FFC00
007FFC00
007FFC00
007FFC00
007FFC00
007FFC00
007FFC00
ENDCHAR
STARTCHAR 00F0
ENCODING 240
SWIDTH 600 0
DWIDTH 55 0
BBX 47 73 4 -1
BITMAP
000000004000
00000000E000
0000F801F000
0000FF81FC00
0000FFF3FE00
0000FFFFFF00
0001FFFFFF00
0001FFFFFE00
0001FFFFFC00
0001FFFFF800
0001FFFFF800
0001FFFFFC00
00000FFFFE00
000003FFFE00
000007FFFF00
00000FFFFF80
00001FFFFF80
00001FFFFFC0
00000FFBFFC0
000007F1FFE0
000003F0FFE0
000000E07FF0
000000403FF0
000000003FF0
00003FF01FF8
0001FFFF1FF8
000FFFFFCFF8
003FFFFFFFFC
007FFFFFFFFC
00FFFFFFFFFC
01FFFFFFFFFC
03FFFFFFFFFC
07FFFFFFFFFC
0FFFFFFFFFFE
1FFFFFFFFFFE
1FFFF01FFFFE
3FFF8003FFFE
3FFF0001FFFE
7FFE0000FFFE
7FFC00007FFE
7FFC00007FFE
FFF800003FFE
FFF800003FFE
FFF800003FFE
FFF000001FFE
FFF000001FFE
FFF000001FFE
FFF000001FFE
FFF000001FFE
FFF000001FFE
FFF000001FFE
FFF000001FFE
FFF000001FFE
FFF800003FFE
FFF800003FFE
FFF800003FFE
7FFC00007FFC
7FFC00007FFC
7FFE0000FFFC
3FFF0001FFF8
3FFF8007FFF8
1FFFF01FFFF0
1FFFFFFFFFF0
0FFFFFFFFFE0
07FFFFFFFFE0
03FFFFFFFFC0
01FFFFFFFF80
00FFFFFFFF00
007FFFFFFC00
003FFFFFF800
000FFFFFE000
0001FFFF8000
00003FF80000
ENDCHAR
STARTCHAR 00F1
ENCODING 241
SWIDTH 632 0
DWIDTH 58 0
BBX 47 73 6 0
BITMAP
000FC0000000
003FF0000000
007FFC00FF00
00FFFF00FF00
01FFFF80FF00
01FFFFC0FF00
01FFFFF1FF00
01FFFFFFFF00
03FFFFFFFF00
03FE3FFFFF00
03FE0FFFFE00
03FC03FFFE00
01FC01FFFC00
01FE00FFFC00
0000003FF000
00000007C000
000000000000
000000000000
000000000000
000000000000
000000000000
0000007E0000
00001FFFE000
FFE07FFFF800
FFE1FFFFFE00
FFE3FFFFFF00
FFE7FFFFFF80
FFEFFFFFFFC0
FFFFFFFFFFE0
FFFFFFFFFFE0
FFFFFFFFFFF0
FFFFFFFFFFF0
FFFFFFFFFFF8
FFFFF01FFFF8
FFFFC007FFFC
FFFF8003FFFC
FFFF0001FFFC
FFFE0000FFFC
FFFE0000FFFC
FFFC00007FFE
FFFC00007FFE
FFFC00007FFE
FFF800003FFE
FFF800003FFE
FFF800003FFE
FFF800003FFE
FFF800003FFE
FFF800003FFE
FFF800003FFE
FFF800003FFE
FFF800003FFE
FFF800003FFE
FFF800003FFE
FFF800003FFE
FFF800003FFE
FFF800003FFE
FFF800003FFE
FFF800003FFE
FFF800003FFE
FFF800003FFE
FFF800003FFE
FFF800003FFE
FFF800003FFE
FFF800003FFE
FFF800003FFE
FFF800003FFE
FFF800003FFE
FFF800003FFE
FFF800003FFE
FFF800003FFE
FFF800003FFE
FFF800003FFE
FFF800003FFE
ENDCHAR
STARTCHAR 00F2
ENCODING 242
SWIDTH 621 0
DWIDTH 57 0
BBX 50 75 4 -1
BITMAP
000FFC00000000
0007FC00000000
0007FC00000000
0003FE00000000
0003FE00000000
0003FF00000000
0001FF00000000
0001FF80000000
0000FF80000000
0000FF80000000
00007FC0000000
00007FC0000000
00007FE0000000
00003FE0000000
00003FF0000000
00001FF0000000
00001FF0000000
00001FF8000000
00000000000000
00000000000000
00000000000000
00000000000000
00000000000000
00001FFC000000
0000FFFFC00000
0007FFFFF00000
001FFFFFFC0000
003FFFFFFF0000
00FFFFFFFF8000
01FFFFFFFFC000
03FFFFFFFFE000
07FFFFFFFFF000
07FFFFFFFFF800
0FFFFFFFFFF800
1FFFFFFFFFFC00
1FFFF007FFFE00
3FFFC001FFFE00
3FFF80007FFF00
7FFF00003FFF00
7FFE00003FFF00
7FFE00001FFF80
FFFC00001FFF80
FFFC00000FFF80
FFF800000FFF80
FFF800000FFF80
FFF800000FFFC0
FFF800000FFFC0
FFF8000007FFC0
FFF8000007FFC0
FFF8000007FFC0
FFF8000007FFC0
FFF800000FFFC0
FFF800000FFFC0
FFF800000FFF80
FFF800000FFF80
FFFC00000FFF80
FFFC00001FFF80
7FFE00001FFF80
7FFE00003FFF00
7FFF00007FFF00
3FFF80007FFF00
3FFFC001FFFE00
1FFFF007FFFE00
1FFFFFFFFFFC00
0FFFFFFFFFF800
07FFFFFFFFF800
07FFFFFFFFF000
03FFFFFFFFE000
01FFFFFFFFC000
00FFFFFFFF8000
003FFFFFFF0000
001FFFFFFC0000
0007FFFFF00000
0000FFFFC00000
00001FFC000000
ENDCHAR
STARTCHAR 00F3
ENCODING 243
SWIDTH 621 0
DWIDTH 57 0
BBX 50 75 4 -1
BITMAP
0000001FF80000
0000001FF00000
0000001FF00000
0000003FE00000
0000003FE00000
0000007FE00000
0000007FC00000
000000FFC00000
000000FF800000
000000FF800000
000001FF000000
000001FF000000
000003FF000000
000003FE000000
000003FE000000
000007FC000000
000007FC000000
00000FFC000000
00000000000000
00000000000000
00000000000000
00000000000000
00000000000000
00001FFC000000
0000FFFFC00000
0007FFFFF00000
001FFFFFFC0000
003FFFFFFF0000
00FFFFFFFF8000
01FFFFFFFFC000
03FFFFFFFFE000
07FFFFFFFFF000
07FFFFFFFFF800
0FFFFFFFFFF800
1FFFFFFFFFFC00
1FFFF007FFFE00
3FFFC001FFFE00
3FFF80007FFF00
7FFF00003FFF00
7FFE00003FFF00
7FFE00001FFF80
FFFC00001FFF80
FFFC00000FFF80
FFF800000FFF80
FFF800000FFF80
FFF800000FFFC0
FFF800000FFFC0
FFF8000007FFC0
FFF8000007FFC0
FFF8000007FFC0
FFF8000007FFC0
FFF800000FFFC0
FFF800000FFFC0
FFF800000FFF80
FFF800000FFF80
FFFC00000FFF80
FFFC00001FFF80
7FFE00001FFF80
7FFE00003FFF00
7FFF00007FFF00
3FFF80007FFF00
3FFFC001FFFE00
1FFFF007FFFE00
1FFFFFFFFFFC00
0FFFFFFFFFF800
07FFFFFFFFF800
07FFFFFFFFF000
03FFFFFFFFE000
01FFFFFFFFC000
00FFFFFFFF8000
003FFFFFFF0000
001FFFFFFC0000
0007FFFFF00000
0000FFFFC00000
00001FFC000000
ENDCHAR
STARTCHAR 00F4
ENCODING 244
SWIDTH 621 0
DWIDTH 57 0
BBX 50 73 4 -1
BITMAP
00001FFC000000
00003FFE000000
00007FFF000000
0000FFFF800000
0000FFFFC00000
0001FFFFE00000
0003FFFFE00000
0007FF7FF00000
000FFE3FF80000
001FFC1FFC0000
003FFC0FFE0000
007FF80FFF0000
007FF007FF8000
00FFE003FFC000
01FFC001FFC000
00000000000000
00000000000000
00000000000000
00000000000000
00000000000000
00000000000000
00001FFC000000
0000FFFFC00000
0007FFFFF00000
001FFFFFFC0000
003FFFFFFF0000
00FFFFFFFF8000
01FFFFFFFFC000
03FFFFFFFFE000
07FFFFFFFFF000
07FFFFFFFFF800
0FFFFFFFFFF800
1FFFFFFFFFFC00
1FFFF007FFFE00
3FFFC001FFFE00
3FFF80007FFF00
7FFF00003FFF00
7FFE00003FFF00
7FFE00001FFF80
FFFC00001FFF80
FFFC00000FFF80
FFF800000FFF80
FFF800000FFF80
FFF800000FFFC0
FFF800000FFFC0
FFF8000007FFC0
FFF8000007FFC0
FFF8000007FFC0
FFF8000007FFC0
FFF800000FFFC0
FFF800000FFFC0
FFF800000FFF80
FFF800000FFF80
FFFC00000FFF80
FFFC00001FFF80
7FFE00001FFF80
7FFE00003FFF00
7FFF00007FFF00
3FFF80007FFF00
3FFFC001FFFE00
1FFFF007FFFE00
1FFFFFFFFFFC00
0FFFFFFFFFF800
07FFFFFFFFF800
07FFFFFFFFF000
03FFFFFFFFE000
01FFFFFFFFC000
00FFFFFFFF8000
003FFFFFFF0000
001FFFFFFC0000
0007FFFFF00000
0000FFFFC00000
00001FFC000000
ENDCHAR
STARTCHAR 00F5
ENCODING 245
SWIDTH 621 0
DWIDTH 57 0
BBX 50 74 4 -1
BITMAP
0003E000000000
000FFC00000000
003FFF007F8000
003FFF803F8000
007FFFC03F8000
007FFFF07FC000
00FFFFFC7FC000
00FFFFFFFFC000
00FFFFFFFF8000
00FF8FFFFF8000
00FF03FFFF8000
00FF01FFFF8000
00FF00FFFF0000
00FF003FFE0000
007F000FFC0000
00000003F00000
00000000000000
00000000000000
00000000000000
00000000000000
00000000000000
00000000000000
00001FFC000000
0000FFFFC00000
0007FFFFF00000
001FFFFFFC0000
003FFFFFFF0000
00FFFFFFFF8000
01FFFFFFFFC000
03FFFFFFFFE000
07FFFFFFFFF000
07FFFFFFFFF800
0FFFFFFFFFF800
1FFFFFFFFFFC00
1FFFF007FFFE00
3FFFC001FFFE00
3FFF80007FFF00
7FFF00003FFF00
7FFE00003FFF00
7FFE00001FFF80
FFFC00001FFF80
FFFC00000FFF80
FFF800000FFF80
FFF800000FFF80
FFF800000FFFC0
FFF800000FFFC0
FFF8000007FFC0
FFF8000007FFC0
FFF8000007FFC0
FFF8000007FFC0
FFF800000FFFC0
FFF800000FFFC0
FFF800000FFF80
FFF800000FFF80
FFFC00000FFF80
FFFC00001FFF80
7FFE00001FFF80
7FFE00003FFF00
7FFF00007FFF00
3FFF80007FFF00
3FFFC001FFFE00
1FFFF007FFFE00
1FFFFFFFFFFC00
0FFFFFFFFFF800
07FFFFFFFFF800
07FFFFFFFFF000
03FFFFFFFFE000
01FFFFFFFFC000
00FFFFFFFF8000
003FFFFFFF0000
001FFFFFFC0000
0007FFFFF00000
0000FFFFC00000
00001FFC000000
ENDCHAR
STARTCHAR 00F6
ENCODING 246
SWIDTH 621 0
DWIDTH 57 0
BBX 50 69 4 -1
BITMAP
003FF807FF0000
003FF807FF0000
003FF807FF0000
003FF807FF0000
003FF807FF0000
003FF807FF0000
003FF807FF0000
003FF807FF0000
003FF807FF0000
003FF807FF0000
003FF807FF0000
00000000000000
00000000000000
00000000000000
00000000000000
00000000000000
00000000000000
00001FFC000000
0000FFFFC00000
0007FFFFF00000
001FFFFFFC0000
003FFFFFFF0000
00FFFFFFFF8000
01FFFFFFFFC000
03FFFFFFFFE000
07FFFFFFFFF000
07FFFFFFFFF800
0FFFFFFFFFF800
1FFFFFFFFFFC00
1FFFF007FFFE00
3FFFC001FFFE00
3FFF80007FFF00
7FFF00003FFF00
7FFE00003FFF00
7FFE00001FFF80
FFFC00001FFF80
FFFC00000FFF80
FFF800000FFF80
FFF800000FFF80
FFF800000FFFC0
FFF800000FFFC0
FFF8000007FFC0
FFF8000007FFC0
FFF8000007FFC0
FFF8000007FFC0
FFF800000FFFC0
FFF800000FFFC0
FFF800000FFF80
FFF800000FFF80
FFFC00000FFF80
FFFC00001FFF80
7FFE00001FFF80
7FFE00003FFF00
7FFF00007FFF00
3FFF80007FFF00
3FFFC001FFFE00
1FFFF007FFFE00
1FFFFFFFFFFC00
0FFFFFFFFFF800
07FFFFFFFFF800
07FFFFFFFFF000
03FFFFFFFFE000
01FFFFFFFFC000
00FFFFFFFF8000
003FFFFFFF0000
001FFFFFFC0000
0007FFFFF00000
0000FFFFC00000
00001FFC000000
ENDCHAR
STARTCHAR 00F7
ENCODING 247
SWIDTH 545 0
DWIDTH 50 0
BBX 39 42 5 12
BITMAP
0003FF8000
0003FF8000
0003FF8000
0003FF8000
0003FF8000
0003FF8000
0003FF8000
0003FF8000
0003FF8000
0003FF8000
0003FF8000
0000000000
0000000000
0000000000
0000000000
0000000000
FFFFFFFFFE
FFFFFFFFFE
FFFFFFFFFE
FFFFFFFFFE
FFFFFFFFFE
FFFFFFFFFE
FFFFFFFFFE
FFFFFFFFFE
FFFFFFFFFE
FFFFFFFFFE
0000000000
0000000000
0000000000
0000000000
0000000000
0003FF8000
0003FF8000
0003FF8000
0003FF8000
0003FF8000
0003FF8000
0003FF8000
0003FF8000
0003FF8000
0003FF8000
0003FF8000
ENDCHAR
STARTCHAR 00F8
ENCODING 248
SWIDTH 621 0
DWIDTH 57 0
BBX 52 52 3 -1
BITMAP
00000FFE001000
00007FFFE03800
0003FFFFF87C00
000FFFFFFEFE00
001FFFFFFFFF00
007FFFFFFFFF80
00FFFFFFFFFFC0
01FFFFFFFFFFE0
03FFFFFFFFFFF0
03FFFFFFFFFFE0
07FFFFFFFFFFC0
0FFFFFFFFFFF80
0FFFF803FFFF00
1FFFE000FFFF00
1FFFC001FFFF80
3FFF8003FFFF80
3FFF0007FFFF80
3FFF000FFFFFC0
7FFE001FFFFFC0
7FFE003FFFFFC0
7FFC007FFFFFC0
7FFC00FFFFFFC0
7FFC01FFF7FFE0
7FFC03FFE7FFE0
7FFC07FFC3FFE0
7FFC0FFF83FFE0
7FFC1FFF03FFE0
7FFC3FFE03FFE0
7FFC7FFC07FFE0
7FFCFFF807FFE0
7FFDFFF007FFC0
7FFFFFE007FFC0
7FFFFFC007FFC0
3FFFFF800FFFC0
3FFFFF000FFFC0
3FFFFE001FFF80
3FFFFC003FFF80
1FFFF8003FFF80
1FFFF000FFFF00
0FFFF803FFFF00
1FFFFFFFFFFE00
3FFFFFFFFFFC00
7FFFFFFFFFFC00
FFFFFFFFFFF800
FFFFFFFFFFF000
7FFFFFFFFFE000
3FFFFFFFFFC000
1FFFFFFFFF8000
0FEFFFFFFE0000
07C3FFFFF80000
03807FFFE00000
01000FFE000000
ENDCHAR
STARTCHAR 00F9
ENCODING 249
SWIDTH 632 0
DWIDTH 58 0
BBX 47 77 5 -2
BITMAP
001FF8000000
000FF8000000
000FFC000000
0007FC000000
0007FC000000
0003FE000000
0003FE000000
0003FF000000
0001FF000000
0001FF800000
0000FF800000
0000FF800000
00007FC00000
00007FC00000
00007FE00000
00003FE00000
00003FE00000
00001FF00000
000000000000
000000000000
000000000000
000000000000
000000000000
000000000000
000000000000
FFF800003FFE
FFF800003FFE
FFF800003FFE
FFF800003FFE
FFF800003FFE
FFF800003FFE
FFF800003FFE
FFF800003FFE
FFF800003FFE
FFF800003FFE
FFF800003FFE
FFF800003FFE
FFF800003FFE
FFF800003FFE
FFF800003FFE
FFF800003FFE
FFF800003FFE
FFF800003FFE
FFF800003FFE
FFF800003FFE
FFF800003FFE
FFF800003FFE
FFF800003FFE
FFF800003FFE
FFF800003FFE
FFF800003FFE
FFF800003FFE
FFF800003FFE
FFF800003FFE
FFF800003FFE
7FFC00003FFE
7FFC00003FFE
7FFC00007FFE
7FFC00007FFE
7FFE00007FFE
7FFE0000FFFE
7FFF0001FFFE
7FFF8001FFFE
3FFFC007FFFE
3FFFF01FFFFE
3FFFFFFFFFFE
1FFFFFFFFFFE
1FFFFFFFFFFE
0FFFFFFFFFFE
07FFFFFFFFFE
07FFFFFFFFFE
03FFFFFFEFFE
01FFFFFF8FFE
00FFFFFF0FFE
003FFFFC0FFE
000FFFF00000
0000FC000000
ENDCHAR
STARTCHAR 00FA
ENCODING 250
SWIDTH 632 0
DWIDTH 58 0
BBX 47 77 5 -2
BITMAP
0000003FE000
0000003FE000
0000007FC000
0000007FC000
000000FFC000
000000FF8000
000001FF8000
000001FF0000
000001FF0000
000003FE0000
000003FE0000
000007FE0000
000007FC0000
00000FFC0000
00000FF80000
00000FF80000
00001FF00000
00001FF00000
000000000000
000000000000
000000000000
000000000000
000000000000
000000000000
000000000000
FFF800003FFE
FFF800003FFE
FFF800003FFE
FFF800003FFE
FFF800003FFE
FFF800003FFE
FFF800003FFE
FFF800003FFE
FFF800003FFE
FFF800003FFE
FFF800003FFE
FFF800003FFE
FFF800003FFE
FFF800003FFE
FFF800003FFE
FFF800003FFE
FFF800003FFE
FFF800003FFE
FFF800003FFE
FFF800003FFE
FFF800003FFE
FFF800003FFE
FFF800003FFE
FFF800003FFE
FFF800003FFE
FFF800003FFE
FFF800003FFE
FFF800003FFE
FFF800003FFE
FFF800003FFE
7FFC00003FFE
7FFC00003FFE
7FFC00007FFE
7FFC00007FFE
7FFE00007FFE
7FFE0000FFFE
7FFF0001FFFE
7FFF8001FFFE
3FFFC007FFFE
3FFFF01FFFFE
3FFFFFFFFFFE
1FFFFFFFFFFE
1FFFFFFFFFFE
0FFFFFFFFFFE
07FFFFFFFFFE
07FFFFFFFFFE
03FFFFFFEFFE
01FFFFFF8FFE
00FFFFFF0FFE
003FFFFC0FFE
000FFFF00000
0000FC000000
ENDCHAR
STARTCHAR 00FB
ENCODING 251
SWIDTH 632 0
DWIDTH 58 0
BBX 47 74 5 -2
BITMAP
00003FF80000
00007FFC0000
0000FFFE0000
0001FFFF0000
0003FFFF8000
0003FFFF8000
0007FFFFC000
000FFEFFE000
001FFC7FF000
003FF83FF800
007FF81FFC00
00FFF01FFE00
01FFE00FFF00
01FFC007FF00
03FF8003FF80
000000000000
000000000000
000000000000
000000000000
000000000000
000000000000
000000000000
FFF800003FFE
FFF800003FFE
FFF800003FFE
FFF800003FFE
FFF800003FFE
FFF800003FFE
FFF800003FFE
FFF800003FFE
FFF800003FFE
FFF800003FFE
FFF800003FFE
FFF800003FFE
FFF800003FFE
FFF800003FFE
FFF800003FFE
FFF800003FFE
FFF800003FFE
FFF800003FFE
FFF800003FFE
FFF800003FFE
FFF800003FFE
FFF800003FFE
FFF800003FFE
FFF800003FFE
FFF800003FFE
FFF800003FFE
FFF800003FFE
FFF800003FFE
FFF800003FFE
FFF800003FFE
7FFC00003FFE
7FFC00003FFE
7FFC00007FFE
7FFC00007FFE
7FFE00007FFE
7FFE0000FFFE
7FFF0001FFFE
7FFF8001FFFE
3FFFC007FFFE
3FFFF01FFFFE
3FFFFFFFFFFE
1FFFFFFFFFFE
1FFFFFFFFFFE
0FFFFFFFFFFE
07FFFFFFFFFE
07FFFFFFFFFE
03FFFFFFEFFE
01FFFFFF8FFE
00FFFFFF0FFE
003FFFFC0FFE
000FFFF00000
0000FC000000
ENDCHAR
STARTCHAR 00FC
ENCODING 252
SWIDTH 632 0
DWIDTH 58 0
BBX 47 70 5 -2
BITMAP
00FFE00FFE00
00FFE00FFE00
00FFE00FFE00
00FFE00FFE00
00FFE00FFE00
00FFE00FFE00
00FFE00FFE00
00FFE00FFE00
00FFE00FFE00
00FFE00FFE00
00FFE00FFE00
000000000000
000000000000
000000000000
000000000000
000000000000
000000000000
000000000000
FFF800003FFE
FFF800003FFE
FFF800003FFE
FFF800003FFE
FFF800003FFE
FFF800003FFE
FFF800003FFE
FFF800003FFE
FFF800003FFE
FFF800003FFE
FFF800003FFE
FFF800003FFE
FFF800003FFE
FFF800003FFE
FFF800003FFE
FFF800003FFE
FFF800003FFE
FFF800003FFE
FFF800003FFE
FFF800003FFE
FFF800003FFE
FFF800003FFE
FFF800003FFE
FFF800003FFE
FFF800003FFE
FFF800003FFE
FFF800003FFE
FFF800003FFE
FFF800003FFE
FFF800003FFE
7FFC00003FFE
7FFC00003FFE
7FFC00007FFE
7FFC00007FFE
7FFE00007FFE
7FFE0000FFFE
7FFF0001FFFE
7FFF8001FFFE
3FFFC007FFFE
3FFFF01FFFFE
3FFFFFFFFFFE
1FFFFFFFFFFE
1FFFFFFFFFFE
0FFFFFFFFFFE
07FFFFFFFFFE
07FFFFFFFFFE
03FFFFFFEFFE
01FFFFFF8FFE
00FFFFFF0FFE
003FFFFC0FFE
000FFFF00000
0000FC000000
ENDCHAR
STARTCHAR 00FD
ENCODING 253
SWIDTH 567 0
DWIDTH 52 0
BBX 51 97 1 -22
BITMAP
00000007FC0000
0000000FFC0000
0000000FF80000
0000001FF80000
0000001FF00000
0000001FF00000
0000003FE00000
0000003FE00000
0000007FE00000
0000007FC00000
0000007FC00000
000000FF800000
000000FF800000
000001FF800000
000001FF000000
000003FF000000
000003FE000000
000003FE000000
00000000000000
00000000000000
00000000000000
00000000000000
00000000000000
00000000000000
00000000000000
FFF8000001FFE0
7FF8000003FFE0
7FFC000003FFC0
7FFC000007FFC0
3FFE000007FF80
3FFE000007FF80
1FFE00000FFF80
1FFF00000FFF00
1FFF00000FFF00
0FFF80001FFF00
0FFF80001FFE00
07FF80003FFE00
07FFC0003FFC00
07FFC0003FFC00
03FFC0007FFC00
03FFE0007FF800
01FFE000FFF800
01FFF000FFF000
01FFF000FFF000
00FFF001FFF000
00FFF801FFE000
007FF801FFE000
007FFC03FFC000
007FFC03FFC000
003FFC07FFC000
003FFE07FF8000
001FFE07FF8000
001FFE0FFF8000
001FFF0FFF0000
000FFF1FFF0000
000FFF9FFE0000
0007FF9FFE0000
0007FFBFFE0000
0003FFFFFC0000
0003FFFFFC0000
0003FFFFF80000
0001FFFFF80000
0001FFFFF80000
0000FFFFF00000
0000FFFFF00000
0000FFFFE00000
00007FFFE00000
00007FFFE00000
00003FFFC00000
00003FFFC00000
00003FFF800000
00001FFF800000
00001FFF800000
00000FFF000000
00000FFF000000
00001FFF000000
00001FFE000000
00001FFE000000
00003FFC000000
00003FFC000000
00003FFC000000
00007FF8000000
00007FF8000000
0000FFF0000000
0000FFF0000000
0000FFF0000000
0001FFE0000000
0001FFE0000000
0001FFC0000000
0003FFC0000000
0003FFC0000000
0003FF80000000
0007FF80000000
0007FF00000000
000FFF00000000
000FFF00000000
000FFE00000000
ENDCHAR
STARTCHAR 00FE
ENCODING 254
SWIDTH 621 0
DWIDTH 57 0
BBX 48 88 6 -22
BITMAP
FFF800000000
FFF800000000
FFF800000000
FFF800000000
FFF800000000
FFF800000000
FFF800000000
FFF800000000
FFF800000000
FFF800000000
FFF800000000
FFF800000000
FFF800000000
FFF800000000
FFF800000000
FFF81FF80000
FFF8FFFF8000
FFFBFFFFE000
FFFFFFFFF800
FFFFFFFFFC00
FFFFFFFFFE00
FFFFFFFFFF00
FFFFFFFFFF80
FFFFFFFFFFC0
FFFFFFFFFFE0
FFFFFFFFFFE0
FFFFE07FFFF0
FFFF800FFFF8
FFFE0007FFF8
FFFC0001FFF8
FFFC0001FFFC
FFF80000FFFC
FFF800007FFC
FFF000007FFE
FFF000007FFE
FFF000003FFE
FFF000003FFE
FFE000003FFE
FFE000003FFE
FFE000003FFF
FFE000003FFF
FFE000003FFF
FFE000003FFE
FFE000003FFE
FFE000003FFE
FFF000003FFE
FFF000003FFE
FFF000007FFE
FFF000007FFE
FFF800007FFC
FFF80000FFFC
FFFC0000FFFC
FFFC0001FFF8
FFFE0003FFF8
FFFF800FFFF8
FFFFE03FFFF0
FFFFFFFFFFE0
FFFFFFFFFFE0
FFFFFFFFFFC0
FFFFFFFFFF80
FFFFFFFFFF00
FFFFFFFFFE00
FFFFFFFFFC00
FFFFFFFFF800
FFFBFFFFE000
FFF8FFFF8000
FFF81FFC0000
FFF800000000
FFF800000000
FFF800000000
FFF800000000
FFF800000000
FFF800000000
FFF800000000
FFF800000000
FFF800000000
FFF800000000
FFF800000000
FFF800000000
FFF800000000
FFF800000000
FFF800000000
FFF800000000
FFF800000000
FFF800000000
FFF800000000
FFF800000000
FFF800000000
ENDCHAR
STARTCHAR 00FF
ENCODING 255
SWIDTH 567 0
DWIDTH 52 0
BBX 51 90 1 -22
BITMAP
001FFC03FF8000
001FFC03FF8000
001FFC03FF8000
001FFC03FF8000
001FFC03FF8000
001FFC03FF8000
001FFC03FF8000
001FFC03FF8000
001FFC03FF8000
001FFC03FF8000
001FFC03FF8000
00000000000000
00000000000000
00000000000000
00000000000000
00000000000000
00000000000000
00000000000000
FFF8000001FFE0
7FF8000003FFE0
7FFC000003FFC0
7FFC000007FFC0
3FFE000007FF80
3FFE000007FF80
1FFE00000FFF80
1FFF00000FFF00
1FFF00000FFF00
0FFF80001FFF00
0FFF80001FFE00
07FF80003FFE00
07FFC0003FFC00
07FFC0003FFC00
03FFC0007FFC00
03FFE0007FF800
01FFE000FFF800
01FFF000FFF000
01FFF000FFF000
00FFF001FFF000
00FFF801FFE000
007FF801FFE000
007FFC03FFC000
007FFC03FFC000
003FFC07FFC000
003FFE07FF8000
001FFE07FF8000
001FFE0FFF8000
001FFF0FFF0000
000FFF1FFF0000
000FFF9FFE0000
0007FF9FFE0000
0007FFBFFE0000
0003FFFFFC0000
0003FFFFFC0000
0003FFFFF80000
0001FFFFF80000
0001FFFFF80000
0000FFFFF00000
0000FFFFF00000
0000FFFFE00000
00007FFFE00000
00007FFFE00000
00003FFFC00000
00003FFFC00000
00003FFF800000
00001FFF800000
00001FFF800000
00000FFF000000
00000FFF000000
00001FFF000000
00001FFE000000
00001FFE000000
00003FFC000000
00003FFC000000
00003FFC000000
00007FF8000000
00007FF8000000
0000FFF0000000
0000FFF0000000
0000FFF0000000
0001FFE0000000
0001FFE0000000
0001FFC0000000
0003FFC0000000
0003FFC0000000
0003FF80000000
0007FF80000000
0007FF00000000
000FFF00000000
000FFF00000000
000FFE00000000
ENDCHAR
ENDFONT
